<svg xmlns="http://www.w3.org/2000/svg" width="748.2" height="603.499" viewBox="0 0 748.2 603.499">
  <g id="Dotvector_Text_to_speech" data-name="Dotvector_Text to speech" transform="translate(-63.9 -212.4)">
    <ellipse id="_x3C_Path_x3E__64_" cx="374.1" cy="21.802" rx="374.1" ry="21.802" transform="translate(63.9 772.296)" fill="#f5f5f5"/>
    <g id="Group_523" data-name="Group 523" transform="translate(152.071 457.041)">
      <g id="Group_517" data-name="Group 517" transform="translate(0 86.697)">
        <g id="Group_515" data-name="Group 515">
          <rect id="Rectangle_37" data-name="Rectangle 37" width="446.643" height="7.139" transform="translate(0 0.124)" fill="#95b0ff" opacity="0.2"/>
          <g id="Group_514" data-name="Group 514" transform="translate(446.887)">
            <rect id="Rectangle_38" data-name="Rectangle 38" width="96.853" height="7.139" transform="translate(96.853 7.139) rotate(180)" fill="#007cff"/>
            <rect id="Rectangle_39" data-name="Rectangle 39" width="96.853" height="7.139" transform="translate(96.853 7.139) rotate(180)" fill="#95b0ff" opacity="0.2"/>
          </g>
        </g>
        <g id="Group_516" data-name="Group 516" transform="translate(16.399 7.262)">
          <path id="Path_579" data-name="Path 579" d="M612.977,395.424H134.114L118.1,387.9H628.99Z" transform="translate(-118.1 -387.9)" fill="#007cff"/>
          <path id="Path_580" data-name="Path 580" d="M612.977,395.424H134.114L118.1,387.9H628.99Z" transform="translate(-118.1 -387.9)" fill="#fff" opacity="0.6"/>
        </g>
        <path id="Path_581" data-name="Path 581" d="M133.9,391.8V620.234h6.174L147.791,391.8Z" transform="translate(-87.017 -377.013)" fill="#95b0ff" opacity="0.2"/>
        <path id="Path_582" data-name="Path 582" d="M171.4,391.8V620.234h6.174L185.291,391.8Z" transform="translate(-52.166 -377.013)" fill="#95b0ff" opacity="0.2"/>
        <path id="Path_583" data-name="Path 583" d="M381.291,391.8V620.234h-6.174L367.4,391.8Z" transform="translate(129.985 -377.013)" fill="#95b0ff" opacity="0.2"/>
        <path id="Path_584" data-name="Path 584" d="M343.791,391.8V620.234h-6.174L329.9,391.8Z" transform="translate(95.135 -377.013)" fill="#95b0ff" opacity="0.2"/>
      </g>
      <g id="Group_520" data-name="Group 520" transform="translate(217.823)">
        <g id="Group_518" data-name="Group 518" transform="translate(54.6)">
          <path id="Path_585" data-name="Path 585" d="M271.444,339.2l-20.065,82.19h0l-.579,4.63H389.906l.579-4.63L410.55,339.2Z" transform="translate(-250.8 -339.2)" fill="#007cff"/>
          <path id="Path_586" data-name="Path 586" d="M271.444,339.2l-20.065,82.19h0l-.579,4.63H389.906l.579-4.63L410.55,339.2Z" transform="translate(-250.8 -339.2)" opacity="0.3"/>
        </g>
        <path id="Path_587" data-name="Path 587" d="M408.071,339.2H268.965L248.9,421.39H387.813Z" transform="translate(-197.965 -339.2)" fill="#007cff"/>
        <path id="Path_588" data-name="Path 588" d="M382.688,415.866,401.017,341.2H269.629L251.3,415.866Z" transform="translate(-195.735 -337.341)" fill="#fff"/>
        <g id="Group_519" data-name="Group 519" transform="translate(0 82.19)">
          <path id="Path_589" data-name="Path 589" d="M376.269,381.8l-.579,4.63H222.5l.579-4.63Z" transform="translate(-222.5 -381.8)" fill="#007cff"/>
          <path id="Path_590" data-name="Path 590" d="M376.269,381.8l-.579,4.63H222.5l.579-4.63Z" transform="translate(-222.5 -381.8)" fill="#fff" opacity="0.6"/>
        </g>
      </g>
      <path id="Path_591" data-name="Path 591" d="M168.371,383.649c0-5.981-4.63-10.8-10.8-11.769v-2.315a.911.911,0,0,0-.965-.965H135.765a.911.911,0,0,0-.965.965V398.5h22.959v-3.087A12.041,12.041,0,0,0,168.371,383.649Zm-10.8,8.1V375.739a8.088,8.088,0,0,1,0,16.014Z" transform="translate(-86.181 -311.877)" fill="#95b0ff" opacity="0.2"/>
      <g id="Group_522" data-name="Group 522" transform="translate(438.926 37.043)">
        <path id="Path_592" data-name="Path 592" d="M354.3,404.646h19.486L368,362.2H354.3Z" transform="translate(-321.115 -354.868)" fill="#1a2e35"/>
        <g id="Group_521" data-name="Group 521" transform="translate(4.823)">
          <path id="Path_593" data-name="Path 593" d="M339.6,408.177h36.658L383.2,358.4H346.546Z" transform="translate(-339.6 -358.4)" fill="#007cff"/>
          <path id="Path_594" data-name="Path 594" d="M339.6,408.177h36.658L383.2,358.4H346.546Z" transform="translate(-339.6 -358.4)" opacity="0.3"/>
        </g>
        <path id="Path_595" data-name="Path 595" d="M337.1,408.177h38.2l6.753-49.777h-38.2Z" transform="translate(-337.1 -358.4)" fill="#007cff"/>
        <path id="Path_596" data-name="Path 596" d="M369.691,402.174l5.788-41.674H345.188L339.4,402.174Z" transform="translate(-334.962 -356.448)" fill="#fff" opacity="0.4"/>
      </g>
    </g>
    <g id="Group_532" data-name="Group 532" transform="translate(292.141 347.126)">
      <g id="Group_526" data-name="Group 526">
        <path id="Path_597" data-name="Path 597" d="M226.768,353.635l-1.543,1.736-1.736,1.929c-1.158,1.351-2.315,2.7-3.28,4.052-2.122,2.7-4.245,5.6-6.174,8.489a106.594,106.594,0,0,0-9.647,17.75,55.918,55.918,0,0,0-2.7,9.261,16.544,16.544,0,0,0-.579,3.28,2.66,2.66,0,0,0,0,1.736c.193,1.158,1.543,2.894,3.859,4.437a38.859,38.859,0,0,0,4.052,2.122c.772.386,1.543.579,2.315.965.772.193,1.736.579,2.315.772v10.611a23.86,23.86,0,0,1-3.473.386,18.587,18.587,0,0,1-3.28,0,28.7,28.7,0,0,1-6.946-.965,32.065,32.065,0,0,1-7.332-2.894,22.629,22.629,0,0,1-6.753-6.174,20.191,20.191,0,0,1-3.473-9.068,9.393,9.393,0,0,1-.193-2.315V395.5l.193-1.736a90.16,90.16,0,0,1,2.7-12.927,93.4,93.4,0,0,1,11-22.959,95.546,95.546,0,0,1,7.332-10.033c1.351-1.543,2.7-3.28,4.052-4.823.772-.772,1.351-1.543,2.122-2.315s1.351-1.543,2.315-2.508Z" transform="translate(-182.2 -230.214)" fill="#ecb4bf"/>
        <path id="Path_598" data-name="Path 598" d="M196.4,378.36l9.068-6.56,5.209,18.522s-7.91,2.894-14.084-.965Z" transform="translate(-169.003 -198.988)" fill="#ecb4bf"/>
        <path id="Path_599" data-name="Path 599" d="M213.641,369.5l3.473,15.435-11,7.524L201.1,373.937Z" transform="translate(-164.635 -201.126)" fill="#ecb4bf"/>
        <path id="Path_600" data-name="Path 600" d="M237.093,310.192c-.386,1.158-.193,2.315.579,2.508a1.963,1.963,0,0,0,2.122-1.543c.386-1.158.193-2.315-.579-2.508C238.443,308.262,237.479,309.034,237.093,310.192Z" transform="translate(-131.365 -257.771)" fill="#1a2e35"/>
        <path id="Path_601" data-name="Path 601" d="M238.666,310.6s.386,7.524,2.122,11.769c-2.7,1.158-5.788-.965-5.788-.965Z" transform="translate(-133.131 -255.864)" fill="#ecb4bf"/>
        <path id="Path_602" data-name="Path 602" d="M236.322,306.172h.386a5.3,5.3,0,0,1,5.016.772.682.682,0,0,0,.965-.965,8.02,8.02,0,0,0-6.367-1.158.7.7,0,0,0-.386.965C235.936,305.979,236.129,305.979,236.322,306.172Z" transform="translate(-132.331 -261.468)" fill="#1a2e35"/>
        <path id="Path_603" data-name="Path 603" d="M216.773,311.6c2.122,11,4.245,31.062-3.473,38.394,0,0,3.087,11.19,23.345,11.19,22.38,0,10.8-11.19,10.8-11.19-12.155-2.894-11.962-11.962-9.84-20.451Z" transform="translate(-153.297 -254.935)" fill="#ecb4bf"/>
        <path id="Path_604" data-name="Path 604" d="M212.719,338.585c-1.543-3.473-3.473-7.524.193-8.875,4.052-1.351,26.046-2.894,33.764-.193a7.977,7.977,0,0,1,5.4,9.84Z" transform="translate(-155.611 -239.667)" fill="#1a2e35"/>
        <path id="Path_605" data-name="Path 605" d="M213.991,333.52c-14.084,3.28-30.291,41.674-30.291,41.674l28.168,19.293a263.186,263.186,0,0,0,18.715-31.641C239.072,345.1,228.461,330.24,213.991,333.52Z" transform="translate(-180.806 -234.988)" fill="#5e96fe"/>
        <path id="Path_606" data-name="Path 606" d="M260.908,343.2c4.63,8.489,9.84,17.171,14.856,25.66,5.209,8.489,10.418,16.785,16.206,24.5,1.351,1.929,2.894,3.666,4.437,5.6a29.663,29.663,0,0,0,2.315,2.508l1.158,1.351.193.386.193.193h0l.193.193a7.031,7.031,0,0,0,3.087,1.929,34.062,34.062,0,0,0,5.6,1.351c8.489,1.158,18.715.579,28.168-.386l2.894,10.226c-2.7,1.158-5.016,1.929-7.524,2.894s-5.209,1.543-7.717,2.315a76.606,76.606,0,0,1-16.785,2.315,41.4,41.4,0,0,1-9.454-.965,25.935,25.935,0,0,1-10.418-4.63l-1.351-1.158-.386-.193-.193-.193-.386-.386-1.543-1.543a40.915,40.915,0,0,1-2.894-2.894c-1.929-1.929-3.666-4.052-5.4-6.174a233.088,233.088,0,0,1-18.522-25.66q-4.341-6.656-8.1-13.312a155.481,155.481,0,0,1-7.524-13.7Z" transform="translate(-126.625 -225.567)" fill="#ecb4bf"/>
        <path id="Path_607" data-name="Path 607" d="M211.012,345.9,197.7,381.4l1.351.965s5.788-8.1,11.962-19.1Z" transform="translate(-167.795 -223.058)" opacity="0.2"/>
        <path id="Path_608" data-name="Path 608" d="M283.426,335.99s16.014,18.136.965,129.845H204.13c-.579-12.348,7.139-72.543-4.63-130.617a230.262,230.262,0,0,1,26.818-3.473c10.226-.579,25.081-.772,34.149,0A155.748,155.748,0,0,1,283.426,335.99Z" transform="translate(-166.122 -236.686)" fill="#5e96fe"/>
        <path id="Path_609" data-name="Path 609" d="M238.4,350.4a68.943,68.943,0,0,0,15.821,34.342c.386-7.139.386-13.7.386-19.486Z" transform="translate(-129.971 -218.876)" opacity="0.2"/>
        <path id="Path_610" data-name="Path 610" d="M234.846,345.989c-1.929,14.277,26.046,50.549,26.046,50.549l28.168-19.293s-7.717-20.065-21.03-33.185C252.982,329.011,236.968,330.554,234.846,345.989Z" transform="translate(-133.362 -234.53)" fill="#5e96fe"/>
        <path id="Path_611" data-name="Path 611" d="M289.7,378.23l11.383-4.63,11.769,8.875s-11.19,10.033-21.416,6.174Z" transform="translate(-82.295 -197.315)" fill="#ecb4bf"/>
        <path id="Path_612" data-name="Path 612" d="M303.224,373.4l8.682,6.174-4.437,3.087L295.7,373.786Z" transform="translate(-76.719 -197.501)" fill="#ecb4bf"/>
        <path id="Path_613" data-name="Path 613" d="M220.024,308.6c-4.052,14.277-7.139,22.573-2.508,32.22,6.946,14.47,26.432,14.084,34.728,1.351,7.332-11.576,12.734-33.185.965-43.41C241.439,288.337,224.075,294.125,220.024,308.6Z" transform="translate(-151.532 -271.803)" fill="#ecb4bf"/>
        <path id="Path_614" data-name="Path 614" d="M256.027,319.023c-5.788,16.4-12.541,34.535-29.133,31.063-10.8-2.122-11.576-19.486-15.435-27.4-3.473-6.946-3.28-20.837,3.859-20.837-3.087-4.63,12.927-21.416,23.731-12.541,2.7-3.859,22.959-15.242,37.815,2.894C290.948,309.376,284,323.653,256.027,319.023Z" transform="translate(-157.051 -282.23)" fill="#1a2e35"/>
        <path id="Path_615" data-name="Path 615" d="M226.841,309.382a17.661,17.661,0,0,0,2.315,10.611c2.508,4.052,6.367,2.508,7.717-1.736,1.158-3.859,1.351-10.611-2.122-13.12C231.085,302.436,227.419,304.945,226.841,309.382Z" transform="translate(-140.792 -261.978)" fill="#ecb4bf"/>
        <g id="Group_524" data-name="Group 524" transform="translate(182.441 393.336)">
          <path id="Path_616" data-name="Path 616" d="M293.023,506.232c1.929,0,3.859-.193,4.438-1.158a1.44,1.44,0,0,0,0-1.543,1.3,1.3,0,0,0-1.158-.772c-2.508-.772-7.717,2.315-7.91,2.508-.193,0-.193.193-.193.386s.193.193.193.386C289.358,506.039,291.094,506.232,293.023,506.232Zm2.315-2.894h.772c.386,0,.579.193.772.579s.193.579,0,.772c-.772.965-4.437.965-7.331.579C290.9,504.689,293.6,503.338,295.339,503.338Z" transform="translate(-266.13 -470.732)" fill="#007cff"/>
          <path id="Path_617" data-name="Path 617" d="M288.486,507.553h0c1.929-.772,5.6-4.052,5.209-5.788,0-.386-.386-.965-1.351-.965a3.26,3.26,0,0,0-1.929.579c-1.929,1.543-2.315,5.6-2.315,5.788s0,.193.193.386Zm3.666-5.981h.193a.836.836,0,0,1,.772.386c.193.965-2.315,3.666-4.052,4.63.193-1.158.772-3.666,1.929-4.63A1.417,1.417,0,0,1,292.152,501.572Z" transform="translate(-266.223 -472.439)" fill="#007cff"/>
          <path id="Path_618" data-name="Path 618" d="M279.3,520.828h14.856l3.473-34.728H282.58Z" transform="translate(-274.401 -486.1)" fill="#ecb4bf"/>
          <path id="Path_619" data-name="Path 619" d="M297.48,503.2h-16.4a1.451,1.451,0,0,0-1.351.965l-2.894,13.313a2.2,2.2,0,0,0,2.122,2.7c5.981-.193,14.47-.386,21.8-.386,8.682,0,16.206.386,26.432.386,6.174,0,7.91-6.174,5.209-6.753-11.769-2.508-21.416-2.894-31.448-9.068A6.773,6.773,0,0,0,297.48,503.2Z" transform="translate(-276.761 -470.208)" fill="#1a2e35"/>
          <path id="Path_620" data-name="Path 620" d="M296.885,486.1l-1.736,17.943H280.1l1.736-17.943Z" transform="translate(-273.658 -486.1)" opacity="0.2"/>
        </g>
        <path id="Path_621" data-name="Path 621" d="M261.545,506.21c1.543,0,3.087-.193,3.666-.965a1.8,1.8,0,0,0,0-1.736,1.3,1.3,0,0,0-1.158-.772c-2.122-.579-6.367,2.315-6.56,2.508-.193,0-.193.193-.193.386a.189.189,0,0,0,.193.193A20.478,20.478,0,0,0,261.545,506.21Zm1.736-2.894h.386c.386,0,.579.193.579.386.386.579.193.772,0,.965-.579.772-3.666.772-5.981.386C259.808,504.473,261.93,503.316,263.281,503.316Z" transform="translate(-112.406 -77.374)" fill="#007cff"/>
        <path id="Path_622" data-name="Path 622" d="M257.686,507.553h0c1.736-.965,4.823-4.245,4.438-5.788,0-.386-.193-.772-1.158-.965a2.32,2.32,0,0,0-1.543.386c-1.736,1.351-2.122,5.788-2.122,5.981s0,.193.193.386Zm3.087-5.981h0c.579,0,.579.193.772.386.193.965-1.736,3.473-3.28,4.63.193-1.351.579-3.859,1.736-4.63C260.194,501.572,260.387,501.572,260.773,501.572Z" transform="translate(-112.406 -79.103)" fill="#007cff"/>
        <path id="Path_623" data-name="Path 623" d="M248.6,520.828h14.856l7.717-34.728H256.124Z" transform="translate(-120.492 -92.764)" fill="#ecb4bf"/>
        <path id="Path_624" data-name="Path 624" d="M267.066,503.2H250.281a1.451,1.451,0,0,0-1.351.965l-2.894,13.313a2.2,2.2,0,0,0,2.122,2.7c5.981-.193,8.682-.386,16.206-.386,4.63,0,10.418.386,16.785.386,6.174,0,7.139-6.174,4.63-6.753-11.576-2.508-12.348-5.981-16.014-9.261A5.121,5.121,0,0,0,267.066,503.2Z" transform="translate(-122.944 -76.872)" fill="#1a2e35"/>
        <g id="Group_525" data-name="Group 525" transform="translate(131.774 393.336)" opacity="0.2">
          <path id="Path_625" data-name="Path 625" d="M254.359,486.1h15.049l-4.052,17.943H250.5Z" transform="translate(-250.5 -486.1)"/>
        </g>
        <path id="Path_626" data-name="Path 626" d="M278.165,400.9s112.481,11.962,111.323,69.263c-1.351,59.617-20.451,105.342-20.451,105.342h-22.38s1.158-36.465.386-95.117c-.193-17.557-35.886-23.345-70.614-25.467A78.555,78.555,0,0,1,208.515,406.5l-2.315-5.6Z" transform="translate(-159.896 -171.944)" fill="#363656"/>
        <path id="Path_627" data-name="Path 627" d="M309.192,488.4c.193,0-1.351,10.611-1.351,10.611h-30.87l-.772-9.454Z" transform="translate(-94.842 -90.627)" fill="#363656"/>
        <path id="Path_628" data-name="Path 628" d="M259.611,400.9s81.611,27.011,83.541,60.581C347.01,523.027,316.719,575.7,316.719,575.7H294.146s8.489-26.046,11.576-81.8c3.859-70.228-126.951-.193-102.448-92.8h56.337Z" transform="translate(-165.459 -171.944)" fill="#363656"/>
        <path id="Path_629" data-name="Path 629" d="M280.364,488.4c.193,0-2.894,10.611-2.894,10.611H246.6l.579-9.454Z" transform="translate(-122.35 -90.627)" fill="#363656"/>
      </g>
      <g id="Group_531" data-name="Group 531" transform="translate(14.47 273.716)">
        <path id="Path_630" data-name="Path 630" d="M321.907,438.377H196.5A14.245,14.245,0,0,1,210.777,424.1H307.63a14.245,14.245,0,0,1,14.277,14.277Z" transform="translate(-183.38 -424.1)" fill="#007cff"/>
        <g id="Group_527" data-name="Group 527" transform="translate(0 14.277)">
          <path id="Path_631" data-name="Path 631" d="M208.608,431.5,189.7,590.092h4.052L217.675,431.5Z" transform="translate(-189.7 -431.5)" fill="#007cff"/>
          <path id="Path_632" data-name="Path 632" d="M208.608,431.5,189.7,590.092h4.052L217.675,431.5Z" transform="translate(-189.7 -431.5)" opacity="0.4"/>
        </g>
        <g id="Group_528" data-name="Group 528" transform="translate(43.796 14.277)">
          <path id="Path_633" data-name="Path 633" d="M212.786,431.5,212.4,590.092h4.052l5.4-158.592Z" transform="translate(-212.4 -431.5)" fill="#007cff"/>
          <path id="Path_634" data-name="Path 634" d="M212.786,431.5,212.4,590.092h4.052l5.4-158.592Z" transform="translate(-212.4 -431.5)" opacity="0.4"/>
        </g>
        <g id="Group_529" data-name="Group 529" transform="translate(123.478 14.277)">
          <path id="Path_635" data-name="Path 635" d="M262.961,431.5l18.908,158.592h-4.052L253.7,431.5Z" transform="translate(-253.7 -431.5)" fill="#007cff"/>
          <path id="Path_636" data-name="Path 636" d="M262.961,431.5l18.908,158.592h-4.052L253.7,431.5Z" transform="translate(-253.7 -431.5)" opacity="0.4"/>
        </g>
        <g id="Group_530" data-name="Group 530" transform="translate(98.204 14.277)">
          <path id="Path_637" data-name="Path 637" d="M249.861,431.5l.193,158.592H246.2L240.6,431.5Z" transform="translate(-240.6 -431.5)" fill="#007cff"/>
          <path id="Path_638" data-name="Path 638" d="M249.861,431.5l.193,158.592H246.2L240.6,431.5Z" transform="translate(-240.6 -431.5)" opacity="0.4"/>
        </g>
      </g>
    </g>
    <line id="Line_9" data-name="Line 9" x2="38.587" transform="translate(447.84 476.334)" fill="none" stroke="#007cff" stroke-linecap="round" stroke-miterlimit="10" stroke-width="1"/>
    <line id="Line_10" data-name="Line 10" x2="109.394" transform="translate(447.84 483.666)" fill="none" stroke="#007cff" stroke-linecap="round" stroke-miterlimit="10" stroke-width="1"/>
    <line id="Line_11" data-name="Line 11" x2="109.394" transform="translate(447.84 490.419)" fill="none" stroke="#007cff" stroke-linecap="round" stroke-miterlimit="10" stroke-width="1"/>
    <line id="Line_12" data-name="Line 12" x2="109.394" transform="translate(447.84 496.978)" fill="none" stroke="#007cff" stroke-linecap="round" stroke-miterlimit="10" stroke-width="1"/>
    <g id="Group_535" data-name="Group 535" transform="translate(519.225 400.704)">
      <g id="Group_534" data-name="Group 534">
        <g id="Group_533" data-name="Group 533">
          <path id="Path_639" data-name="Path 639" d="M318.808,364.793H438.427c10.418,0,18.908-7.139,18.908-16.014V326.014c0-8.875-8.489-16.014-18.908-16.014H318.808c-10.418,0-18.908,7.139-18.908,16.014V348.78C299.9,357.655,308.389,364.793,318.808,364.793Z" transform="translate(-299.9 -310)" fill="#f0f3ff"/>
          <path id="Path_640" data-name="Path 640" d="M331.873,337.9,309.3,350.441l1.929-12.541Z" transform="translate(-291.164 -284.071)" fill="#f0f3ff"/>
        </g>
      </g>
    </g>
    <g id="Group_569" data-name="Group 569" transform="translate(531.959 418.84)">
      <g id="Group_568" data-name="Group 568">
        <g id="Group_536" data-name="Group 536" transform="translate(128.494 7.331)">
          <path id="Path_641" data-name="Path 641" d="M373.486,328.216a.415.415,0,0,0,.386-.386v-4.245a.386.386,0,0,0-.772,0v4.245C373.1,328.216,373.293,328.216,373.486,328.216Z" transform="translate(-373.1 -323.2)" fill="#5e96fe"/>
        </g>
        <g id="Group_537" data-name="Group 537" transform="translate(124.443 5.788)">
          <path id="Path_642" data-name="Path 642" d="M371.386,330.7a.415.415,0,0,0,.386-.386v-7.524a.386.386,0,0,0-.772,0v7.524A.415.415,0,0,0,371.386,330.7Z" transform="translate(-371 -322.4)" fill="#5e96fe"/>
        </g>
        <g id="Group_538" data-name="Group 538" transform="translate(120.198 1.543)">
          <path id="Path_643" data-name="Path 643" d="M369.186,336.985a.415.415,0,0,0,.386-.386V320.586a.386.386,0,1,0-.772,0V336.6A.415.415,0,0,0,369.186,336.985Z" transform="translate(-368.8 -320.2)" fill="#5e96fe"/>
        </g>
        <g id="Group_539" data-name="Group 539" transform="translate(116.147 4.63)">
          <path id="Path_644" data-name="Path 644" d="M367.086,332.411a.415.415,0,0,0,.386-.386v-9.84a.386.386,0,1,0-.772,0v10.033A.674.674,0,0,0,367.086,332.411Z" transform="translate(-366.7 -321.8)" fill="#5e96fe"/>
        </g>
        <g id="Group_540" data-name="Group 540" transform="translate(111.902 5.788)">
          <path id="Path_645" data-name="Path 645" d="M364.886,330.7a.415.415,0,0,0,.386-.386v-7.524a.386.386,0,0,0-.772,0v7.524A.415.415,0,0,0,364.886,330.7Z" transform="translate(-364.5 -322.4)" fill="#5e96fe"/>
        </g>
        <g id="Group_541" data-name="Group 541" transform="translate(107.85 0.193)">
          <path id="Path_646" data-name="Path 646" d="M362.786,338.793a.415.415,0,0,0,.386-.386V319.886a.386.386,0,0,0-.772,0v18.522C362.4,338.793,362.593,338.793,362.786,338.793Z" transform="translate(-362.4 -319.5)" fill="#5e96fe"/>
        </g>
        <g id="Group_542" data-name="Group 542" transform="translate(103.606 5.209)">
          <path id="Path_647" data-name="Path 647" d="M360.586,331.361a.415.415,0,0,0,.386-.386v-8.489a.386.386,0,0,0-.772,0v8.489C360.2,331.361,360.393,331.361,360.586,331.361Z" transform="translate(-360.2 -322.1)" fill="#5e96fe"/>
        </g>
        <g id="Group_543" data-name="Group 543" transform="translate(99.554 2.315)">
          <path id="Path_648" data-name="Path 648" d="M358.486,335.649a.415.415,0,0,0,.386-.386V320.986a.386.386,0,1,0-.772,0v14.277C358.1,335.649,358.293,335.649,358.486,335.649Z" transform="translate(-358.1 -320.6)" fill="#5e96fe"/>
        </g>
        <g id="Group_544" data-name="Group 544" transform="translate(95.31 5.788)">
          <path id="Path_649" data-name="Path 649" d="M356.286,330.7a.415.415,0,0,0,.386-.386v-7.524a.386.386,0,0,0-.772,0v7.524A.415.415,0,0,0,356.286,330.7Z" transform="translate(-355.9 -322.4)" fill="#5e96fe"/>
        </g>
        <g id="Group_545" data-name="Group 545" transform="translate(91.258 7.331)">
          <path id="Path_650" data-name="Path 650" d="M354.186,328.216a.415.415,0,0,0,.386-.386v-4.245a.386.386,0,0,0-.772,0v4.245C353.8,328.216,353.993,328.216,354.186,328.216Z" transform="translate(-353.8 -323.2)" fill="#5e96fe"/>
        </g>
        <g id="Group_546" data-name="Group 546" transform="translate(87.013 3.087)">
          <path id="Path_651" data-name="Path 651" d="M351.986,334.7a.415.415,0,0,0,.386-.386V321.386a.386.386,0,1,0-.772,0v12.927A.415.415,0,0,0,351.986,334.7Z" transform="translate(-351.6 -321)" fill="#5e96fe"/>
        </g>
        <g id="Group_547" data-name="Group 547" transform="translate(82.962 0.579)">
          <path id="Path_652" data-name="Path 652" d="M349.886,338.415a.415.415,0,0,0,.386-.386V320.086a.386.386,0,1,0-.772,0v17.943A.415.415,0,0,0,349.886,338.415Z" transform="translate(-349.5 -319.7)" fill="#5e96fe"/>
        </g>
        <g id="Group_548" data-name="Group 548" transform="translate(78.717 5.788)">
          <path id="Path_653" data-name="Path 653" d="M347.686,330.7a.415.415,0,0,0,.386-.386v-7.524a.386.386,0,0,0-.772,0v7.524A.415.415,0,0,0,347.686,330.7Z" transform="translate(-347.3 -322.4)" fill="#5e96fe"/>
        </g>
        <g id="Group_549" data-name="Group 549" transform="translate(74.666 3.087)">
          <path id="Path_654" data-name="Path 654" d="M345.586,334.7a.415.415,0,0,0,.386-.386V321.386a.386.386,0,1,0-.772,0v12.927A.415.415,0,0,0,345.586,334.7Z" transform="translate(-345.2 -321)" fill="#5e96fe"/>
        </g>
        <g id="Group_550" data-name="Group 550" transform="translate(70.421 5.788)">
          <path id="Path_655" data-name="Path 655" d="M343.386,330.7a.415.415,0,0,0,.386-.386v-7.524a.386.386,0,0,0-.772,0v7.524A.415.415,0,0,0,343.386,330.7Z" transform="translate(-343 -322.4)" fill="#5e96fe"/>
        </g>
        <g id="Group_551" data-name="Group 551" transform="translate(66.369 1.351)">
          <path id="Path_656" data-name="Path 656" d="M341.286,337.271a.415.415,0,0,0,.386-.386v-16.4a.386.386,0,1,0-.772,0v16.4A.415.415,0,0,0,341.286,337.271Z" transform="translate(-340.9 -320.1)" fill="#5e96fe"/>
        </g>
        <g id="Group_552" data-name="Group 552" transform="translate(62.125 4.052)">
          <path id="Path_657" data-name="Path 657" d="M339.086,333.076a.415.415,0,0,0,.386-.386v-10.8a.386.386,0,1,0-.772,0v10.8A.415.415,0,0,0,339.086,333.076Z" transform="translate(-338.7 -321.5)" fill="#5e96fe"/>
        </g>
        <g id="Group_553" data-name="Group 553" transform="translate(58.073 1.736)">
          <path id="Path_658" data-name="Path 658" d="M336.986,336.7a.415.415,0,0,0,.386-.386V320.686a.386.386,0,0,0-.772,0v15.628A.415.415,0,0,0,336.986,336.7Z" transform="translate(-336.6 -320.3)" fill="#5e96fe"/>
        </g>
        <g id="Group_554" data-name="Group 554" transform="translate(53.829 4.052)">
          <path id="Path_659" data-name="Path 659" d="M334.786,333.076a.415.415,0,0,0,.386-.386v-10.8a.386.386,0,1,0-.772,0v10.8A.415.415,0,0,0,334.786,333.076Z" transform="translate(-334.4 -321.5)" fill="#5e96fe"/>
        </g>
        <g id="Group_555" data-name="Group 555" transform="translate(49.777 6.174)">
          <path id="Path_660" data-name="Path 660" d="M332.686,330.124a.415.415,0,0,0,.386-.386v-6.753a.386.386,0,1,0-.772,0v6.753A.415.415,0,0,0,332.686,330.124Z" transform="translate(-332.3 -322.6)" fill="#5e96fe"/>
        </g>
        <g id="Group_556" data-name="Group 556" transform="translate(45.532 1.351)">
          <path id="Path_661" data-name="Path 661" d="M330.486,337.271a.415.415,0,0,0,.386-.386v-16.4a.386.386,0,1,0-.772,0v16.4A.415.415,0,0,0,330.486,337.271Z" transform="translate(-330.1 -320.1)" fill="#5e96fe"/>
        </g>
        <g id="Group_557" data-name="Group 557" transform="translate(41.481 6.174)">
          <path id="Path_662" data-name="Path 662" d="M328.386,330.124a.415.415,0,0,0,.386-.386v-6.753a.386.386,0,1,0-.772,0v6.753A.415.415,0,0,0,328.386,330.124Z" transform="translate(-328 -322.6)" fill="#5e96fe"/>
        </g>
        <g id="Group_558" data-name="Group 558" transform="translate(37.236 1.351)">
          <path id="Path_663" data-name="Path 663" d="M326.186,337.271a.415.415,0,0,0,.386-.386v-16.4a.386.386,0,1,0-.772,0v16.4A.415.415,0,0,0,326.186,337.271Z" transform="translate(-325.8 -320.1)" fill="#5e96fe"/>
        </g>
        <g id="Group_559" data-name="Group 559" transform="translate(33.185 4.052)">
          <path id="Path_664" data-name="Path 664" d="M324.086,333.269a.415.415,0,0,0,.386-.386v-11a.386.386,0,1,0-.772,0v11A.415.415,0,0,0,324.086,333.269Z" transform="translate(-323.7 -321.5)" fill="#5e96fe"/>
        </g>
        <g id="Group_560" data-name="Group 560" transform="translate(28.94 3.087)">
          <path id="Path_665" data-name="Path 665" d="M321.886,334.7a.415.415,0,0,0,.386-.386V321.386a.386.386,0,1,0-.772,0v12.927A.415.415,0,0,0,321.886,334.7Z" transform="translate(-321.5 -321)" fill="#5e96fe"/>
        </g>
        <g id="Group_561" data-name="Group 561" transform="translate(24.889 5.016)">
          <path id="Path_666" data-name="Path 666" d="M319.786,331.84a.415.415,0,0,0,.386-.386v-9.068a.386.386,0,0,0-.772,0v9.068A.415.415,0,0,0,319.786,331.84Z" transform="translate(-319.4 -322)" fill="#5e96fe"/>
        </g>
        <g id="Group_562" data-name="Group 562" transform="translate(20.644)">
          <path id="Path_667" data-name="Path 667" d="M317.586,339.272a.415.415,0,0,0,.386-.386v-19.1a.386.386,0,1,0-.772,0v19.1A.415.415,0,0,0,317.586,339.272Z" transform="translate(-317.2 -319.4)" fill="#5e96fe"/>
        </g>
        <g id="Group_563" data-name="Group 563" transform="translate(16.592 3.087)">
          <path id="Path_668" data-name="Path 668" d="M315.486,334.7a.415.415,0,0,0,.386-.386V321.386a.386.386,0,1,0-.772,0v12.927A.415.415,0,0,0,315.486,334.7Z" transform="translate(-315.1 -321)" fill="#5e96fe"/>
        </g>
        <g id="Group_564" data-name="Group 564" transform="translate(12.348 5.016)">
          <path id="Path_669" data-name="Path 669" d="M313.286,331.84a.415.415,0,0,0,.386-.386v-9.068a.386.386,0,0,0-.772,0v9.068A.415.415,0,0,0,313.286,331.84Z" transform="translate(-312.9 -322)" fill="#5e96fe"/>
        </g>
        <g id="Group_565" data-name="Group 565" transform="translate(8.296 0.772)">
          <path id="Path_670" data-name="Path 670" d="M311.186,338.129a.415.415,0,0,0,.386-.386V320.186a.386.386,0,1,0-.772,0v17.557A.415.415,0,0,0,311.186,338.129Z" transform="translate(-310.8 -319.8)" fill="#5e96fe"/>
        </g>
        <g id="Group_566" data-name="Group 566" transform="translate(4.052 4.052)">
          <path id="Path_671" data-name="Path 671" d="M308.986,333.076a.415.415,0,0,0,.386-.386v-10.8a.386.386,0,1,0-.772,0v10.8A.415.415,0,0,0,308.986,333.076Z" transform="translate(-308.6 -321.5)" fill="#5e96fe"/>
        </g>
        <g id="Group_567" data-name="Group 567" transform="translate(0 7.331)">
          <path id="Path_672" data-name="Path 672" d="M306.886,328.409a.415.415,0,0,0,.386-.386v-4.437a.386.386,0,0,0-.772,0v4.437A.415.415,0,0,0,306.886,328.409Z" transform="translate(-306.5 -323.2)" fill="#5e96fe"/>
        </g>
      </g>
    </g>
    <g id="Group_573" data-name="Group 573" transform="translate(440.122 320.25)" opacity="0.2">
      <g id="Group_570" data-name="Group 570" transform="translate(0 24.503)">
        <path id="Path_673" data-name="Path 673" d="M258.9,297.592l.579,5.788,2.315-.193a13.3,13.3,0,0,0,2.894,5.4l-1.543,1.736,4.63,3.666,1.543-1.736a15.387,15.387,0,0,0,5.981,1.736l.193,2.315,5.788-.579-.193-2.315a13.3,13.3,0,0,0,5.4-2.894l1.736,1.543,3.666-4.63-1.736-1.543a15.388,15.388,0,0,0,1.736-5.981l2.315-.193-.579-5.788-2.315.193a13.3,13.3,0,0,0-2.894-5.4l1.543-1.736-4.63-3.666-1.543,1.736a15.388,15.388,0,0,0-5.981-1.736L277.615,281l-5.788.579.193,2.315a13.3,13.3,0,0,0-5.4,2.894l-1.736-1.543-3.666,4.63,1.736,1.543a15.387,15.387,0,0,0-1.736,5.981Zm16.592-8.875a9.993,9.993,0,1,1-8.875,11A9.992,9.992,0,0,1,275.492,288.717Z" transform="translate(-258.9 -281)" fill="#95b0ff"/>
        <path id="Path_674" data-name="Path 674" d="M269.408,293.53a2.484,2.484,0,0,0,2.122-2.508,2.323,2.323,0,0,0-4.63.386A2.139,2.139,0,0,0,269.408,293.53Z" transform="translate(-251.465 -273.658)" fill="#95b0ff"/>
      </g>
      <g id="Group_571" data-name="Group 571" transform="translate(37.622 44.568)">
        <path id="Path_675" data-name="Path 675" d="M278.4,301.24l.386,3.473,1.351-.193a10.725,10.725,0,0,0,1.736,3.28l-.772,1.158,2.7,2.122.772-1.158a7.863,7.863,0,0,0,3.473.965l.193,1.351,3.473-.386-.193-1.351a10.725,10.725,0,0,0,3.28-1.736l1.158.772,2.122-2.7-1.158-.772a7.863,7.863,0,0,0,.965-3.473l1.351-.193-.386-3.473-1.351.193a10.725,10.725,0,0,0-1.736-3.28l.772-1.158-2.7-2.122-.772,1.158a7.862,7.862,0,0,0-3.473-.965L289.4,291.4l-3.473.386.193,1.351a10.725,10.725,0,0,0-3.28,1.736l-1.158-.772-2.122,2.7,1.158.772a7.862,7.862,0,0,0-.965,3.473Zm10.033-5.209a5.817,5.817,0,1,1-5.209,6.367A5.811,5.811,0,0,1,288.433,296.03Z" transform="translate(-278.4 -291.4)" fill="#95b0ff"/>
        <path id="Path_676" data-name="Path 676" d="M284.661,298.819a1.364,1.364,0,1,0-1.543-1.158C283.311,298.433,284.083,299.012,284.661,298.819Z" transform="translate(-274.05 -287.05)" fill="#95b0ff"/>
      </g>
      <g id="Group_572" data-name="Group 572" transform="translate(29.326)">
        <path id="Path_677" data-name="Path 677" d="M274.1,284.507l.579,5.6,2.315-.193a14.676,14.676,0,0,0,2.894,5.4l-1.351,1.736,4.438,3.666,1.351-1.736a14.474,14.474,0,0,0,5.788,1.736l.193,2.315,5.6-.579-.193-2.315a14.677,14.677,0,0,0,5.4-2.894l1.736,1.351,3.666-4.437-1.736-1.351a14.474,14.474,0,0,0,1.736-5.788l2.315-.193-.579-5.6-2.315.193a14.677,14.677,0,0,0-2.894-5.4l1.351-1.736-4.437-3.666-1.351,1.736a14.474,14.474,0,0,0-5.788-1.736l-.193-2.315-5.6.579.193,2.315a14.676,14.676,0,0,0-5.4,2.894l-1.736-1.351-3.666,4.438,1.736,1.351a14.474,14.474,0,0,0-1.736,5.788Zm16.206-8.682a9.695,9.695,0,1,1-8.682,10.611A9.844,9.844,0,0,1,290.307,275.824Z" transform="translate(-274.1 -268.3)" fill="#95b0ff"/>
        <path id="Path_678" data-name="Path 678" d="M284.32,280.549a2.238,2.238,0,1,0-2.508-1.929A2.323,2.323,0,0,0,284.32,280.549Z" transform="translate(-266.956 -261.063)" fill="#95b0ff"/>
      </g>
    </g>
    <g id="Group_595" data-name="Group 595" transform="translate(160.753 212.4)" opacity="0.78">
      <path id="Path_679" data-name="Path 679" d="M196.873,237.936a1.736,1.736,0,1,1-1.736-1.736A2.036,2.036,0,0,1,196.873,237.936Z" transform="translate(-40.403 -190.282)" fill="#95b0ff"/>
      <path id="Path_680" data-name="Path 680" d="M368.7,357.6a2.7,2.7,0,1,1-2.7-2.7A2.759,2.759,0,0,1,368.7,357.6Z" transform="translate(117.493 -79.968)" fill="#95b0ff"/>
      <path id="Path_681" data-name="Path 681" d="M117.573,259.036a1.736,1.736,0,1,1-1.736-1.736A1.729,1.729,0,0,1,117.573,259.036Z" transform="translate(-114.1 -170.672)" fill="#95b0ff"/>
      <path id="Path_682" data-name="Path 682" d="M277.173,239.736A1.736,1.736,0,1,1,275.436,238,1.729,1.729,0,0,1,277.173,239.736Z" transform="translate(34.223 -188.609)" fill="#95b0ff"/>
      <g id="Group_576" data-name="Group 576" transform="translate(81.418 139.492)">
        <g id="Group_574" data-name="Group 574" transform="translate(2.315)">
          <path id="Path_683" data-name="Path 683" d="M158.079,290.488a.616.616,0,0,1-.579-.579v-4.63a.579.579,0,0,1,1.158,0v4.63C158.851,290.1,158.465,290.488,158.079,290.488Z" transform="translate(-157.5 -284.7)" fill="#95b0ff"/>
        </g>
        <g id="Group_575" data-name="Group 575" transform="translate(0 2.315)">
          <path id="Path_684" data-name="Path 684" d="M161.509,287.058h-4.63a.579.579,0,1,1,0-1.158h4.63a.616.616,0,0,1,.579.579C162.281,286.672,161.9,287.058,161.509,287.058Z" transform="translate(-156.3 -285.9)" fill="#95b0ff"/>
        </g>
      </g>
      <g id="Group_579" data-name="Group 579" transform="translate(518.222 43.024)">
        <g id="Group_577" data-name="Group 577" transform="translate(2.508)">
          <path id="Path_685" data-name="Path 685" d="M384.579,240.488a.616.616,0,0,1-.579-.579v-4.63a.579.579,0,0,1,1.158,0v4.63A.512.512,0,0,1,384.579,240.488Z" transform="translate(-384 -234.7)" fill="#95b0ff"/>
        </g>
        <g id="Group_578" data-name="Group 578" transform="translate(0 2.315)">
          <path id="Path_686" data-name="Path 686" d="M388.1,237.058h-4.823a.579.579,0,0,1,0-1.158h4.63a.616.616,0,0,1,.579.579C388.681,236.672,388.488,237.058,388.1,237.058Z" transform="translate(-382.7 -235.9)" fill="#95b0ff"/>
        </g>
      </g>
      <g id="Group_582" data-name="Group 582" transform="translate(444.328 17.557)">
        <g id="Group_580" data-name="Group 580" transform="translate(2.315)">
          <path id="Path_687" data-name="Path 687" d="M346.179,227.288a.616.616,0,0,1-.579-.579v-4.63a.579.579,0,1,1,1.158,0v4.63C346.951,226.9,346.565,227.288,346.179,227.288Z" transform="translate(-345.6 -221.5)" fill="#95b0ff"/>
        </g>
        <g id="Group_581" data-name="Group 581" transform="translate(0 2.122)">
          <path id="Path_688" data-name="Path 688" d="M349.609,223.758h-4.63a.579.579,0,0,1,0-1.158h4.63a.616.616,0,0,1,.579.579C350.381,223.565,350,223.758,349.609,223.758Z" transform="translate(-344.4 -222.6)" fill="#95b0ff"/>
        </g>
      </g>
      <g id="Group_585" data-name="Group 585" transform="translate(555.265 168.046)">
        <g id="Group_583" data-name="Group 583" transform="translate(2.315)">
          <path id="Path_689" data-name="Path 689" d="M403.679,305.288a.616.616,0,0,1-.579-.579v-4.63a.579.579,0,1,1,1.158,0v4.63A.616.616,0,0,1,403.679,305.288Z" transform="translate(-403.1 -299.5)" fill="#95b0ff"/>
        </g>
        <g id="Group_584" data-name="Group 584" transform="translate(0 2.122)">
          <path id="Path_690" data-name="Path 690" d="M407.109,301.758h-4.63a.579.579,0,1,1,0-1.158h4.63a.616.616,0,0,1,.579.579A.512.512,0,0,1,407.109,301.758Z" transform="translate(-401.9 -300.6)" fill="#95b0ff"/>
        </g>
      </g>
      <g id="Group_588" data-name="Group 588" transform="translate(328.182)">
        <g id="Group_586" data-name="Group 586" transform="translate(2.315)">
          <path id="Path_691" data-name="Path 691" d="M285.979,218.188a.616.616,0,0,1-.579-.579v-4.63a.579.579,0,1,1,1.158,0v4.63C286.751,218,286.365,218.188,285.979,218.188Z" transform="translate(-285.4 -212.4)" fill="#95b0ff"/>
        </g>
        <g id="Group_587" data-name="Group 587" transform="translate(0 2.315)">
          <path id="Path_692" data-name="Path 692" d="M289.409,214.758h-4.63a.579.579,0,0,1,0-1.158h4.63a.616.616,0,0,1,.579.579C290.181,214.565,289.8,214.758,289.409,214.758Z" transform="translate(-284.2 -213.6)" fill="#95b0ff"/>
        </g>
      </g>
      <path id="Path_693" data-name="Path 693" d="M341.673,316.336a1.736,1.736,0,1,1-1.736-1.736A1.729,1.729,0,0,1,341.673,316.336Z" transform="translate(94.166 -117.421)" fill="#95b0ff"/>
      <g id="Group_591" data-name="Group 591" transform="translate(486.388 127.144)">
        <g id="Group_589" data-name="Group 589" transform="translate(2.122)">
          <path id="Path_694" data-name="Path 694" d="M367.879,284.088a.616.616,0,0,1-.579-.579v-4.63a.579.579,0,0,1,1.158,0v4.63C368.65,283.7,368.265,284.088,367.879,284.088Z" transform="translate(-367.3 -278.3)" fill="#95b0ff"/>
        </g>
        <g id="Group_590" data-name="Group 590" transform="translate(0 2.315)">
          <path id="Path_695" data-name="Path 695" d="M371.409,280.658h-4.63a.579.579,0,1,1,0-1.158h4.63a.616.616,0,0,1,.579.579A.87.87,0,0,1,371.409,280.658Z" transform="translate(-366.2 -279.5)" fill="#95b0ff"/>
        </g>
      </g>
      <g id="Group_594" data-name="Group 594" transform="translate(56.53 224.19)">
        <g id="Group_592" data-name="Group 592" transform="translate(2.315)">
          <path id="Path_696" data-name="Path 696" d="M145.179,334.388a.616.616,0,0,1-.579-.579v-4.63a.579.579,0,1,1,1.158,0v4.63C145.951,334,145.565,334.388,145.179,334.388Z" transform="translate(-144.6 -328.6)" fill="#95b0ff"/>
        </g>
        <g id="Group_593" data-name="Group 593" transform="translate(0 2.315)">
          <path id="Path_697" data-name="Path 697" d="M148.609,330.958h-4.63a.579.579,0,1,1,0-1.158h4.63a.616.616,0,0,1,.579.579C149.381,330.572,149,330.958,148.609,330.958Z" transform="translate(-143.4 -329.8)" fill="#95b0ff"/>
        </g>
      </g>
    </g>
  </g>
</svg>
