<svg xmlns="http://www.w3.org/2000/svg" width="598.865" height="477.43" viewBox="0 0 598.865 477.43">
  <g id="Dotvector_Neural_translator" data-name="Dotvector_Neural translator" transform="translate(-26.596 -190.799)">
    <g id="Group_19" data-name="Group 19" transform="translate(206.905 190.799)">
      <g id="Group_8" data-name="Group 8">
        <path id="Path_38" data-name="Path 38" d="M374.625,213.046V586.428a20.572,20.572,0,0,1-20.546,20.546H185.761a18.656,18.656,0,0,1-8.824-2.634,23.591,23.591,0,0,1-3.688-2.634,20.512,20.512,0,0,1-6.849-15.278V213.046A20.572,20.572,0,0,1,186.946,192.5h167A20.6,20.6,0,0,1,374.625,213.046Z" transform="translate(-162.581 -190.26)" fill="#fff"/>
        <g id="Group_6" data-name="Group 6" transform="translate(82.447 16.991)">
          <path id="Path_39" data-name="Path 39" d="M229.656,501.051h41.619a3.541,3.541,0,0,0,3.556-3.556v-2.239a3.541,3.541,0,0,0-3.556-3.556H229.656a3.541,3.541,0,0,0-3.556,3.556v2.239A3.72,3.72,0,0,0,229.656,501.051Z" transform="translate(-226.1 -112.391)" fill="#95b0ff"/>
          <path id="Path_40" data-name="Path 40" d="M227.812,207.124h45.306a1.743,1.743,0,0,0,1.712-1.712h0a1.743,1.743,0,0,0-1.712-1.712H227.812a1.743,1.743,0,0,0-1.712,1.712h0A1.84,1.84,0,0,0,227.812,207.124Z" transform="translate(-226.1 -203.7)" fill="#95b0ff"/>
          <circle id="Ellipse_3" data-name="Ellipse 3" cx="1.712" cy="1.712" r="1.712" transform="translate(56.633)" fill="#95b0ff"/>
        </g>
        <g id="Group_7" data-name="Group 7">
          <path id="Path_41" data-name="Path 41" d="M163.5,214.375V588.153a23.777,23.777,0,0,0,23.707,23.707l167.528.263a23.692,23.692,0,0,0,23.707-23.707V214.77A23.851,23.851,0,0,0,357.9,191.2l-153.3-.4H187.075A23.468,23.468,0,0,0,163.5,214.375Zm6.322,0a17.368,17.368,0,0,1,17.385-17.385h17.517l152.382.4a17.449,17.449,0,0,1,15.014,17.253V588.416A17.368,17.368,0,0,1,354.735,605.8l-167.528-.263a17.453,17.453,0,0,1-17.385-17.385V214.375Z" transform="translate(-163.5 -190.799)" fill="#f0f3ff"/>
          <path id="Path_42" data-name="Path 42" d="M326.6,288.565h0V231.8h0a3.822,3.822,0,0,1,3.819,3.819v49.126A3.822,3.822,0,0,1,326.6,288.565Z" transform="translate(-111.79 -177.8)" fill="#f0f3ff"/>
          <path id="Path_43" data-name="Path 43" d="M326.6,314.677h0V283.2h0a3.822,3.822,0,0,1,3.819,3.819v23.97A3.8,3.8,0,0,1,326.6,314.677Z" transform="translate(-111.79 -161.504)" fill="#f0f3ff"/>
        </g>
      </g>
      <g id="Group_12" data-name="Group 12" transform="translate(33.98 86.663)">
        <g id="Group_11" data-name="Group 11">
          <path id="Path_44" data-name="Path 44" d="M266.874,350.637l-72.174.132a5.4,5.4,0,0,1-5.4-5.268V262.132a5.424,5.424,0,0,1,5.4-5.4l72.174-.132a5.4,5.4,0,0,1,5.4,5.268v83.369A5.424,5.424,0,0,1,266.874,350.637Z" transform="translate(-189.3 -256.6)" fill="#7598ff"/>
          <g id="Group_9" data-name="Group 9" transform="translate(20.941 23.707)">
            <path id="Path_45" data-name="Path 45" d="M239.048,313.189a8.588,8.588,0,0,0,2.239-6.322,9.383,9.383,0,0,0-2.239-6.717,11.444,11.444,0,0,0-7.244-3.029c-2.107,6.98-4.61,11.985-7.244,14.751l1.185,2.634-3.819,2.9-1.054-2.239c-3.556,3.029-6.454,4.478-8.956,4.478a6.324,6.324,0,0,1-4.478-1.976,8.365,8.365,0,0,1-2.239-6.058,16.1,16.1,0,0,1,4.61-11.59,23.434,23.434,0,0,1,5.927-4.478l.4-7.639-8.561.4-.79-4.478,9.483-.263c.132-3.161.4-6.058.659-8.956h3.819q1.976.4.4,1.581c-.263,2.371-.527,4.741-.659,7.112a154.939,154.939,0,0,0,16.595-1.844l.79,4.478c-5.663.659-11.59,1.185-17.648,1.449l-.4,6.454a27.774,27.774,0,0,1,7.9-1.185l.659-3.293,3.819.658q1.778.4.4,1.581l-.263,1.449c4.215.4,7.375,1.712,9.746,4.083A13.4,13.4,0,0,1,245.9,307a12.318,12.318,0,0,1-3.424,9.088c-2.371,2.371-6.454,4.083-12.117,5.136l-2.634-4.478C233.516,316.219,237.2,315.033,239.048,313.189Zm-26.209-10.536a13.116,13.116,0,0,0-3.688,9.483,3.791,3.791,0,0,0,1.185,2.766,2.288,2.288,0,0,0,1.58.4c1.976,0,4.346-1.317,6.849-3.819a48.764,48.764,0,0,1-2.371-11.722A20.239,20.239,0,0,0,212.839,302.653Zm9.614,5.268a29.873,29.873,0,0,0,4.61-11.195,22.412,22.412,0,0,0-6.717,1.054A37.576,37.576,0,0,0,222.453,307.921Z" transform="translate(-205.2 -274.6)" fill="#fff"/>
          </g>
          <path id="Path_46" data-name="Path 46" d="M323.574,286.669v83.369a5.424,5.424,0,0,1-5.4,5.4L246,375.965a5.4,5.4,0,0,1-5.4-5.268V287.328a5.424,5.424,0,0,1,5.4-5.4l44.121-.263,15.541-.132,12.512-.132A5.154,5.154,0,0,1,323.574,286.669Z" transform="translate(-173.036 -248.739)" fill="#363656"/>
          <g id="Group_10" data-name="Group 10" transform="translate(89.296 58.345)">
            <path id="Path_47" data-name="Path 47" d="M296.216,340.543c.263.79.4,1.449.527,1.844a.954.954,0,0,1-.263,1.054,1.748,1.748,0,0,1-1.317.4c-.659,0-1.449.132-2.5.132h-2.634c-.658,0-1.054-.132-1.449-.132a1.408,1.408,0,0,1-.659-.4,2.878,2.878,0,0,1-.4-.659l-2.9-8.561-16.2.132-2.766,8.429-.4.79a1.315,1.315,0,0,1-.659.527,3.3,3.3,0,0,1-1.317.263c-.527,0-1.317.132-2.371.132a11.411,11.411,0,0,1-2.371-.132,1.67,1.67,0,0,1-1.185-.527,1.419,1.419,0,0,1-.263-1.054c.132-.527.263-1.054.527-1.844l13.3-38.194a2.123,2.123,0,0,1,.527-.922,1.209,1.209,0,0,1,.79-.527,4.913,4.913,0,0,1,1.58-.263,23.512,23.512,0,0,0,2.766-.132h3.161a6.864,6.864,0,0,1,1.844.263c.4.132.79.263.922.527a3.862,3.862,0,0,1,.527,1.054Zm-19.756-31.477h0L270.4,327.373l12.117-.132Z" transform="translate(-257.1 -300.9)" fill="#fff"/>
          </g>
        </g>
        <path id="Path_48" data-name="Path 48" d="M260.663,272.149l10.931,6.98a1.665,1.665,0,0,0,2.5-1.449v-3.424a16.594,16.594,0,0,1,17.122,16.726l-3.424.132a1.669,1.669,0,0,0-1.317,2.634l7.244,10.668a1.665,1.665,0,0,0,2.766-.132l7.244-11.063a1.573,1.573,0,0,0-1.317-2.5l-3.424.132a24.2,24.2,0,0,0-24.76-24.234v-3.424a1.573,1.573,0,0,0-2.5-1.317l-10.931,7.507A1.665,1.665,0,0,0,260.663,272.149Z" transform="translate(-166.889 -255.027)" fill="#7598ff"/>
        <path id="Path_49" data-name="Path 49" d="M242.843,348.13l-10.931-6.98a1.665,1.665,0,0,0-2.5,1.449v3.424A16.594,16.594,0,0,1,212.288,329.3l3.424-.132a1.669,1.669,0,0,0,1.317-2.634l-7.244-10.668a1.665,1.665,0,0,0-2.766.132l-7.244,11.063a1.573,1.573,0,0,0,1.317,2.5l3.424-.132a24.2,24.2,0,0,0,24.76,24.234v3.424a1.573,1.573,0,0,0,2.5,1.317l10.931-7.507C243.9,350.106,243.9,348.657,242.843,348.13Z" transform="translate(-186.079 -238.025)" fill="#7598ff"/>
      </g>
      <g id="Group_18" data-name="Group 18" transform="translate(81.262 274.21)">
        <circle id="Ellipse_4" data-name="Ellipse 4" cx="25.551" cy="25.551" r="25.551" fill="#95b0ff"/>
        <g id="Group_17" data-name="Group 17" transform="translate(18.141 11.327)">
          <path id="Path_50" data-name="Path 50" d="M245.619,423.141h0a3.8,3.8,0,0,1-3.819-3.688v-8.166a3.681,3.681,0,0,1,3.688-3.688h.132a3.681,3.681,0,0,1,3.688,3.688v8.166A3.769,3.769,0,0,1,245.619,423.141Z" transform="translate(-238.078 -407.6)" fill="#fff"/>
          <g id="Group_15" data-name="Group 15" transform="translate(0 12.609)">
            <g id="Group_13" data-name="Group 13">
              <path id="Path_51" data-name="Path 51" d="M246.515,424.057h0a7.508,7.508,0,0,1-7.507-5.927.751.751,0,1,1,1.449-.4,6.175,6.175,0,0,0,5.927,4.741h.132a6.063,6.063,0,0,0,5.927-4.741.751.751,0,1,1,1.449.4A7.6,7.6,0,0,1,246.515,424.057Z" transform="translate(-238.974 -417.174)" fill="#fff"/>
            </g>
            <g id="Group_14" data-name="Group 14" transform="translate(6.619 5.302)">
              <path id="Path_52" data-name="Path 52" d="M244.79,430.551a.85.85,0,0,1-.79-.79V421.99a.79.79,0,0,1,1.581,0v7.771A.85.85,0,0,1,244.79,430.551Z" transform="translate(-244 -421.2)" fill="#fff"/>
            </g>
          </g>
          <g id="Group_16" data-name="Group 16" transform="translate(1.746 25.287)">
            <ellipse id="Ellipse_5" data-name="Ellipse 5" cx="5.663" cy="1.58" rx="5.663" ry="1.58" fill="#fff"/>
          </g>
        </g>
      </g>
    </g>
    <g id="Group_46" data-name="Group 46" transform="translate(403.408 373.313)">
      <path id="Path_53" data-name="Path 53" d="M421.356,567.782a46.639,46.639,0,0,1-.527,7.9,19.19,19.19,0,0,1-1.317,5.136,4.849,4.849,0,0,1-2.107,2.634,5.246,5.246,0,0,1-2.9.658H321.656a7.8,7.8,0,0,1-6.585-2.9c-1.58-1.844-2.371-5-2.371-9.351v-7.244c0-1.844.132-3.688.263-5.137a24.537,24.537,0,0,1,.922-4.478,30.672,30.672,0,0,1,1.844-4.346,37.549,37.549,0,0,1,3.161-4.873L372.1,463.6H321.788c-1.976,0-3.688-1.317-4.873-3.819s-1.844-6.585-1.844-12.248a60.862,60.862,0,0,1,.4-7.639,17.511,17.511,0,0,1,1.185-4.873,5.386,5.386,0,0,1,2.107-2.634,5.456,5.456,0,0,1,3.029-.79h86.793a11.161,11.161,0,0,1,3.819.527,6.116,6.116,0,0,1,2.634,1.712,8.97,8.97,0,0,1,1.58,3.556,21.845,21.845,0,0,1,.527,5.532V450.7c0,2.107-.132,3.951-.263,5.663-.263,1.58-.527,3.161-.922,4.741a18.891,18.891,0,0,1-1.844,4.478q-1.185,2.173-2.766,4.741L358.4,552.373h56.106a7.079,7.079,0,0,1,2.766.659,4.739,4.739,0,0,1,2.107,2.371,17.006,17.006,0,0,1,1.317,4.873A28.622,28.622,0,0,1,421.356,567.782Z" transform="translate(-312.7 -296.968)" fill="#d7dff9"/>
      <path id="Path_54" data-name="Path 54" d="M445.156,567.782a46.636,46.636,0,0,1-.527,7.9,19.189,19.189,0,0,1-1.317,5.136,4.849,4.849,0,0,1-2.107,2.634,5.246,5.246,0,0,1-2.9.658H345.456a7.8,7.8,0,0,1-6.585-2.9c-1.58-1.844-2.371-5-2.371-9.351v-7.244c0-1.844.132-3.688.263-5.137a24.534,24.534,0,0,1,.922-4.478,30.671,30.671,0,0,1,1.844-4.346,37.546,37.546,0,0,1,3.161-4.873L395.9,463.6H345.588c-1.976,0-3.688-1.317-4.873-3.819s-1.844-6.585-1.844-12.248a60.861,60.861,0,0,1,.4-7.639,17.513,17.513,0,0,1,1.185-4.873,5.387,5.387,0,0,1,2.107-2.634,5.456,5.456,0,0,1,3.029-.79h86.793a11.161,11.161,0,0,1,3.819.527,6.116,6.116,0,0,1,2.634,1.712,8.97,8.97,0,0,1,1.581,3.556,21.846,21.846,0,0,1,.527,5.532V450.7c0,2.107-.132,3.951-.263,5.663-.263,1.58-.527,3.161-.922,4.741a18.893,18.893,0,0,1-1.844,4.478q-1.185,2.173-2.766,4.741L382.2,552.373h56.106a7.079,7.079,0,0,1,2.766.659,4.739,4.739,0,0,1,2.107,2.371,17.008,17.008,0,0,1,1.317,4.873A28.622,28.622,0,0,1,445.156,567.782Z" transform="translate(-305.154 -296.968)" fill="#f0f3ff"/>
      <g id="Group_45" data-name="Group 45" transform="translate(43.193)">
        <g id="Group_44" data-name="Group 44">
          <path id="Path_55" data-name="Path 55" d="M406.172,395.965a33.056,33.056,0,0,1,10.536,6.322,8.316,8.316,0,0,1,2.9,4.478,11.917,11.917,0,0,1-.79,6.058,11.693,11.693,0,0,1-5,5.4c-2.371,1.317-5.795,1.317-8.429.79a18.947,18.947,0,0,1-7.771-3.951,18.447,18.447,0,0,1-5.136-6.322,12.1,12.1,0,0,1-.79-8.034,8.783,8.783,0,0,1,5.4-5.795C400.114,393.857,403.275,394.779,406.172,395.965Z" transform="translate(-330.963 -308.746)" fill="#7598ff"/>
          <path id="Path_56" data-name="Path 56" d="M391.2,378.3a14.915,14.915,0,0,0,.79,4.741,76.358,76.358,0,0,0,2.5,7.771c1.449,4.083,3.161,8.166,4.873,12.249,1.317,3.293,2.766,6.585,4.083,9.878a27.942,27.942,0,0,0,3.293,6.19,9.725,9.725,0,0,0,6.058,3.688,6.374,6.374,0,0,0,3.161-.4c.132,0,.263-.132.4-.132a5.831,5.831,0,0,0,1.976-1.58c2.107-2.634,1.58-6.058.79-9.219-.4-1.58-.79-3.293-1.185-4.873-3.029-12.775-6.98-25.551-14.883-36.219a4.792,4.792,0,0,0-2.107-1.844,4.97,4.97,0,0,0-4.215.79A10.67,10.67,0,0,0,391.2,378.3Z" transform="translate(-331.005 -317.025)" fill="#7598ff"/>
          <path id="Path_57" data-name="Path 57" d="M358,433.72l12.38.263,34.9.79h0a23.89,23.89,0,0,0,.527-2.9c.132-1.317.263-2.634.4-3.556v-.4l.4-5,.132-.922,3.951-47.414a7.187,7.187,0,0,0-4.346-7.244.46.46,0,0,1-.263-.132l-.263-.132a46.31,46.31,0,0,0-5.663-1.712c-.263,0-.4-.132-.659-.132-.922-.263-1.712-.4-2.634-.659-.132,0-.4-.132-.527-.132h-.263c-.4-.132-.922-.132-1.317-.263a80.407,80.407,0,0,0-15.8-1.58h-3.293c-2.107.132-4.215.263-6.19.527h-.132a1,1,0,0,0-.527.132,8.856,8.856,0,0,0-6.849,8.3l-.4,6.717-.132,2.239-.263,4.873h0v.659l-.263,5.268L359.58,413.57l-.922,14.619c0,.922-.132,1.712-.132,2.634v2.239Z" transform="translate(-341.531 -318.844)" fill="#7598ff"/>
          <path id="Path_58" data-name="Path 58" d="M402.339,371.763s-1.844-3.688-7.639-5.663c0,0,.79,10.273.659,10.141C395.359,375.978,402.339,371.763,402.339,371.763Z" transform="translate(-329.895 -317.735)" fill="#4747ea"/>
          <path id="Path_59" data-name="Path 59" d="M358,428.87l12.38.263,34.9.79h0a23.887,23.887,0,0,0,.527-2.9c.132-1.317.263-2.634.4-3.556a126.55,126.55,0,0,0-23.443-2.634c-2.634,0-5.795-.4-6.717-2.766-.79-1.844.4-3.951,1.317-5.8a29.284,29.284,0,0,0,2.371-6.454c-1.976-.658-3.951-1.449-6.058-2.239a7.8,7.8,0,0,1-2.5-1.449,6.049,6.049,0,0,1-1.449-2.9,40.46,40.46,0,0,1-.659-21.336,28.132,28.132,0,0,0-8.429,8.3l-1.317,22.258-.922,14.619c0,.922-.132,1.712-.132,2.634v2.239Z" transform="translate(-341.531 -313.993)" fill="#4747ea"/>
          <path id="Path_60" data-name="Path 60" d="M392.4,406.8c0-.4.132-.922.132-1.317a16.222,16.222,0,0,1,1.844-4.083,7.053,7.053,0,0,1,1.976-1.976,3.4,3.4,0,0,1,2.766-.4,5.112,5.112,0,0,1,1.449.79c.263.263.659.4.79.659a2.124,2.124,0,0,1,.4,1.185,3.758,3.758,0,0,1,0,1.712,9.864,9.864,0,0,1-2.107,4.61c-1.185,1.317-2.9,2.5-4.61,2.371a.987.987,0,0,1-.659-.132,1.587,1.587,0,0,1-.659-.659A3.707,3.707,0,0,1,392.4,406.8Z" transform="translate(-330.625 -307.335)" fill="#fff"/>
          <path id="Path_61" data-name="Path 61" d="M345.872,410.054a12.115,12.115,0,0,1,5-7.375c3.424-2.634,7.375-4.215,11.195-6.19a100.314,100.314,0,0,1,13.566-5.4c2.239-.79,4.61-1.581,6.849-2.371a5.8,5.8,0,0,1,5.795.659c3.424,2.239,3.161,7.375,1.054,10.273a33.216,33.216,0,0,1-6.19,6.717c-2.9,2.5-6.19,4.478-9.351,6.717-4.215,2.9-8.561,6.058-13.434,7.375-4.741,1.317-11.195.659-13.829-4.083A8.925,8.925,0,0,1,345.872,410.054Z" transform="translate(-345.471 -310.719)" fill="#7598ff"/>
          <path id="Path_62" data-name="Path 62" d="M348.531,426.218h0c6.322,1.976,12.907-10.273,14.224-13.3.132-.263.263-.659.4-.922h0c.79-1.976,1.712-3.951,2.5-6.058a79.981,79.981,0,0,0,4.741-13.3c.527-2.107.79-4.215,1.185-6.322a110.583,110.583,0,0,0,1.449-17.385A11.428,11.428,0,0,0,371.842,363s-12.775,2.371-17.648,19.887c-1.054,3.819-3.293,11.985-5.4,19.887,0,.132-.132.4-.132.527C341.682,425.428,348.4,426.218,348.531,426.218Z" transform="translate(-345.495 -318.717)" fill="#7598ff"/>
          <g id="Group_22" data-name="Group 22" transform="translate(55.56 73.126)">
            <path id="Path_63" data-name="Path 63" d="M399.752,389.484a.283.283,0,0,0-.263-.263c-.4-.263-.922.132-1.054.527a2.584,2.584,0,0,0,.132,1.976,16.055,16.055,0,0,0,3.293,6.058c.132.132.263.263.4.263,0-.132,0-.132.132-.263-.132-1.317-.4-2.766-.527-4.083a3.1,3.1,0,0,0-.263-1.054,3.3,3.3,0,0,0-.527-.922C400.674,390.933,400.147,390.274,399.752,389.484Z" transform="translate(-384.317 -383.557)" fill="#feb0aa"/>
            <g id="Group_21" data-name="Group 21">
              <path id="Path_64" data-name="Path 64" d="M388.628,407.685l10.4.79a1.711,1.711,0,0,0,1.58-1.054l5.927-20.414a1.085,1.085,0,0,0-.922-1.317l-10.4-.79a1.711,1.711,0,0,0-1.58,1.054l-5.927,20.414C387.574,407.158,387.97,407.685,388.628,407.685Z" transform="translate(-387.681 -384.9)" fill="#4976ff"/>
              <g id="Group_20" data-name="Group 20" transform="translate(4.609 3.53)">
                <path id="Path_65" data-name="Path 65" d="M402.979,400.838c0-1.317.132-2.766.132-4.083,0-1.054,0-2.239-.79-2.634s-1.844.659-2.371,1.449A33.209,33.209,0,0,0,396,403.34a17.234,17.234,0,0,0-1.185,3.688,4.229,4.229,0,0,0,.132,1.844.962.962,0,0,0,1.317.527,4,4,0,0,0,.922-.659c1.712-1.976,3.424-4.083,5.136-6.19.132-.263.4-.527.527-.79A2.242,2.242,0,0,0,402.979,400.838Z" transform="translate(-390.046 -385.534)" fill="#feb0aa"/>
                <path id="Path_66" data-name="Path 66" d="M400.856,393.533a.85.85,0,0,1-.79.79,2.124,2.124,0,0,1-1.185-.4,1.81,1.81,0,0,1-.659-1.054,11.83,11.83,0,0,1-.922-3.556v-1.054c.132-.4.4-.79.79-.659.263,0,.4.263.527.527.79,1.58,1.449,3.161,2.107,4.873C400.724,393.27,400.856,393.4,400.856,393.533Z" transform="translate(-389.24 -387.58)" fill="#feb0aa"/>
                <path id="Path_67" data-name="Path 67" d="M399.773,391.1l-.79-.4c-.263-.132-.527.132-.659.4a.588.588,0,0,0,0,.659c.263,1.712.527,3.556.922,5.268a2.924,2.924,0,0,0,.659,1.449,1.567,1.567,0,0,0,1.449.527,1.587,1.587,0,0,0,.659-.659,3.648,3.648,0,0,0-.132-2.634,15.923,15.923,0,0,1-.659-2.371A21.453,21.453,0,0,0,399.773,391.1Z" transform="translate(-388.947 -386.6)" fill="#feb0aa"/>
                <path id="Path_68" data-name="Path 68" d="M391.733,400.317c-.263-.263-.659-.659-.527-.922a.706.706,0,0,1,.527-.4c.132,0,.527,0,.659.132l3.556,1.185c.132,0,.263.132.4.132a1.006,1.006,0,0,1,.263.658,5.7,5.7,0,0,1-.132.659.885.885,0,0,1-1.317.659A10.5,10.5,0,0,1,391.733,400.317Z" transform="translate(-391.18 -383.96)" fill="#fec1bc"/>
                <path id="Path_69" data-name="Path 69" d="M391.445,396.64c.263-.263.527-.132.79-.132,1.449.132,3.029.4,4.478.659.263.132.659.132.79.4a1.67,1.67,0,0,1,.132.79c0,.263-.263.527-.527.79a2.755,2.755,0,0,1-.79.527,5.706,5.706,0,0,1-.659-.132,19.447,19.447,0,0,1-3.819-1.58,1.028,1.028,0,0,1-.527-.527A.808.808,0,0,1,391.445,396.64Z" transform="translate(-391.155 -384.76)" fill="#fec1bc"/>
                <path id="Path_70" data-name="Path 70" d="M398.322,395.171a.724.724,0,0,0-.659-.4c-1.449-.659-3.029-1.185-4.478-1.844a1.187,1.187,0,0,0-.659-.132c-.263,0-.527.132-.527.4a1.006,1.006,0,0,0,.263.659,9.937,9.937,0,0,0,3.424,2.766,2.393,2.393,0,0,0,2.634,0C398.717,396.356,398.585,395.566,398.322,395.171Z" transform="translate(-390.92 -385.926)" fill="#fec1bc"/>
                <path id="Path_71" data-name="Path 71" d="M395.18,400.032l1.976.79a2.648,2.648,0,0,1,1.054.527,1.629,1.629,0,0,1,.527,1.844c0,.132-.132.263-.132.4-.132.263-.527.263-.659.527a1.972,1.972,0,0,1-1.976-.659,11.375,11.375,0,0,1-1.844-1.712,2.367,2.367,0,0,1-.527-1.185.99.99,0,0,1,.922-.659C394.917,399.9,395.049,399.9,395.18,400.032Z" transform="translate(-390.413 -383.675)" fill="#feb0aa"/>
                <path id="Path_72" data-name="Path 72" d="M394.5,398.046a1.026,1.026,0,0,1,.4-.922,1.443,1.443,0,0,1,1.054,0,11.419,11.419,0,0,1,3.556,1.844,2.343,2.343,0,0,1,.922,1.054,1.333,1.333,0,0,1-1.58,1.976,4.933,4.933,0,0,1-1.58-.922,13.954,13.954,0,0,1-1.58-1.317A2.729,2.729,0,0,1,394.5,398.046Z" transform="translate(-390.128 -384.586)" fill="#feb0aa"/>
                <path id="Path_73" data-name="Path 73" d="M396.011,396.539a2.468,2.468,0,0,1-.79-.922.994.994,0,0,1,.132-1.054.968.968,0,0,1,.79-.263,2.442,2.442,0,0,1,.922.263,17.966,17.966,0,0,1,2.634,1.449,5.747,5.747,0,0,1,2.107,2.239c.4,1.054-.263,1.844-1.58,1.58a6.573,6.573,0,0,1-2.239-1.449A12.645,12.645,0,0,0,396.011,396.539Z" transform="translate(-389.927 -385.45)" fill="#feb0aa"/>
              </g>
            </g>
          </g>
          <g id="Group_29" data-name="Group 29" transform="translate(33.828 69.031)">
            <path id="Path_74" data-name="Path 74" d="M382.533,396.247a2.891,2.891,0,0,1-.922,2.634,5.731,5.731,0,0,1-2.5,1.317,12.342,12.342,0,0,1-3.688.79,3.654,3.654,0,0,1-3.161-1.844c-.132-.4-.263-.659-.4-1.054a6.423,6.423,0,0,0-.527-1.449,7.007,7.007,0,0,1,.659-4.61c.922-1.581,2.766-2.239,4.478-2.766a3.671,3.671,0,0,1,2.371-.132c.79.263,1.317,1.185,1.712,1.976A18.831,18.831,0,0,1,382.533,396.247Z" transform="translate(-371.18 -379.508)" fill="#fff"/>
            <g id="Group_28" data-name="Group 28" transform="translate(3.928)">
              <path id="Path_75" data-name="Path 75" d="M378.558,388.669c-.527.4-1.185.79-1.712,1.185a6.074,6.074,0,0,0-2.239,2.239,6.7,6.7,0,0,0-.4,3.293,4.618,4.618,0,0,0,.79,1.844,3.8,3.8,0,0,0,2.766,1.58,4.549,4.549,0,0,0,2.371-.659,12.414,12.414,0,0,0,3.293-2.371c.263-.263.4-.527.659-.79a2.63,2.63,0,0,0,.263-1.185,9.307,9.307,0,0,0-.263-3.293,4.735,4.735,0,0,0-1.581-2.634C381.192,387.089,379.875,387.879,378.558,388.669Z" transform="translate(-374.163 -379.965)" fill="#fec1bc"/>
              <path id="Path_76" data-name="Path 76" d="M380.315,397.551c-1.185.132-2.371.263-3.293-.527a3.461,3.461,0,0,1-.922-1.976,12.976,12.976,0,0,1,.263-2.239,34.3,34.3,0,0,1,2.107-6.19,2.867,2.867,0,0,1,.659-1.054,3.3,3.3,0,0,1,.922-.527,47.483,47.483,0,0,1,5.532-2.107c.132,0,.4-.132.527-.132a1.328,1.328,0,0,1,.922,1.449,19.933,19.933,0,0,1-.263,3.951,13.8,13.8,0,0,0,.132,3.293c0,.263.132.527.4.527h.4c.4-.132.79.263.922.659-1.581.922-2.5,2.766-3.951,3.688A7.965,7.965,0,0,1,380.315,397.551Z" transform="translate(-373.548 -381.471)" fill="#feb0aa"/>
              <path id="Path_77" data-name="Path 77" d="M390.234,387.316a2.441,2.441,0,0,1,.922.263.939.939,0,0,1,.4.79c0,.4-.527.659-.922.79a45.106,45.106,0,0,0-5.532,3.029,2.761,2.761,0,0,1-1.449.527,1.621,1.621,0,0,1-1.317-.659,2.241,2.241,0,0,1-.132-.922,2.754,2.754,0,0,1,.922-1.712,4.555,4.555,0,0,1,1.58-.922A8.821,8.821,0,0,1,390.234,387.316Z" transform="translate(-371.614 -380.061)" fill="#feb0aa"/>
              <g id="Group_27" data-name="Group 27" transform="translate(6.766)">
                <g id="Group_23" data-name="Group 23" transform="translate(6.235 0.012)">
                  <path id="Path_78" data-name="Path 78" d="M385.438,384.961a2.1,2.1,0,0,1-1.185-.922,1.558,1.558,0,0,1-.132-1.317c.263-.659,1.185-.79,1.976-.79a26.442,26.442,0,0,1,3.293-.132,2.025,2.025,0,0,1,1.844.79c.4.527,0,1.054-.4,1.449a5.629,5.629,0,0,1-2.634.79c-.4,0-.79.132-1.317.132A5.312,5.312,0,0,1,385.438,384.961Z" transform="translate(-384.034 -381.8)" fill="#fec1bc"/>
                  <path id="Path_79" data-name="Path 79" d="M387.6,382.711a.889.889,0,0,1,.527-.79,1.28,1.28,0,0,1,1.185.132,5.341,5.341,0,0,1,1.185.659c.922.659,1.844,1.054,2.766,1.712.4.263.79.659.659,1.054-.132.263-.4.263-.659.4a6.236,6.236,0,0,1-3.029-.4,7.921,7.921,0,0,1-1.712-1.185A2.511,2.511,0,0,1,387.6,382.711Z" transform="translate(-382.904 -381.789)" fill="#fec1bc"/>
                </g>
                <g id="Group_24" data-name="Group 24" transform="translate(5.005)">
                  <path id="Path_80" data-name="Path 80" d="M383.1,383.383a3.088,3.088,0,0,1,.659-1.317,1,1,0,0,1,1.185-.132c.659.263.79,1.185,1.054,1.976a26.656,26.656,0,0,1,.527,3.424c0,.658,0,1.58-.527,1.976a.9.9,0,0,1-1.317-.263,7.584,7.584,0,0,1-1.054-2.766,4.68,4.68,0,0,1-.263-1.317A6.613,6.613,0,0,1,383.1,383.383Z" transform="translate(-383.1 -381.791)" fill="#fec1bc"/>
                  <path id="Path_81" data-name="Path 81" d="M385.587,385.6a.889.889,0,0,1,.79.527,1.828,1.828,0,0,1,0,1.185c-.132.4-.4.79-.527,1.185a20.7,20.7,0,0,0-1.185,3.029c-.263.4-.527.922-.922.79a.8.8,0,0,1-.4-.79,6.42,6.42,0,0,1,0-3.161,8.047,8.047,0,0,1,.922-1.844C384.665,386.127,385.06,385.6,385.587,385.6Z" transform="translate(-383.084 -380.583)" fill="#fec1bc"/>
                </g>
                <g id="Group_25" data-name="Group 25" transform="translate(2.16 1.014)">
                  <path id="Path_82" data-name="Path 82" d="M381.432,383.534a1.393,1.393,0,0,1,.79-.922,1.263,1.263,0,0,1,1.185.263c.659.4.79,1.317.922,2.107a25.58,25.58,0,0,1,.263,3.161c0,.659-.132,1.449-.659,1.712s-1.054-.263-1.449-.659a6.88,6.88,0,0,1-.922-2.766c-.132-.4-.132-.79-.263-1.317C381.432,384.456,381.3,383.929,381.432,383.534Z" transform="translate(-380.826 -382.561)" fill="#fec1bc"/>
                  <path id="Path_83" data-name="Path 83" d="M383.916,386.106a1.187,1.187,0,0,1,.79.79,1.442,1.442,0,0,1,0,1.054,2.363,2.363,0,0,1-.658.922c-.527.659-.922,1.58-1.58,2.371-.263.263-.659.659-1.054.4a.939.939,0,0,1-.4-.79,4.89,4.89,0,0,1,.263-2.766,4.118,4.118,0,0,1,1.185-1.449C382.863,386.37,383.39,385.975,383.916,386.106Z" transform="translate(-380.94 -381.445)" fill="#fec1bc"/>
                </g>
                <g id="Group_26" data-name="Group 26" transform="translate(0 1.901)">
                  <path id="Path_84" data-name="Path 84" d="M379.8,384.243a1.393,1.393,0,0,1,.79-.922,1.281,1.281,0,0,1,1.185.132,2.391,2.391,0,0,1,.79,1.844,21.342,21.342,0,0,1,.132,2.9c0,.527-.132,1.317-.659,1.449a1.079,1.079,0,0,1-1.317-.527,5.111,5.111,0,0,1-.79-2.5c0-.4-.132-.79-.132-1.185Z" transform="translate(-379.141 -383.234)" fill="#fec1bc"/>
                  <path id="Path_85" data-name="Path 85" d="M382.461,386.733a1.21,1.21,0,0,1,.527.79,1.254,1.254,0,0,1-.263.922c-.132.263-.527.4-.659.659a9.756,9.756,0,0,0-1.712,1.58.651.651,0,0,1-.922.132.987.987,0,0,1-.132-.659,4.591,4.591,0,0,1,.79-2.239,7.241,7.241,0,0,1,1.185-.922A.858.858,0,0,1,382.461,386.733Z" transform="translate(-379.3 -382.168)" fill="#fec1bc"/>
                </g>
              </g>
              <path id="Path_86" data-name="Path 86" d="M380.1,386.4a2.138,2.138,0,0,0,1.185-.658c.263-.4.527-.922.263-1.317-.132-.132-.263-.4-.4-.4a1.67,1.67,0,0,0-.79-.132,2.374,2.374,0,0,0-1.317.263,1.392,1.392,0,0,0-.922.79.839.839,0,0,0,0,.79,1.028,1.028,0,0,0,.527.527.792.792,0,0,0,.527.132A1.114,1.114,0,0,0,380.1,386.4Z" transform="translate(-372.938 -381.122)" fill="#fec1bc"/>
              <path id="Path_87" data-name="Path 87" d="M375.6,394.417a12.177,12.177,0,0,1,.527-3.819,13.672,13.672,0,0,0,.527-1.317c.659-1.317,1.317-2.634,1.976-4.083a3.3,3.3,0,0,1,.527-.922.873.873,0,0,1,.922-.263c.4.132.527.659.527,1.054a3.846,3.846,0,0,1-.263,1.185,14.346,14.346,0,0,0-.659,3.424,9.763,9.763,0,0,0-.132,2.766,4.735,4.735,0,0,0,.263,1.449,3.761,3.761,0,0,1-1.054,3.029,1.909,1.909,0,0,1-2.766-.263A4.028,4.028,0,0,1,375.6,394.417Z" transform="translate(-373.707 -381.103)" fill="#fec1bc"/>
            </g>
          </g>
          <g id="Group_36" data-name="Group 36" transform="translate(37.076)">
            <path id="Path_88" data-name="Path 88" d="M373.849,363.644c-1.054,4.083,2.107,8.3,6.98,9.483s9.614-1.185,10.536-5.136a6.41,6.41,0,0,0,.132-1.58c-.132,0-.132,0-.263-.132h0a9.088,9.088,0,0,1-1.317-.527,77.877,77.877,0,0,0-15.409-3.951A7.618,7.618,0,0,0,373.849,363.644Z" transform="translate(-373.646 -319.098)" fill="#fff"/>
            <path id="Path_89" data-name="Path 89" d="M388.935,366.622l-.922,3.951c-.79,3.293-3.819,4.083-7.112,3.293h-.132c-3.161-.79-5.4-2.766-4.741-6.058l1.712-8.429a30.754,30.754,0,0,0,.527-3.424l.659-6.453,13.434,3.293Z" transform="translate(-372.927 -322.997)" fill="#feb0aa"/>
            <g id="Group_35" data-name="Group 35" transform="translate(0.621)">
              <g id="Group_30" data-name="Group 30">
                <path id="Path_90" data-name="Path 90" d="M376.53,353.377s-2.9-8.429-.263-16.068c0,0,27.921-4.215,30.819,5.927C407.085,343.236,397.6,358.645,376.53,353.377Z" transform="translate(-373.787 -327.138)" fill="#9991a6"/>
                <path id="Path_91" data-name="Path 91" d="M377.914,346.2a3.65,3.65,0,0,0-3.556,3.029c-1.054,4.215,1.581,6.849,3.688,8.693,2.9,2.371,5.268-.659,5.268-4.215C383.314,350.679,381.338,346.069,377.914,346.2Z" transform="translate(-374.118 -324.044)" fill="#fec1bc"/>
                <path id="Path_92" data-name="Path 92" d="M381.7,337.046s12.117-13.829,15.014-4.346c0,0,16.2-5.927,11.59,4.873,0,0,8.956,4.61-3.161,12.249C405.012,349.821,385.256,358.646,381.7,337.046Z" transform="translate(-371.714 -329.377)" fill="#5d5576"/>
                <path id="Path_93" data-name="Path 93" d="M383.1,345.177a24.937,24.937,0,0,0-2.766,6.98c-1.449,5.268-3.029,14.224,2.371,17.78a19.367,19.367,0,0,0,5.268,2.5,12.752,12.752,0,0,0,8.3-.263,8.768,8.768,0,0,0,4.083-3.556,9.873,9.873,0,0,0,1.317-2.634c.132-.263.132-.4.263-.659a29.539,29.539,0,0,0,1.185-5.927v-.263a1.187,1.187,0,0,1,.132-.659c.132-.922.132-1.712.263-2.5a61.18,61.18,0,0,1,1.449-6.717c.4-1.58,1.317-4.215.79-5.795-1.449-3.688-8.429-3.688-11.59-3.556a16.178,16.178,0,0,0-7.112,1.712A10.2,10.2,0,0,0,383.1,345.177Z" transform="translate(-372.588 -326.05)" fill="#fec1bc"/>
                <path id="Path_94" data-name="Path 94" d="M383.78,335.21s-10.668-.922-8.3,5.795c0,0,3.688,4.741,10.536-4.083Z" transform="translate(-373.794 -327.542)" fill="#5d5576"/>
                <path id="Path_95" data-name="Path 95" d="M385.385,341.6s-.263,9.219-3.556,9.746a1.361,1.361,0,0,1-1.58-1.185l-1.449-6.585Z" transform="translate(-372.633 -325.502)" fill="#9991a6"/>
              </g>
              <path id="Path_96" data-name="Path 96" d="M394.809,348.536c-.263.659.922,1.712,2.634,2.371s2.239.132,2.5-.527.132-1.449-1.58-1.976C396.653,347.746,395.072,347.877,394.809,348.536Z" transform="translate(-367.57 -323.482)" fill="#5d5576"/>
              <ellipse id="Ellipse_6" data-name="Ellipse 6" cx="1.317" cy="3.293" rx="1.317" ry="3.293" transform="translate(15.846 24.35) rotate(-80.979)" fill="#5d5576"/>
              <path id="Path_97" data-name="Path 97" d="M387.512,351.3c-.132.659,0,1.185.4,1.317s.922-.263,1.054-.79c.132-.658,0-1.185-.4-1.317A.869.869,0,0,0,387.512,351.3Z" transform="translate(-369.887 -322.688)" fill="#5d5576"/>
              <path id="Path_98" data-name="Path 98" d="M394.712,353.1c-.132.659,0,1.185.4,1.317s.922-.263,1.054-.79c.132-.659,0-1.185-.4-1.317S394.975,352.44,394.712,353.1Z" transform="translate(-367.604 -322.118)" fill="#5d5576"/>
              <g id="Group_31" data-name="Group 31" transform="translate(23.552 29.137)">
                <path id="Path_99" data-name="Path 99" d="M392.263,358.48a.283.283,0,0,1-.263-.263c0-.132,0-.4.263-.4a2.924,2.924,0,0,0,1.449-.659,1.146,1.146,0,0,0,.527-1.185c0-.263-.132-.4-.4-.659a.129.129,0,0,0-.132-.132,5.763,5.763,0,0,1-1.054-3.293c0-.132.132-.263.263-.4.132,0,.263.132.4.263a5.4,5.4,0,0,0,.922,2.9l.132.132a1.966,1.966,0,0,1,.4.922,1.862,1.862,0,0,1-.79,1.844,3.147,3.147,0,0,1-1.712.922Z" transform="translate(-392 -351.5)" fill="#f67a86"/>
              </g>
              <g id="Group_32" data-name="Group 32" transform="translate(15.331 35.009)">
                <path id="Path_100" data-name="Path 100" d="M391.74,359.833h0a7.211,7.211,0,0,1-5.927-3.424.294.294,0,1,1,.527-.263,6.544,6.544,0,0,0,5.4,3.161.283.283,0,0,1,.263.263C392.135,359.7,392,359.833,391.74,359.833Z" transform="translate(-385.759 -355.959)" fill="#f67a86"/>
              </g>
              <g id="Group_33" data-name="Group 33" transform="translate(2.611 25.844)">
                <path id="Path_101" data-name="Path 101" d="M379,352.556h-.132A5.425,5.425,0,0,1,376.1,349.4c0-.132,0-.4.263-.4.132,0,.4,0,.4.263a4.937,4.937,0,0,0,2.371,2.766c.132.132.263.263.132.4C379.261,352.556,379.129,352.556,379,352.556Z" transform="translate(-376.1 -349)" fill="#f67a86"/>
              </g>
              <g id="Group_34" data-name="Group 34" transform="translate(16.176 38.751)">
                <path id="Path_102" data-name="Path 102" d="M387.717,359.985h-.132l-1.054-.659a.294.294,0,0,1,.263-.527l1.054.659a.484.484,0,0,1,.132.4C387.849,359.854,387.849,359.985,387.717,359.985Z" transform="translate(-386.4 -358.8)" fill="#f67a86"/>
              </g>
            </g>
          </g>
          <g id="Group_43" data-name="Group 43" transform="translate(16.469 114.876)">
            <g id="Group_37" data-name="Group 37" transform="translate(32.926 103.783)">
              <path id="Path_103" data-name="Path 103" d="M393.8,498.166l1.054,16.99a5.038,5.038,0,0,1-4.215,5.268h-.132a5.125,5.125,0,0,1-5.795-4.61L383,495.4Z" transform="translate(-383 -495.4)" fill="#e9eaec"/>
              <path id="Path_104" data-name="Path 104" d="M384.284,513.313l3.688-.79a8.4,8.4,0,0,1,9.351-4.478,42.314,42.314,0,0,0,8.3,18.307l-.263,4.61s-10.273,7.639-21.468.79C381.914,523.191,384.284,513.313,384.284,513.313Z" transform="translate(-382.967 -491.45)" fill="#5d5576"/>
            </g>
            <g id="Group_38" data-name="Group 38" transform="translate(71.937 94.564)">
              <path id="Path_105" data-name="Path 105" d="M425.363,492.219l-.79,16.99a4.923,4.923,0,0,1-4.873,4.741h-.132a5.091,5.091,0,0,1-5.268-5.136l.659-20.414Z" transform="translate(-412.087 -488.4)" fill="#e9eaec"/>
              <path id="Path_106" data-name="Path 106" d="M427.871,506c2.107,8.166,15.673,15.409,15.673,15.409l-.4,3.688c-3.556,7.771-16.858,1.317-16.858,1.317l-13.3-6.322a30.856,30.856,0,0,1,1.317-14.883l3.029.79C417.467,506,425.632,496.649,427.871,506Z" transform="translate(-412.62 -484.137)" fill="#5d5576"/>
            </g>
            <g id="Group_42" data-name="Group 42">
              <path id="Path_107" data-name="Path 107" d="M358,416.6v13.039a14.682,14.682,0,0,0,13.7,14.619l33.321-3.424V428.585l.132-10.931Z" transform="translate(-358 -416.6)" fill="#363656"/>
              <path id="Path_108" data-name="Path 108" d="M363.8,438.075l19.624,11.59L385,430.7Z" transform="translate(-356.161 -412.13)" fill="#363656"/>
              <path id="Path_109" data-name="Path 109" d="M424.087,445.158,377.2,438.573,398.931,417.5s25.946,2.766,40.828,7.771c9.351,3.161,9.483,6.322,8.956,11.985l-8.034,80.471a2.686,2.686,0,0,1-1.976,2.371h-.132l-.79,4.873a20.472,20.472,0,0,1-12.38-.659l-.4-4.215h0a2.688,2.688,0,0,1-1.976-2.634C422.9,517.464,419.345,488.489,424.087,445.158Z" transform="translate(-351.913 -416.315)" fill="#363656"/>
              <path id="Path_110" data-name="Path 110" d="M373,422.9h15.541a10.2,10.2,0,0,1,10.141,10.01,898.467,898.467,0,0,0,2.107,90.613,4.33,4.33,0,0,1-.659,2.9,2.237,2.237,0,0,1-.79.79c-.132.132-.263.132-.527.263l-.132,3.688a19.409,19.409,0,0,1-12.38.79l-.79-3.951h0c-.922-.132-1.844-1.58-2.107-2.239a.792.792,0,0,1-.132-.527C375.107,477.426,373,422.9,373,422.9Z" transform="translate(-353.244 -414.603)" fill="#363656"/>
              <g id="Group_39" data-name="Group 39" transform="translate(74.15 103.651)">
                <path id="Path_111" data-name="Path 111" d="M419.963,496.09a43.6,43.6,0,0,1-5.532-.4c-.132,0-.132-.132-.132-.263s.132-.132.263-.132a36.3,36.3,0,0,0,10.931,0c.132,0,.263,0,.263.132s0,.263-.132.263A45.552,45.552,0,0,1,419.963,496.09Z" transform="translate(-414.3 -495.3)" fill="#fff"/>
              </g>
              <g id="Group_40" data-name="Group 40" transform="translate(32.926 112.739)">
                <path id="Path_112" data-name="Path 112" d="M384.976,503.254h-1.844c-.132,0-.132-.132-.132-.263s.132-.132.263-.132h0c8.166.132,11.195-.659,11.195-.659.132,0,.263,0,.263.132s0,.263-.132.263A74.92,74.92,0,0,1,384.976,503.254Z" transform="translate(-383 -502.2)" fill="#fff"/>
              </g>
              <g id="Group_41" data-name="Group 41" transform="translate(28.58 5.532)">
                <path id="Path_113" data-name="Path 113" d="M396.295,440.424c-.132,0-.132-.132-.263-.132V431.6a8.619,8.619,0,0,0-1.976-4.873c-1.844-2.239-5.795-5.136-14.224-5.532-.132,0-.132-.132-.132-.263s.132-.132.263-.132c8.561.4,12.644,3.293,14.487,5.663a9.088,9.088,0,0,1,1.976,5.136v8.693l-.132.132Z" transform="translate(-379.7 -420.8)" fill="#fff"/>
              </g>
            </g>
          </g>
        </g>
      </g>
    </g>
    <g id="Group_48" data-name="Group 48" transform="translate(535.112 387.04)">
      <g id="Group_47" data-name="Group 47" transform="translate(13.302 8.824)">
        <path id="Path_114" data-name="Path 114" d="M431.888,359.712v.132l-.132.132h-1.317a.129.129,0,0,1-.132-.132V348.649H424.38v11.195l-.132.132h-1.317c-.132,0-.132,0-.132-.132V347.859c0-.263,0-.4.132-.527a.484.484,0,0,1,.4-.132h8.034c.132,0,.4,0,.4.132.132.132.132.263.132.527Z" transform="translate(-422.8 -346.278)" fill="#4976ff"/>
        <path id="Path_115" data-name="Path 115" d="M440.4,354.31a10.233,10.233,0,0,1-.263,2.107,3,3,0,0,1-.79,1.58,4.543,4.543,0,0,1-1.185,1.054,3.645,3.645,0,0,1-1.712.4,1.671,1.671,0,0,1-.79-.132c-.263,0-.4-.132-.659-.263s-.4-.263-.659-.4-.4-.4-.658-.659v4.61l-.132.132h-1.317a.129.129,0,0,1-.132-.132V349.963a.129.129,0,0,1,.132-.132h1.317a.129.129,0,0,1,.132.132v1.317a3.49,3.49,0,0,1,.79-.659,2.757,2.757,0,0,1,.79-.527,1.872,1.872,0,0,1,.79-.263,1.671,1.671,0,0,1,.79-.132,3.646,3.646,0,0,1,1.712.4,4.009,4.009,0,0,1,1.054,1.054,4.4,4.4,0,0,1,.659,1.581C440.266,353.124,440.4,353.783,440.4,354.31Zm-1.712.263a4.48,4.48,0,0,0-.132-1.317,4.187,4.187,0,0,0-.4-1.185,1.349,1.349,0,0,0-.659-.79,1.419,1.419,0,0,0-1.054-.263,1.187,1.187,0,0,0-.659.132c-.263,0-.4.132-.658.263a2.312,2.312,0,0,0-.659.527l-.79.79v3.556A12.408,12.408,0,0,0,435,357.6a2.225,2.225,0,0,0,1.317.4,2.48,2.48,0,0,0,1.054-.263,3.494,3.494,0,0,0,.659-.79c.132-.4.263-.659.4-1.054A2.6,2.6,0,0,0,438.685,354.573Z" transform="translate(-419.852 -345.485)" fill="#4976ff"/>
        <path id="Path_116" data-name="Path 116" d="M448.234,358.888h0a.408.408,0,0,0-.132.263h-1.317c-.132,0-.132,0-.132-.132v-6.849a2.757,2.757,0,0,1-.527.79c-.132.263-.4.527-.527.79l-3.819,5.136-.132.132-.132.132h-1.185a.129.129,0,0,1-.132-.132v-9.088l.132-.132h.659a.987.987,0,0,1,.659.132c.132,0,.132.132.132.263v6.717a2.756,2.756,0,0,1,.527-.79,1.315,1.315,0,0,1,.527-.658l3.82-5.268.132-.132.132-.132h1.317a.129.129,0,0,1,.132.132v8.824Z" transform="translate(-417.283 -345.454)" fill="#4976ff"/>
        <path id="Path_117" data-name="Path 117" d="M455.944,356.385a3.9,3.9,0,0,1-.263,1.317,1.771,1.771,0,0,1-.79.922,3.945,3.945,0,0,1-1.317.527,8.1,8.1,0,0,1-1.844.132h-2.371a.684.684,0,0,1-.527-.263.986.986,0,0,1-.132-.658v-7.639a.987.987,0,0,1,.132-.659.684.684,0,0,1,.527-.263h2.5a6.955,6.955,0,0,1,1.712.132,2.481,2.481,0,0,1,1.185.527c.263.263.527.4.659.79a2.481,2.481,0,0,1,.263,1.054,2.225,2.225,0,0,1-.4,1.317,1.918,1.918,0,0,1-1.185.79,2.218,2.218,0,0,1,1.449.79A1.714,1.714,0,0,1,455.944,356.385Zm-1.976-4.215c0-.263,0-.4-.132-.527l-.4-.4a1.006,1.006,0,0,0-.658-.263c-.263,0-.659-.132-1.054-.132H450.28v2.766h1.712a2.809,2.809,0,0,0,1.58-.4A1.59,1.59,0,0,0,453.968,352.171Zm.263,4.215a.987.987,0,0,0-.132-.659,1.819,1.819,0,0,0-.4-.527,1.412,1.412,0,0,0-.79-.263,2.567,2.567,0,0,0-1.054-.132h-1.58v3.161h1.58a2.567,2.567,0,0,0,1.054-.132c.263-.132.527-.132.79-.4.263-.132.4-.263.4-.527A1.359,1.359,0,0,0,454.232,356.385Z" transform="translate(-414.589 -345.454)" fill="#4976ff"/>
        <path id="Path_118" data-name="Path 118" d="M463.671,354.241c0,.263,0,.4-.132.527a.484.484,0,0,1-.4.132h-5.927a4.06,4.06,0,0,0,.132,1.317,2.648,2.648,0,0,0,.527,1.054,2.363,2.363,0,0,0,.922.659,3.9,3.9,0,0,0,1.317.263,3.646,3.646,0,0,0,1.185-.132,8.384,8.384,0,0,0,.922-.263c.263-.132.4-.132.658-.263a.484.484,0,0,1,.4-.132h.132l.132.132v.922a.129.129,0,0,1-.132.132.46.46,0,0,1-.263.132c-.132.132-.4.132-.659.263s-.659.132-.922.263c-.4,0-.79.132-1.185.132a8.962,8.962,0,0,1-1.976-.263,5.437,5.437,0,0,1-1.449-.922,3,3,0,0,1-.79-1.58,8.561,8.561,0,0,1,0-4.215,4.555,4.555,0,0,1,.922-1.58,3.011,3.011,0,0,1,1.317-.922,4.055,4.055,0,0,1,1.712-.4,4.207,4.207,0,0,1,1.844.4,2.868,2.868,0,0,1,1.185.922,4.12,4.12,0,0,1,.659,1.317,6.61,6.61,0,0,1,.263,1.58v.527Zm-1.712-.527a2.734,2.734,0,0,0-.527-1.976,2.21,2.21,0,0,0-1.844-.79,2.481,2.481,0,0,0-1.054.263,3.494,3.494,0,0,0-.79.659,2.123,2.123,0,0,0-.527.922,2.9,2.9,0,0,0-.132,1.054h4.873Z" transform="translate(-412.306 -345.549)" fill="#4976ff"/>
        <path id="Path_119" data-name="Path 119" d="M470.075,350.458v.659a.129.129,0,0,1-.132.132h-2.766v7.771l-.132.132h-1.317a.129.129,0,0,1-.132-.132v-7.771h-2.766l-.132-.132V350.2c0-.132,0-.132.132-.263a.129.129,0,0,1,.132-.132h7.244l.132.132v.263C470.075,350.327,470.075,350.327,470.075,350.458Z" transform="translate(-410.15 -345.454)" fill="#4976ff"/>
        <path id="Path_120" data-name="Path 120" d="M472.476,359.144v.527c0,.132-.132.263-.132.4-.132.132-.132.132-.263.132h-1.054a.46.46,0,0,1-.263-.132.484.484,0,0,1-.132-.4v-1.054c0-.132.132-.263.132-.4.132-.132.132-.132.263-.132h1.054a.46.46,0,0,1,.263.132.484.484,0,0,1,.132.4Zm-.263-2.634v.132a.129.129,0,0,1-.132.132h-1.317a.129.129,0,0,1-.132-.132v-.132l-.132-9.483v-.263l.132-.132c.132,0,.132-.132.263-.132h.79c.132,0,.263,0,.263.132a.129.129,0,0,1,.132.132v.263Z" transform="translate(-407.677 -346.5)" fill="#4976ff"/>
      </g>
      <path id="Path_121" data-name="Path 121" d="M498.176,339.8h-80.6a4.948,4.948,0,0,0-4.873,4.873v35.165a1.843,1.843,0,0,0,3.029,1.449l10.141-8.561h72.306a4.948,4.948,0,0,0,4.873-4.873V344.8A4.892,4.892,0,0,0,498.176,339.8Z" transform="translate(-412.7 -339.8)" fill="#95b0ff" opacity="0.2"/>
    </g>
    <path id="Path_122" data-name="Path 122" d="M243.725,586.7a46.526,46.526,0,0,1,2.371,9.088c.263,2.239-.132,3.951-1.317,5s-3.293,1.844-6.19,2.107q-4.544.4-12.249.4c-5.4,0-9.614-.132-12.644-.263a37.5,37.5,0,0,1-6.98-.922,6.406,6.406,0,0,1-3.293-1.976,9.589,9.589,0,0,1-1.58-3.293l-13.829-41.487H110.572l-13.039,40.3a9.575,9.575,0,0,1-1.712,3.688,6.315,6.315,0,0,1-3.293,2.371,29.926,29.926,0,0,1-6.454,1.185c-2.766.263-6.454.263-11.063.263a87.651,87.651,0,0,1-11.458-.527c-2.766-.263-4.61-1.054-5.663-2.239s-1.449-2.9-1.054-5.137a45.719,45.719,0,0,1,2.371-8.956l63.482-182.542a13.373,13.373,0,0,1,2.239-4.346,7.764,7.764,0,0,1,4.083-2.5,34.468,34.468,0,0,1,7.771-1.054c3.293-.132,7.639-.263,13.039-.263,6.19,0,11.195.132,15.014.263a43.251,43.251,0,0,1,8.693,1.054A7.846,7.846,0,0,1,178,399.551a13.243,13.243,0,0,1,2.239,4.741ZM149.161,435.638h-.132l-28.843,87.583h58.082Z" transform="translate(9.54 64.931)" fill="#d7dff9"/>
    <path id="Path_123" data-name="Path 123" d="M220.825,586.7a46.525,46.525,0,0,1,2.371,9.088c.263,2.239-.132,3.951-1.317,5s-3.293,1.844-6.19,2.107q-4.544.4-12.249.4c-5.4,0-9.614-.132-12.644-.263a37.495,37.495,0,0,1-6.98-.922,6.406,6.406,0,0,1-3.293-1.976,12.8,12.8,0,0,1-1.58-3.293l-13.829-41.487H87.672l-13.039,40.3a9.575,9.575,0,0,1-1.712,3.688,6.315,6.315,0,0,1-3.293,2.371,29.925,29.925,0,0,1-6.454,1.185c-2.766.263-6.454.263-11.063.263a87.651,87.651,0,0,1-11.458-.527c-2.766-.263-4.61-1.054-5.663-2.239s-1.449-2.9-1.054-5.137a45.719,45.719,0,0,1,2.371-8.956L99.788,403.766a13.373,13.373,0,0,1,2.239-4.346,7.764,7.764,0,0,1,4.083-2.5,34.468,34.468,0,0,1,7.771-1.054c3.293-.132,7.639-.263,13.039-.263,6.19,0,11.195.132,15.014.263a43.25,43.25,0,0,1,8.693,1.054,7.846,7.846,0,0,1,4.478,2.634,13.243,13.243,0,0,1,2.239,4.741ZM126.261,435.638h-.132L97.286,523.222h58.082Z" transform="translate(2.279 64.931)" fill="#f0f3ff"/>
    <g id="Group_76" data-name="Group 76" transform="translate(60.976 328.535)">
      <g id="Group_49" data-name="Group 49" transform="translate(34.77 196.532)">
        <path id="Path_124" data-name="Path 124" d="M94,447.893v17.385a5.156,5.156,0,0,0,4.741,5.136h.132a5.245,5.245,0,0,0,5.663-5l.4-20.809Z" transform="translate(-74.376 -444.6)" fill="#e9eaec"/>
        <path id="Path_125" data-name="Path 125" d="M95.826,461.969c-2.5,8.166-16.726,14.883-16.726,14.883l.263,3.819c3.293,8.166,17.122,2.239,17.122,2.239l13.829-5.8a31.833,31.833,0,0,0-.659-15.278l-3.161.658S98.724,452.618,95.826,461.969Z" transform="translate(-79.1 -440.369)" fill="#5d5576"/>
      </g>
      <g id="Group_50" data-name="Group 50" transform="translate(0 180.99)">
        <path id="Path_126" data-name="Path 126" d="M70.831,432.8l-5.268,15.014a4.852,4.852,0,0,0,2.5,5.927H68.2a4.649,4.649,0,0,0,6.322-2.634L81.236,433.2Z" transform="translate(-48.705 -432.8)" fill="#e9eaec"/>
        <path id="Path_127" data-name="Path 127" d="M78.514,449.766l-3.029-1.712a7.815,7.815,0,0,0-7.244-6.453c-4.478,9.219-14.619,14.356-14.619,14.356L52.7,460.17s7.375,9.483,19.1,6.19A108.869,108.869,0,0,0,78.514,449.766Z" transform="translate(-52.7 -430.01)" fill="#5d5576"/>
      </g>
      <g id="Group_75" data-name="Group 75" transform="translate(20.282 0)">
        <g id="Group_73" data-name="Group 73" transform="translate(34.079)">
          <path id="Path_128" data-name="Path 128" d="M112.119,359.907a10.985,10.985,0,0,0-2.107-2.766,22.231,22.231,0,0,0-11.195-6.322,1.682,1.682,0,0,0-1.58.263,1,1,0,0,0-.263.527c-1.317,3.688-2.5,7.639-1.712,11.458a21.8,21.8,0,0,0,.79,2.766,22.436,22.436,0,0,0,2.5,4.61,9.043,9.043,0,0,0,4.215,2.9,8.333,8.333,0,0,0,9.088-3.424A9.757,9.757,0,0,0,112.119,359.907Z" transform="translate(-93.648 -277.826)" fill="#7598ff"/>
          <g id="Group_51" data-name="Group 51" transform="translate(6.528 47.811)">
            <path id="Path_129" data-name="Path 129" d="M105.344,379.252c-1.317.4-3.029.659-4.215,0a4.566,4.566,0,0,1-2.107-3.293c-1.317-6.585,12.117-39.511,16.2-42.541A7.924,7.924,0,0,1,122.6,332.1a5.044,5.044,0,0,1,3.161,4.083,13.687,13.687,0,0,1-.527,5.136c-3.029,11.722-8.429,22.521-13.829,32.531a14.243,14.243,0,0,1-1.449,2.371A10.472,10.472,0,0,1,105.344,379.252Z" transform="translate(-98.931 -331.68)" fill="#7598ff"/>
          </g>
          <g id="Group_61" data-name="Group 61" transform="translate(7.893)">
            <g id="Group_60" data-name="Group 60">
              <g id="Group_52" data-name="Group 52" transform="translate(4.971 44.242)">
                <path id="Path_130" data-name="Path 130" d="M150.837,396.31l-20.414-.4-23.312-.4,1.317-2.5.527-.922a24.412,24.412,0,0,0,2.371-5.795,27.013,27.013,0,0,0,.922-9.746l-.4-4.61v-.79c-7.507-2.634-8.429-8.692-8.034-12.644a10.167,10.167,0,0,1,.263-1.976,13.15,13.15,0,0,1,.527-1.844l6.19-14.883a12.568,12.568,0,0,1,10.536-7.771l13.961-2.766c11.195-2.239,12.775,8.693,12.775,8.693l-.132,23.575c0,6.058-.132,13.566-.132,18.965h0v2.371a27.241,27.241,0,0,0,1.712,9.219Z" transform="translate(-103.742 -328.97)" fill="#7598ff"/>
                <path id="Path_131" data-name="Path 131" d="M150.837,390.15l-20.414-.4-21.995-2.9.527-.922a24.412,24.412,0,0,0,2.371-5.795l25.682,4.215a.572.572,0,0,0,.4-1.054c-4.873-3.029-15.146-10.01-18.834-16.068a4.314,4.314,0,0,0-4.083-2.107l-2.634.132c-7.507-2.634-8.429-8.693-8.034-12.644a10.167,10.167,0,0,1,.263-1.976l.263-.132s5.532,9.219,30.029-.527l3.293-1.58,10.01,28.448a27.24,27.24,0,0,0,1.712,9.219Z" transform="translate(-103.742 -322.81)" fill="#4747ea"/>
                <path id="Path_132" data-name="Path 132" d="M132.327,329.3c-4.741,15.014-14.356,14.883-14.356,14.883-7.9,1.185-4.741-8.692-4.215-11.195a6.521,6.521,0,0,1,1.712-.527l16.858-3.161Z" transform="translate(-100.905 -328.866)" fill="#feb0aa"/>
              </g>
              <g id="Group_59" data-name="Group 59">
                <g id="Group_58" data-name="Group 58">
                  <path id="Path_133" data-name="Path 133" d="M100.8,320.719a13.526,13.526,0,0,0,8.166,8.166c4.083,1.581,10.01,1.317,12.644-2.107,3.819-4.873,1.976-10.8-1.054-15.409-1.712-2.766-7.244-11.327-12.644-9.614a5.736,5.736,0,0,0-2.107,1.317A16.348,16.348,0,0,0,100.8,320.719Z" transform="translate(-99.968 -293.428)" fill="#5d5576"/>
                  <path id="Path_134" data-name="Path 134" d="M141.148,312.339c1.58,5.795-.132,13.7-6.19,19.1a25,25,0,0,1-4.873,3.424c-3.688,2.107-7.771,3.424-11.327,3.161a12.316,12.316,0,0,1-7.771-3.951c-4.083-4.083-6.454-9.614-7.639-15.673a23.231,23.231,0,0,1-.132-10.01,9.492,9.492,0,0,1,3.161-5.663c1.844-1.58,4.215-1.976,6.454-2.371a65.988,65.988,0,0,1,8.561-1.054C131.139,299.169,138.909,304.305,141.148,312.339Z" transform="translate(-99.092 -294.135)" fill="#5d5576"/>
                  <path id="Path_135" data-name="Path 135" d="M120.289,299.226a7.3,7.3,0,0,1,7.112-3.819,10.211,10.211,0,0,1,6.849,3.951c1.712,2.239,2.766,5.663.79,8.034-1.712,1.976-4.873,2.371-7.375,1.844a10.6,10.6,0,0,1-7.507-6.454A5.417,5.417,0,0,1,120.289,299.226Z" transform="translate(-93.643 -295.378)" fill="#5d5576"/>
                  <path id="Path_136" data-name="Path 136" d="M115.874,328.554c.263,1.185,1.054,4.215,1.317,5.4a13.739,13.739,0,0,0,1.976,5,4.753,4.753,0,0,0,4.61,2.107,5.747,5.747,0,0,0,4.346-5.136,16.58,16.58,0,0,0-.527-3.556,88.176,88.176,0,0,1-1.844-10.273,4.206,4.206,0,0,0-.4-1.844c-.659-1.449-2.634-1.712-4.215-1.317a7.447,7.447,0,0,0-4.741,3.688A8.385,8.385,0,0,0,115.874,328.554Z" transform="translate(-95.023 -287.961)" fill="#feb0aa"/>
                  <path id="Path_137" data-name="Path 137" d="M127.164,313.406a3.733,3.733,0,0,1,3.161,3.293c.659,4.215-2.239,6.585-4.478,8.034-3.029,1.976-5-1.185-4.741-4.741C121.369,317.226,123.871,313.011,127.164,313.406Z" transform="translate(-93.274 -289.671)" fill="#fec1bc"/>
                  <path id="Path_138" data-name="Path 138" d="M126.209,311.243a26.834,26.834,0,0,1,2.9,11.458,17.506,17.506,0,0,1-3.688,11.063,14.02,14.02,0,0,1-11.853,4.873,7.471,7.471,0,0,1-3.424-1.054c-2.239-1.317-3.293-3.819-3.688-6.454a16.138,16.138,0,0,1-.263-2.5c-.132-1.58-.263-3.029-.527-4.61-.4-2.766-.79-5.663-1.185-8.429-.4-2.9-.659-6.19.659-8.824,1.976-3.556,6.585-5,10.536-4.215a13.347,13.347,0,0,1,7.9,4.478A14.15,14.15,0,0,1,126.209,311.243Z" transform="translate(-98.64 -293.171)" fill="#fec1bc"/>
                  <path id="Path_139" data-name="Path 139" d="M109.18,314.084c.263.659-.922,1.054-2.634,1.58-1.712.4-2.107.132-2.239-.263s.132-.922,1.844-1.317C107.731,313.557,109.048,313.689,109.18,314.084Z" transform="translate(-98.602 -289.558)" fill="#46506b"/>
                  <path id="Path_140" data-name="Path 140" d="M117.495,312.852c0,.527-1.712,1.185-3.293,1.317s-2.5-.132-2.5-.659.659-1.054,2.371-1.185C115.651,312.061,117.495,312.325,117.495,312.852Z" transform="translate(-96.249 -290.038)" fill="#46506b"/>
                  <ellipse id="Ellipse_7" data-name="Ellipse 7" cx="0.79" cy="1.054" rx="0.79" ry="1.054" transform="translate(18.118 28.144) rotate(-11.982)" fill="#46506b"/>
                  <path id="Path_141" data-name="Path 141" d="M108.157,319.127c.132.659-.132,1.185-.527,1.185-.4.132-.79-.4-.922-.922-.132-.659.132-1.185.527-1.185C107.5,318.073,108.025,318.6,108.157,319.127Z" transform="translate(-97.842 -288.148)" fill="#46506b"/>
                  <g id="Group_53" data-name="Group 53" transform="translate(10.794 29.267)">
                    <path id="Path_142" data-name="Path 142" d="M110.319,323.263a2.43,2.43,0,0,1-1.58-.659,1.808,1.808,0,0,1-.527-1.712,2.754,2.754,0,0,1,.527-.79l.132-.132a7.321,7.321,0,0,0,1.185-2.239c0-.132.132-.132.263-.132s.132.132.132.263a8.735,8.735,0,0,1-1.185,2.5l-.132.132c-.132.263-.4.4-.4.659a1.592,1.592,0,0,0,.4,1.317,1.81,1.81,0,0,0,1.58.527c.132,0,.263,0,.263.132s0,.263-.132.263A1,1,0,0,0,110.319,323.263Z" transform="translate(-108.164 -317.6)" fill="#f67a86"/>
                  </g>
                  <g id="Group_54" data-name="Group 54" transform="translate(31.256 27.423)">
                    <path id="Path_143" data-name="Path 143" d="M123.963,318.966c-.132,0-.132,0-.263-.132,0-.132,0-.263.132-.263a4.136,4.136,0,0,0,1.976-2.239c0-.132.132-.132.263-.132s.132.132.132.263a4.621,4.621,0,0,1-2.239,2.5Z" transform="translate(-123.7 -316.2)" fill="#f67a86"/>
                  </g>
                  <g id="Group_57" data-name="Group 57" transform="translate(14.509 34.338)">
                    <path id="Path_144" data-name="Path 144" d="M111.268,324.808c-.79-.527.263-1.712.79-2.107a7.342,7.342,0,0,1,2.5-1.185c.527-.132,1.844-.132,1.844.659,0,.659-.922,1.054-1.317,1.317-.659.4-1.317.659-1.976,1.054-.659.263-1.317.659-1.844.263Z" transform="translate(-110.984 -321.45)" fill="#feb0aa"/>
                    <g id="Group_55" data-name="Group 55" transform="translate(0.021 0.757)">
                      <path id="Path_145" data-name="Path 145" d="M111.263,324.89a.263.263,0,0,1,0-.527,6.322,6.322,0,0,0,4.873-2.239c.132-.132.263-.132.263,0,.132.132.132.263,0,.263A6.49,6.49,0,0,1,111.263,324.89Z" transform="translate(-111 -322.025)" fill="#f67a86"/>
                    </g>
                    <g id="Group_56" data-name="Group 56" transform="translate(3.182 4.148)">
                      <path id="Path_146" data-name="Path 146" d="M113.663,325.522c-.132,0-.132,0-.263-.132,0-.132,0-.263.132-.263l1.054-.527c.132,0,.263,0,.263.132s0,.263-.132.263l-1.054.527Z" transform="translate(-113.4 -324.6)" fill="#f67a86"/>
                    </g>
                  </g>
                </g>
                <path id="Path_147" data-name="Path 147" d="M114.865,312.823c.263-2.239-1.054-4.61-2.239-6.19a11.339,11.339,0,0,0-5.532-4.083c-1.844-.659-3.424.263-3.293,2.371,0,2.634,1.449,4.873,3.029,6.717a11.914,11.914,0,0,0,4.346,3.293,2.694,2.694,0,0,0,3.688-2.107Z" transform="translate(-98.755 -293.171)" fill="#5d5576"/>
                <path id="Path_148" data-name="Path 148" d="M103.68,314.764c.922-.527,1.712-2.371,2.239-3.951a18.231,18.231,0,0,0,.79-6.058c0-1.712-.659-2.766-1.58-2.107a10.02,10.02,0,0,0-2.371,4.741,18.727,18.727,0,0,0-.659,4.741c.132,1.58.659,3.029,1.58,2.634Z" transform="translate(-99.292 -293.136)" fill="#5d5576"/>
                <path id="Path_149" data-name="Path 149" d="M128.2,313.761a3.944,3.944,0,0,0,.527-1.317,3.138,3.138,0,0,0-.659-2.371,15.222,15.222,0,0,0-3.424-3.688c-4.083-3.424-9.746-4.741-15.014-4.478a5.568,5.568,0,0,0-3.556.922c-1.58,1.317-.263,3.029.922,4.083a33.136,33.136,0,0,0,12.775,7.507C121.748,314.815,126.621,316,128.2,313.761Z" transform="translate(-98.262 -293.319)" fill="#5d5576"/>
                <path id="Path_150" data-name="Path 150" d="M128.3,320.833a1.767,1.767,0,1,1-2.371-.79A1.735,1.735,0,0,1,128.3,320.833Z" transform="translate(-92.043 -287.615)" fill="#f2f2f2"/>
              </g>
            </g>
          </g>
          <g id="Group_62" data-name="Group 62" transform="translate(43.394 45.298)">
            <path id="Path_151" data-name="Path 151" d="M144.541,388.681a4.817,4.817,0,0,1-3.951,2.107,5.654,5.654,0,0,1-3.819-2.371c-5-6.322-11.458-48.072-9.483-53.34a7.92,7.92,0,0,1,6.058-5.268,5.989,5.989,0,0,1,5.268,2.634,20.855,20.855,0,0,1,2.5,5.795c3.951,13.961,5.136,28.185,5.927,41.487a27.462,27.462,0,0,1,0,3.293A10.1,10.1,0,0,1,144.541,388.681Z" transform="translate(-126.923 -329.772)" fill="#7598ff"/>
          </g>
          <path id="Path_152" data-name="Path 152" d="M147.76,372.932a4.9,4.9,0,0,1,1.976,3.424,5.52,5.52,0,0,1-.527,1.976,9.052,9.052,0,0,1-3.161,4.478,8.461,8.461,0,0,1-8.3.132,21.648,21.648,0,0,1-2.9-1.844,54.5,54.5,0,0,1-13.7-14.883,18.767,18.767,0,0,1-3.029-7.112,8.566,8.566,0,0,1,2.107-7.244,3.624,3.624,0,0,1,1.976-1.054,5.04,5.04,0,0,1,3.293.922,56.367,56.367,0,0,1,10.931,9.219C140.121,365.162,143.677,368.981,147.76,372.932Z" transform="translate(-86.353 -277.813)" fill="#7598ff"/>
          <path id="Path_153" data-name="Path 153" d="M105.343,362.233c0-.4-.132-.922-.132-1.317a10.874,10.874,0,0,0-1.844-3.951,5.28,5.28,0,0,0-1.976-1.844,3.751,3.751,0,0,0-2.634-.4,3.956,3.956,0,0,0-1.449.79c-.263.263-.659.4-.79.659a2.124,2.124,0,0,0-.4,1.185,3.759,3.759,0,0,0,0,1.712,8.332,8.332,0,0,0,2.107,4.478c1.185,1.317,2.766,2.5,4.478,2.371a1.188,1.188,0,0,0,.659-.132,2.873,2.873,0,0,0,.659-.527A5.13,5.13,0,0,0,105.343,362.233Z" transform="translate(-93.325 -276.596)" fill="#fff"/>
          <g id="Group_65" data-name="Group 65" transform="translate(0 59.296)">
            <path id="Path_154" data-name="Path 154" d="M97.1,344.784a.283.283,0,0,1,.263-.263c.4-.263.922.132,1.054.527a2.584,2.584,0,0,1-.132,1.976,17.193,17.193,0,0,1-3.161,5.927c-.132.132-.263.263-.4.263,0-.132,0-.132-.132-.263.132-1.317.4-2.634.527-3.951a3.1,3.1,0,0,1,.263-1.054,3.3,3.3,0,0,1,.527-.922A9.221,9.221,0,0,1,97.1,344.784Z" transform="translate(-93.777 -339.121)" fill="#feb0aa"/>
            <g id="Group_64" data-name="Group 64">
              <path id="Path_155" data-name="Path 155" d="M111.393,362.526l-10.141.79a1.427,1.427,0,0,1-1.449-1.054l-5.795-19.887c-.132-.659.132-1.185.79-1.185l10.141-.79a1.427,1.427,0,0,1,1.449,1.054l5.663,19.887A.726.726,0,0,1,111.393,362.526Z" transform="translate(-93.975 -340.4)" fill="#4976ff"/>
              <g id="Group_63" data-name="Group 63" transform="translate(1.017 3.424)">
                <path id="Path_156" data-name="Path 156" d="M94.932,355.866c0-1.317-.132-2.634-.132-3.951,0-1.054,0-2.239.79-2.5s1.712.527,2.371,1.449a36.574,36.574,0,0,1,3.819,7.507,12.168,12.168,0,0,1,1.054,3.556,3.647,3.647,0,0,1-.132,1.712.962.962,0,0,1-1.317.527,3.493,3.493,0,0,1-.79-.659c-1.712-1.976-3.424-3.951-5-6.058-.132-.263-.4-.527-.527-.79A1.67,1.67,0,0,1,94.932,355.866Z" transform="translate(-94.73 -340.983)" fill="#feb0aa"/>
                <path id="Path_157" data-name="Path 157" d="M95.9,348.795a.85.85,0,0,0,.79.79,1.5,1.5,0,0,0,1.054-.4,2.867,2.867,0,0,0,.659-1.054,10.16,10.16,0,0,0,.922-3.424v-1.054a.835.835,0,0,0-.79-.659c-.263,0-.4.263-.527.527-.79,1.58-1.449,3.161-2.107,4.741C96.032,348.532,95.9,348.663,95.9,348.795Z" transform="translate(-94.381 -343)" fill="#feb0aa"/>
                <path id="Path_158" data-name="Path 158" d="M97.056,346.363a1.872,1.872,0,0,1,.79-.263.724.724,0,0,1,.659.4.588.588,0,0,1,0,.659c-.263,1.712-.527,3.424-.922,5.136a4.718,4.718,0,0,1-.527,1.449,1.462,1.462,0,0,1-1.449.527,1.587,1.587,0,0,1-.659-.658,3.676,3.676,0,0,1,.132-2.634c.263-.79.4-1.449.659-2.239A6.907,6.907,0,0,1,97.056,346.363Z" transform="translate(-94.747 -342.017)" fill="#feb0aa"/>
                <path id="Path_159" data-name="Path 159" d="M105.241,355.417c.263-.263.659-.527.527-.922-.132-.263-.263-.4-.527-.4a.987.987,0,0,0-.659.132c-1.185.4-2.371.79-3.424,1.054-.132,0-.263.132-.4.132a1.006,1.006,0,0,0-.263.659c0,.263.132.4.132.659a.885.885,0,0,0,1.317.659A8.773,8.773,0,0,0,105.241,355.417Z" transform="translate(-92.923 -339.481)" fill="#fec1bc"/>
                <path id="Path_160" data-name="Path 160" d="M105.658,351.84c-.132-.263-.527-.132-.79-.132-1.449.132-2.9.4-4.346.659-.263.132-.659.132-.79.4a1.671,1.671,0,0,0-.132.79,1.315,1.315,0,0,0,.527.659.939.939,0,0,0,.79.4c.263,0,.4-.132.659-.132a15.57,15.57,0,0,0,3.688-1.58,1.028,1.028,0,0,0,.527-.527A.326.326,0,0,0,105.658,351.84Z" transform="translate(-93.208 -340.25)" fill="#fec1bc"/>
                <path id="Path_161" data-name="Path 161" d="M99.048,350.371a.724.724,0,0,1,.659-.4c1.449-.659,2.9-1.185,4.346-1.844a1.187,1.187,0,0,1,.659-.132c.263,0,.527.132.527.4s-.132.4-.263.659a12.617,12.617,0,0,1-3.293,2.634,2.393,2.393,0,0,1-2.634,0A1.2,1.2,0,0,1,99.048,350.371Z" transform="translate(-93.446 -341.415)" fill="#fec1bc"/>
                <path id="Path_162" data-name="Path 162" d="M101.781,355.032l-1.976.79a2.648,2.648,0,0,0-1.054.527,1.629,1.629,0,0,0-.527,1.844c0,.132.132.263.132.4.132.263.527.263.659.527.659.263,1.317-.132,1.976-.658a11.376,11.376,0,0,0,1.844-1.712c.263-.4.527-.79.4-1.185a.99.99,0,0,0-.922-.659C102.176,354.9,101.913,355.032,101.781,355.032Z" transform="translate(-93.677 -339.227)" fill="#feb0aa"/>
                <path id="Path_163" data-name="Path 163" d="M102.643,353.146a1.025,1.025,0,0,0-.4-.922,1.442,1.442,0,0,0-1.054,0,10.751,10.751,0,0,0-3.424,1.844,2.343,2.343,0,0,0-.922,1.054,1.2,1.2,0,0,0,0,1.317,1.439,1.439,0,0,0,1.58.527,5.111,5.111,0,0,0,1.449-.79,14,14,0,0,0,1.449-1.185A2.378,2.378,0,0,0,102.643,353.146Z" transform="translate(-94.144 -340.107)" fill="#feb0aa"/>
                <path id="Path_164" data-name="Path 164" d="M101.322,351.639a2.468,2.468,0,0,0,.79-.922,1.031,1.031,0,0,0-.132-1.054c-.132-.263-.527-.263-.79-.263a2.442,2.442,0,0,0-.922.263,13.631,13.631,0,0,0-2.634,1.449,5.747,5.747,0,0,0-2.107,2.239c-.4,1.054.263,1.844,1.58,1.449a8.222,8.222,0,0,0,2.107-1.317A16.093,16.093,0,0,0,101.322,351.639Z" transform="translate(-94.536 -340.971)" fill="#feb0aa"/>
              </g>
            </g>
          </g>
          <path id="Path_165" data-name="Path 165" d="M126.546,355.263a7.708,7.708,0,0,0-1.844-3.556,4.566,4.566,0,0,0-3.293-2.107,3.755,3.755,0,0,0-2.9,1.712,6.936,6.936,0,0,0-1.054,3.161,6.549,6.549,0,0,0-.132,2.766,4.738,4.738,0,0,0,2.9,3.029,5.521,5.521,0,0,0,2.107.527,4.678,4.678,0,0,0,3.556-1.976A6.618,6.618,0,0,0,126.546,355.263Z" transform="translate(-86.607 -278.188)" fill="#fff"/>
          <g id="Group_72" data-name="Group 72" transform="translate(15.285 62.325)">
            <g id="Group_71" data-name="Group 71">
              <path id="Path_166" data-name="Path 166" d="M120.612,349.169c.527.4,1.054.659,1.58,1.054a4.406,4.406,0,0,1,1.976,2.107,4.268,4.268,0,0,1,.263,2.9,6.615,6.615,0,0,1-.659,1.712,3.239,3.239,0,0,1-2.634,1.317,3.644,3.644,0,0,1-2.107-.659A13.627,13.627,0,0,1,116,355.491a1.679,1.679,0,0,1-.527-.79c-.132-.263-.132-.659-.263-1.054a7.244,7.244,0,0,1,.263-2.9,4.46,4.46,0,0,1,1.58-2.371C118.242,347.589,119.427,348.379,120.612,349.169Z" transform="translate(-102.543 -341.003)" fill="#fec1bc"/>
              <path id="Path_167" data-name="Path 167" d="M119.339,357c1.054.132,2.239.263,3.029-.4a2.124,2.124,0,0,0,.79-1.712,5.021,5.021,0,0,0-.132-1.976,28.467,28.467,0,0,0-1.844-5.663,2.363,2.363,0,0,0-.659-.922,2.122,2.122,0,0,0-.922-.527,32.934,32.934,0,0,0-5-1.976c-.132,0-.4-.132-.527-.132-.527,0-.79.658-.922,1.317a16.085,16.085,0,0,0,.132,3.556,21.341,21.341,0,0,1-.132,2.9.684.684,0,0,1-.263.527h-.4a.659.659,0,0,0-.79.659c1.449.79,2.239,2.5,3.688,3.424A11.618,11.618,0,0,0,119.339,357Z" transform="translate(-103.64 -342.383)" fill="#feb0aa"/>
              <path id="Path_168" data-name="Path 168" d="M109.585,347.716a1.872,1.872,0,0,0-.79.263.724.724,0,0,0-.4.659c0,.4.527.527.922.79a37.1,37.1,0,0,1,5,2.766,3.943,3.943,0,0,0,1.317.527,1.338,1.338,0,0,0,1.317-.659,1.67,1.67,0,0,0,.132-.79,3,3,0,0,0-.79-1.58,5.441,5.441,0,0,0-1.449-.922A9.072,9.072,0,0,0,109.585,347.716Z" transform="translate(-104.686 -341.131)" fill="#feb0aa"/>
              <g id="Group_70" data-name="Group 70">
                <g id="Group_66" data-name="Group 66">
                  <path id="Path_169" data-name="Path 169" d="M113.669,345.6a2.369,2.369,0,0,0,1.185-.79,1.28,1.28,0,0,0,.132-1.185c-.263-.527-1.054-.659-1.712-.79a22.322,22.322,0,0,0-3.029-.132c-.659,0-1.449.132-1.712.659a1.049,1.049,0,0,0,.263,1.317,5.112,5.112,0,0,0,2.5.79c.4,0,.79.132,1.185.132A1.781,1.781,0,0,0,113.669,345.6Z" transform="translate(-104.688 -342.7)" fill="#fec1bc"/>
                  <path id="Path_170" data-name="Path 170" d="M111.533,343.582a.875.875,0,0,0-.527-.658,1.442,1.442,0,0,0-1.054,0,4.618,4.618,0,0,0-1.054.658c-.79.527-1.712.922-2.634,1.449-.4.263-.79.659-.659.922s.4.263.659.263a5,5,0,0,0,2.766-.263,4.736,4.736,0,0,0,1.58-1.054A2.041,2.041,0,0,0,111.533,343.582Z" transform="translate(-105.58 -342.66)" fill="#fec1bc"/>
                </g>
                <g id="Group_67" data-name="Group 67" transform="translate(8.01 0.177)">
                  <path id="Path_171" data-name="Path 171" d="M115,344.238a1.383,1.383,0,0,0-.659-1.185,1.057,1.057,0,0,0-1.054-.132c-.527.263-.79,1.054-1.054,1.712a24.311,24.311,0,0,0-.527,3.029,2.179,2.179,0,0,0,.4,1.844c.4.4.922.132,1.317-.263a7.178,7.178,0,0,0,1.054-2.5,3.846,3.846,0,0,0,.263-1.185A2.166,2.166,0,0,0,115,344.238Z" transform="translate(-111.662 -342.834)" fill="#fec1bc"/>
                  <path id="Path_172" data-name="Path 172" d="M112.622,346.2a.952.952,0,0,0-.79.527,2.567,2.567,0,0,0-.132,1.054,2.647,2.647,0,0,0,.527,1.054c.4.922.659,1.844,1.054,2.766.132.4.527.79.79.79.263-.132.263-.4.4-.659a4.939,4.939,0,0,0,0-2.766,6.811,6.811,0,0,0-.79-1.712C113.544,346.6,113.149,346.2,112.622,346.2Z" transform="translate(-111.651 -341.767)" fill="#fec1bc"/>
                </g>
                <g id="Group_68" data-name="Group 68" transform="translate(10.299 0.967)">
                  <path id="Path_173" data-name="Path 173" d="M116.561,344.443a1.392,1.392,0,0,0-.79-.922,1.28,1.28,0,0,0-1.185.132,3.094,3.094,0,0,0-.922,1.844,19.73,19.73,0,0,0-.263,2.9c0,.527,0,1.317.527,1.449a1.252,1.252,0,0,0,1.317-.527,5.215,5.215,0,0,0,.922-2.5c.132-.4.132-.79.263-1.185A1.86,1.86,0,0,0,116.561,344.443Z" transform="translate(-113.4 -343.434)" fill="#fec1bc"/>
                  <path id="Path_174" data-name="Path 174" d="M114.314,346.708a1.936,1.936,0,0,0-.79.658,1.443,1.443,0,0,0,0,1.054c.132.263.4.527.527.79a18.452,18.452,0,0,1,1.317,2.107c.263.263.527.659.922.4.263-.132.263-.4.4-.659a5.379,5.379,0,0,0-.132-2.5,5.156,5.156,0,0,0-1.054-1.317A1.063,1.063,0,0,0,114.314,346.708Z" transform="translate(-113.392 -342.407)" fill="#fec1bc"/>
                </g>
                <g id="Group_69" data-name="Group 69" transform="translate(12.406 2.021)">
                  <path id="Path_175" data-name="Path 175" d="M117.9,345.111a1.187,1.187,0,0,0-.79-.79.994.994,0,0,0-1.054.132,2.612,2.612,0,0,0-.79,1.712A16.213,16.213,0,0,0,115,348.8c0,.527.132,1.185.527,1.317a1.146,1.146,0,0,0,1.185-.527,4.591,4.591,0,0,0,.79-2.239c.132-.4.132-.659.263-1.054A1.86,1.86,0,0,0,117.9,345.111Z" transform="translate(-115 -344.234)" fill="#fec1bc"/>
                  <path id="Path_176" data-name="Path 176" d="M115.627,347.213a1.315,1.315,0,0,0-.527.659.968.968,0,0,0,.263.79,1.315,1.315,0,0,0,.659.527,15.78,15.78,0,0,1,1.58,1.449c.263.132.659.4.79.132a.987.987,0,0,0,.132-.659,3.549,3.549,0,0,0-.659-1.976,2.048,2.048,0,0,0-1.054-.79A1.859,1.859,0,0,0,115.627,347.213Z" transform="translate(-114.968 -343.307)" fill="#fec1bc"/>
                </g>
              </g>
              <path id="Path_177" data-name="Path 177" d="M117.761,347.071a2.692,2.692,0,0,1-1.185-.659,1.263,1.263,0,0,1-.263-1.185l.4-.4a1.67,1.67,0,0,1,.79-.132,3.846,3.846,0,0,1,1.185.263,1.771,1.771,0,0,1,.922.79.84.84,0,0,1,0,.79c-.132.263-.263.263-.527.4-.132.132-.263.132-.527.132C118.288,347.2,118.025,347.071,117.761,347.071Z" transform="translate(-102.194 -342.066)" fill="#fec1bc"/>
              <path id="Path_178" data-name="Path 178" d="M122.11,354.263a14.356,14.356,0,0,0-.4-3.424,4.679,4.679,0,0,0-.527-1.185c-.527-1.185-1.185-2.371-1.712-3.688a2.755,2.755,0,0,0-.527-.79.814.814,0,0,0-.922-.263.882.882,0,0,0-.527.922,3.1,3.1,0,0,0,.263,1.054,20.7,20.7,0,0,1,.527,3.029,7.162,7.162,0,0,1,0,2.371,4.679,4.679,0,0,1-.263,1.317,2.781,2.781,0,0,0,.922,2.634,1.858,1.858,0,0,0,2.634-.132C122.11,355.712,122.11,354.922,122.11,354.263Z" transform="translate(-101.801 -342.015)" fill="#fec1bc"/>
            </g>
          </g>
        </g>
        <path id="Path_179" data-name="Path 179" d="M162.137,382.329l-60.452-9.483a17.868,17.868,0,0,0-12.775,2.9l-.132.132a16.281,16.281,0,0,0-6.322,10.141c-2.634,14.487-9.088,41.75-14.356,69.672l10.536,3.556s22.521-34.638,23.97-62.955C102.607,396.29,176.1,434.879,162.137,382.329Z" transform="translate(-68.1 -270.878)" fill="#363656"/>
        <path id="Path_180" data-name="Path 180" d="M129.8,378.4s13.566,13.17,11.063,1.581Z" transform="translate(-48.538 -269.057)" fill="#95b0ff"/>
        <path id="Path_181" data-name="Path 181" d="M106.669,386.664c-2.107-2.634-6.322-2.371-8.956-.4s-3.951,5.268-4.741,8.429c-1.844,7.375-1.58,15.146-1.449,22.785.659,19.756,1.185,39.38,1.844,59.135H106.01c3.029-18.57,5.927-37.667,7.375-56.369C114.307,408.4,114.044,396.015,106.669,386.664Z" transform="translate(-60.704 -267.048)" fill="#363656"/>
        <g id="Group_74" data-name="Group 74" transform="translate(30.687 117.977)">
          <path id="Path_182" data-name="Path 182" d="M91.532,408.853h0a.129.129,0,0,1-.132-.132,53.636,53.636,0,0,1,1.58-13.961c1.054-4.083,2.5-6.849,4.741-8.561,2.634-1.976,7.244-1.58,10.4,1.054.132,0,.132.132,0,.263,0,.132-.132.132-.263,0-3.029-2.5-7.375-3.029-10.01-1.054-2.107,1.581-3.688,4.346-4.61,8.3a68.083,68.083,0,0,0-1.58,13.961A.129.129,0,0,1,91.532,408.853Z" transform="translate(-91.4 -384.955)" fill="#fff"/>
        </g>
      </g>
    </g>
    <g id="Group_78" data-name="Group 78" transform="translate(26.596 325.402)">
      <g id="Group_77" data-name="Group 77" transform="translate(16.995 10.931)">
        <path id="Path_183" data-name="Path 183" d="M50.036,316.951v.132l-.132.132c-.132,0-.132,0-.263.132H48.588c-.132,0-.263,0-.263-.132-.132,0-.132,0-.132-.132v-6.849H41.344v6.849l-.132.132c-.132,0-.132,0-.263.132H39.9c-.132,0-.263,0-.263-.132-.132,0-.132,0-.132-.132V302.463l.132-.132c.132,0,.132,0,.263-.132h1.054c.132,0,.263,0,.263.132.132,0,.132,0,.132.132v6.19h6.717v-6.19l.132-.132c.132,0,.132,0,.263-.132H49.51c.132,0,.263,0,.263.132.132,0,.132,0,.132.132v14.488Z" transform="translate(-39.5 -301.015)" fill="#4976ff"/>
        <path id="Path_184" data-name="Path 184" d="M59.478,310.368a1.006,1.006,0,0,1-.263.659c-.132.132-.263.132-.527.132H51.839a6.413,6.413,0,0,0,.132,1.58,2.482,2.482,0,0,0,.527,1.185,3.17,3.17,0,0,0,1.054.79,4.913,4.913,0,0,0,1.58.263,4.059,4.059,0,0,0,1.317-.132c.4-.132.79-.132,1.054-.263s.527-.132.659-.263a.484.484,0,0,1,.4-.132h.132l.132.132V315.5a.129.129,0,0,1-.132.132,1.63,1.63,0,0,1-.4.263c-.263.132-.527.132-.79.263-.4.132-.659.132-1.185.263a4.938,4.938,0,0,1-1.449.132,5.676,5.676,0,0,1-2.239-.4,4.737,4.737,0,0,1-1.58-1.054A7.467,7.467,0,0,1,50,313.4a7.128,7.128,0,0,1-.4-2.5,6.38,6.38,0,0,1,.4-2.371,5.168,5.168,0,0,1,1.054-1.844,3.6,3.6,0,0,1,1.58-1.185,5.459,5.459,0,0,1,2.107-.4,5.015,5.015,0,0,1,2.107.4,5.848,5.848,0,0,1,1.449,1.054,3,3,0,0,1,.79,1.58,8.961,8.961,0,0,1,.263,1.976v.263Zm-1.844-.527a3.911,3.911,0,0,0-.659-2.371,2.865,2.865,0,0,0-2.107-.922,2.63,2.63,0,0,0-1.185.263,2.362,2.362,0,0,0-.922.659,2.647,2.647,0,0,0-.527,1.054,3.845,3.845,0,0,0-.263,1.185h5.663Z" transform="translate(-36.298 -300.095)" fill="#4976ff"/>
        <path id="Path_185" data-name="Path 185" d="M61.244,317.236v.132l-.132.132c-.132,0-.132,0-.263.132H59.8c-.132,0-.263,0-.263-.132a.129.129,0,0,1-.132-.132v-15.8l.132-.132c.132,0,.132,0,.263-.132h1.054c.132,0,.263,0,.263.132a.129.129,0,0,1,.132.132v15.673Z" transform="translate(-33.191 -301.3)" fill="#4976ff"/>
        <path id="Path_186" data-name="Path 186" d="M65.344,317.236v.132l-.132.132c-.132,0-.132,0-.263.132H63.9c-.132,0-.263,0-.263-.132a.129.129,0,0,1-.132-.132v-15.8l.132-.132c.132,0,.132,0,.263-.132h1.054c.132,0,.263,0,.263.132a.129.129,0,0,1,.132.132v15.673Z" transform="translate(-31.891 -301.3)" fill="#4976ff"/>
        <path id="Path_187" data-name="Path 187" d="M77.536,310.732a7.457,7.457,0,0,1-.4,2.371,5.168,5.168,0,0,1-1.054,1.844,4.011,4.011,0,0,1-1.712,1.185,6.38,6.38,0,0,1-2.371.4,5.676,5.676,0,0,1-2.239-.4,4.736,4.736,0,0,1-1.58-1.054,4.337,4.337,0,0,1-.922-1.712A6.54,6.54,0,0,1,67,310.995a7.457,7.457,0,0,1,.4-2.371,5.167,5.167,0,0,1,1.054-1.844,4.011,4.011,0,0,1,1.712-1.185,6.38,6.38,0,0,1,2.371-.4,5.677,5.677,0,0,1,2.239.4,4.737,4.737,0,0,1,1.58,1.054,4.337,4.337,0,0,1,.922,1.712A11.814,11.814,0,0,1,77.536,310.732Zm-1.976.132a6.412,6.412,0,0,0-.132-1.58,3.944,3.944,0,0,0-.527-1.317,3.078,3.078,0,0,0-.922-.922,2.809,2.809,0,0,0-1.58-.4,4.735,4.735,0,0,0-1.449.263,7.3,7.3,0,0,0-1.054.79,2.34,2.34,0,0,0-.527,1.317,6.958,6.958,0,0,0-.132,1.712,6.413,6.413,0,0,0,.132,1.58,3.944,3.944,0,0,0,.527,1.317,2.44,2.44,0,0,0,1.054.922,2.809,2.809,0,0,0,1.58.4,4.734,4.734,0,0,0,1.449-.263,7.306,7.306,0,0,0,1.054-.79,3.944,3.944,0,0,0,.527-1.317C75.561,312.049,75.561,311.522,75.561,310.863Z" transform="translate(-30.781 -300.064)" fill="#4976ff"/>
        <path id="Path_188" data-name="Path 188" d="M80.539,316.351v.658c0,.132-.132.263-.132.4-.132.132-.263.132-.4.263H78.827c-.132,0-.263-.132-.4-.263a.484.484,0,0,1-.132-.4v-1.317c0-.132.132-.263.132-.4.132-.132.263-.132.4-.263h1.185c.132,0,.263.132.4.263a.484.484,0,0,1,.132.4Zm-.4-3.161v.132l-.132.132c-.132,0-.132,0-.263.132h-.79c-.132,0-.132,0-.263-.132a.129.129,0,0,1-.132-.132v-.132l-.132-11.063v-.263a.129.129,0,0,1,.132-.132c.132,0,.132-.132.263-.132H79.88c.132,0,.263,0,.263.132a.129.129,0,0,1,.132.132v.263Z" transform="translate(-27.199 -301.205)" fill="#4976ff"/>
      </g>
      <path id="Path_189" data-name="Path 189" d="M32.264,293h75.862a5.621,5.621,0,0,1,5.663,5.663v40.96a2.192,2.192,0,0,1-3.556,1.712L98.38,331.326H32.264a5.621,5.621,0,0,1-5.663-5.663v-27A5.62,5.62,0,0,1,32.264,293Z" transform="translate(-26.596 -293)" fill="#95b0ff" opacity="0.2"/>
    </g>
  </g>
</svg>
