<?xml version="1.0" encoding="utf-8"?>
<!-- Generator: Adobe Illustrator 25.2.1, SVG Export Plug-In . SVG Version: 6.00 Build 0)  -->
<svg version="1.1" id="Layer_1" xmlns="http://www.w3.org/2000/svg" xmlns:xlink="http://www.w3.org/1999/xlink" x="0px" y="0px"
	 viewBox="0 0 531 539.7" style="enable-background:new 0 0 531 539.7;" xml:space="preserve">
<style type="text/css">
	.st0{opacity:0.2;}
	.st1{fill:#95B0FF;}
	.st2{opacity:0.4;}
	.st3{opacity:0;}
	.st4{fill:#FFFFFF;}
	.st5{opacity:4.800000e-02;}
	.st6{fill:#FCFCFE;}
	.st7{opacity:9.500000e-02;}
	.st8{fill:#F8F9FD;}
	.st9{opacity:0.143;}
	.st10{fill:#F5F6FC;}
	.st11{opacity:0.191;}
	.st12{fill:#F1F3FB;}
	.st13{opacity:0.238;}
	.st14{fill:#EEF0FA;}
	.st15{opacity:0.286;}
	.st16{fill:#EAEDF9;}
	.st17{opacity:0.333;}
	.st18{fill:#E7EAF8;}
	.st19{opacity:0.381;}
	.st20{fill:#E4E7F7;}
	.st21{opacity:0.429;}
	.st22{fill:#E0E4F6;}
	.st23{opacity:0.476;}
	.st24{fill:#DDE1F5;}
	.st25{opacity:0.524;}
	.st26{fill:#D9DEF5;}
	.st27{opacity:0.571;}
	.st28{fill:#D6DBF4;}
	.st29{opacity:0.619;}
	.st30{fill:#D2D8F3;}
	.st31{opacity:0.667;}
	.st32{fill:#CFD5F2;}
	.st33{opacity:0.714;}
	.st34{fill:#CCD2F1;}
	.st35{opacity:0.762;}
	.st36{fill:#C8CFF0;}
	.st37{opacity:0.809;}
	.st38{fill:#C5CCEF;}
	.st39{opacity:0.857;}
	.st40{fill:#C1C9EE;}
	.st41{opacity:0.905;}
	.st42{fill:#BEC6ED;}
	.st43{opacity:0.952;}
	.st44{fill:#BAC3EC;}
	.st45{fill:#B7C0EB;}
	.st46{fill:#E4E7FB;}
	.st47{fill:#EFF1FE;}
	.st48{fill:url(#Path_279_2_);}
	.st49{fill:url(#Path_280_2_);}
	.st50{opacity:3.200000e-02;}
	.st51{fill:#FDFDFE;}
	.st52{opacity:6.500000e-02;}
	.st53{fill:#FAFBFE;}
	.st54{opacity:9.700000e-02;}
	.st55{opacity:0.129;}
	.st56{fill:#F6F7FC;}
	.st57{opacity:0.161;}
	.st58{fill:#F3F5FC;}
	.st59{opacity:0.193;}
	.st60{opacity:0.226;}
	.st61{fill:#EFF1FA;}
	.st62{opacity:0.258;}
	.st63{fill:#ECEFFA;}
	.st64{opacity:0.29;}
	.st65{opacity:0.323;}
	.st66{fill:#E8EBF9;}
	.st67{opacity:0.355;}
	.st68{fill:#E5E9F8;}
	.st69{opacity:0.387;}
	.st70{fill:#E3E7F7;}
	.st71{opacity:0.419;}
	.st72{fill:#E1E5F7;}
	.st73{opacity:0.452;}
	.st74{fill:#DEE3F6;}
	.st75{opacity:0.484;}
	.st76{fill:#DCE1F5;}
	.st77{opacity:0.516;}
	.st78{fill:#DADEF5;}
	.st79{opacity:0.548;}
	.st80{fill:#D8DCF4;}
	.st81{opacity:0.581;}
	.st82{fill:#D5DAF3;}
	.st83{opacity:0.613;}
	.st84{fill:#D3D8F3;}
	.st85{opacity:0.645;}
	.st86{fill:#D1D6F2;}
	.st87{opacity:0.677;}
	.st88{fill:#CED4F1;}
	.st89{opacity:0.71;}
	.st90{opacity:0.742;}
	.st91{fill:#CAD0F0;}
	.st92{opacity:0.774;}
	.st93{fill:#C7CEF0;}
	.st94{opacity:0.807;}
	.st95{opacity:0.839;}
	.st96{fill:#C3CAEE;}
	.st97{opacity:0.871;}
	.st98{fill:#C0C8EE;}
	.st99{opacity:0.903;}
	.st100{opacity:0.936;}
	.st101{fill:#BCC4EC;}
	.st102{opacity:0.968;}
	.st103{fill:#B9C2EC;}
	.st104{fill:url(#Path_317_2_);}
	.st105{fill:url(#Path_318_2_);}
	.st106{fill:url(#Path_319_2_);}
	.st107{fill:url(#Path_320_2_);}
	.st108{fill:url(#Path_321_2_);}
	.st109{fill:url(#Path_358_2_);}
	.st110{fill:url(#Path_359_2_);}
	.st111{fill:url(#Path_360_2_);}
	.st112{fill:url(#Path_361_2_);}
	.st113{fill:url(#Path_362_2_);}
	.st114{fill:url(#Path_399_2_);}
	.st115{fill:url(#Path_400_2_);}
	.st116{fill:url(#Path_401_2_);}
	.st117{fill:url(#Path_402_2_);}
	.st118{fill:url(#Path_403_2_);}
	.st119{fill:url(#Path_440_2_);}
	.st120{fill:url(#Path_441_2_);}
	.st121{fill:#5FEFC0;}
	.st122{fill:#A28EF4;}
	.st123{fill:url(#Path_450_2_);}
	.st124{fill:url(#Path_451_2_);}
	.st125{fill:url(#Path_452_2_);}
	.st126{fill:url(#Path_453_2_);}
	.st127{fill:url(#Path_454_2_);}
	.st128{fill:url(#Path_455_2_);}
	.st129{fill:url(#Path_492_2_);}
	.st130{fill:url(#Path_493_2_);}
	.st131{fill:url(#Path_494_2_);}
	.st132{fill:url(#Path_495_2_);}
	.st133{fill:url(#Path_496_2_);}
	.st134{fill:url(#Path_533_2_);}
	.st135{fill:url(#Path_534_2_);}
	.st136{fill:url(#Path_543_2_);}
	.st137{fill:url(#Path_544_2_);}
	.st138{fill:url(#Path_545_2_);}
	.st139{fill:url(#Path_546_2_);}
	.st140{fill:url(#Path_547_2_);}
	.st141{fill:url(#Path_548_2_);}
	.st142{fill:#EEF5F9;}
	.st143{fill:#F0F3FF;}
	.st144{fill:#ACBAEA;}
	.st145{fill:#F8F8F8;}
	.st146{fill:#95C4DF;}
	.st147{fill:#5D5576;}
	.st148{fill:#EEEEEE;}
	.st149{fill:#FFCDA8;}
	.st150{fill:#D9A782;}
	.st151{fill:#363656;}
	.st152{fill:#003C5F;}
	.st153{fill:#5E96FE;}
	.st154{fill:#447AD3;}
	.st155{fill:#563317;}
	.st156{fill:#634024;}
	.st157{fill:#88A1E2;}
	.st158{fill:none;stroke:#007CFF;stroke-width:1.673;stroke-linecap:round;stroke-miterlimit:10;}
	.st159{fill:none;stroke:#007CFF;stroke-width:1.667;stroke-linecap:round;stroke-miterlimit:10;}
	.st160{opacity:0.5;fill:#CCCCF0;}
	.st161{fill:#CCCCF0;}
	.st162{fill:url(#SVGID_1_);}
	.st163{fill:#DDDDF0;}
	.st164{fill:#F2F2FA;}
	.st165{fill:url(#SVGID_2_);}
	.st166{fill:url(#SVGID_3_);}
	.st167{fill:url(#SVGID_4_);}
	.st168{opacity:0.5;}
	.st169{fill:#F3E3FF;}
	.st170{fill:#84B0F7;}
	.st171{fill:url(#SVGID_5_);}
	.st172{fill:url(#SVGID_6_);}
	.st173{fill:url(#SVGID_7_);}
	.st174{fill:url(#SVGID_8_);}
	.st175{fill:url(#SVGID_9_);}
	.st176{fill:url(#SVGID_10_);}
	.st177{fill:url(#SVGID_11_);}
	.st178{fill:#EDEEEF;}
	.st179{fill:#5C5482;}
	.st180{fill:#212225;}
	.st181{fill:#251F69;}
	.st182{fill:url(#SVGID_12_);}
	.st183{fill:url(#SVGID_13_);}
	.st184{fill:url(#SVGID_14_);}
	.st185{fill:url(#SVGID_15_);}
	.st186{fill:#1D1D29;}
	.st187{fill:url(#SVGID_16_);}
	.st188{fill:#79AAF7;}
	.st189{fill:url(#SVGID_17_);}
	.st190{fill:url(#SVGID_18_);}
	.st191{fill:#DDE4FC;}
	.st192{opacity:0.5;fill:#F9F9FC;}
	.st193{opacity:0.3;fill:#FFFFFF;}
	.st194{fill:url(#SVGID_19_);}
	.st195{filter:url(#Adobe_OpacityMaskFilter);}
	.st196{filter:url(#Adobe_OpacityMaskFilter_1_);}
	.st197{mask:url(#SVGID_20_);fill:url(#SVGID_21_);}
	.st198{fill:url(#SVGID_22_);}
	.st199{fill:#E694BE;}
	.st200{fill:url(#SVGID_23_);}
	.st201{fill:#131036;}
	.st202{fill:#FFACC8;}
	.st203{fill:url(#SVGID_24_);}
	.st204{fill:url(#SVGID_25_);}
	.st205{fill:url(#SVGID_26_);}
	.st206{fill:url(#SVGID_27_);}
	.st207{fill:#322A8D;}
	.st208{fill:#ECB4BF;}
	.st209{fill:#F8E6BA;}
	.st210{fill:#00BCFD;}
	.st211{fill:#00A8FD;}
	.st212{fill:#6B4D2F;}
	.st213{fill:url(#SVGID_28_);}
	.st214{fill:#EAEFFC;}
	.st215{fill:url(#SVGID_29_);}
	.st216{fill:#FEA26F;}
	.st217{fill:url(#SVGID_30_);}
	.st218{fill:url(#SVGID_31_);}
	.st219{fill:url(#SVGID_32_);}
	.st220{fill:url(#SVGID_33_);}
	.st221{fill:url(#SVGID_34_);}
	.st222{fill:url(#SVGID_35_);}
	.st223{fill:url(#SVGID_36_);}
	.st224{fill:url(#SVGID_37_);}
	.st225{fill:url(#SVGID_38_);}
	.st226{fill:url(#SVGID_39_);}
	.st227{fill:url(#SVGID_40_);}
	.st228{fill:url(#SVGID_41_);}
</style>
<ellipse class="st160" cx="369.3" cy="404.9" rx="28.7" ry="16.4"/>
<g>
	<path class="st161" d="M194.4,465.7l-88.5,50.6c-2.7,1.6-7.1,1.6-9.8,0L7.6,465.7c-2.7-1.6-2.7-4.1,0-5.6l88.5-50.6
		c2.7-1.6,7.1-1.6,9.8,0l88.5,50.6C197.1,461.6,197.1,464.2,194.4,465.7z"/>
	
		<linearGradient id="SVGID_1_" gradientUnits="userSpaceOnUse" x1="523.4551" y1="450.5287" x2="714.3323" y2="450.5287" gradientTransform="matrix(1 0 0 1 -518.0521 0)">
		<stop  offset="0" style="stop-color:#F7F7FF"/>
		<stop  offset="1" style="stop-color:#EEEEF6"/>
	</linearGradient>
	<path class="st162" d="M194.2,453.3L105.8,504c-2.7,1.6-7.1,1.6-9.8,0L7.4,453.3c-2.7-1.6-2.7-4.1,0-5.6l88.5-50.6
		c2.7-1.6,7.1-1.6,9.8,0l88.5,50.6C197,449.3,197,451.8,194.2,453.3z"/>
	<path class="st4" d="M96.5,504L8,453.3c-2.7-1.6-2.7-4.1,0-5.6l88.5-50.6c1.3-0.7,3-1.1,4.6-1.1c-1.9,0-3.8,0.3-5.2,1.1L7.4,447.7
		c-2.7,1.6-2.7,4.1,0,5.6L95.9,504c1.4,0.8,3.3,1.2,5.2,1.1C99.4,505.1,97.8,504.7,96.5,504z"/>
	<g>
		<path class="st163" d="M88.4,477.6c-0.1,0-0.2,0-0.2-0.1l-34.1-19.5c-0.2-0.1-0.3-0.4-0.2-0.6l12.5-26.6c0.1-0.1,0.2-0.3,0.4-0.3
			l46.5-7.1c0.1,0,0.2,0,0.3,0.1l34.1,19.5c0.2,0.1,0.3,0.4,0.2,0.6l-12.5,26.6c-0.1,0.1-0.2,0.3-0.4,0.3L88.4,477.6
			C88.4,477.6,88.4,477.6,88.4,477.6z M55,457.5l33.5,19.2l46.1-7.1l12.2-26l-33.5-19.2l-46.1,7.1L55,457.5z"/>
	</g>
	<g>
		<path class="st163" d="M100.8,469.1c-0.1,0-0.2,0-0.2-0.1L68.9,451c-0.2-0.1-0.2-0.3-0.2-0.4c0-0.2,0.1-0.3,0.2-0.4l31.7-18.1
			c0.2-0.1,0.3-0.1,0.5,0l31.7,18.1c0.2,0.1,0.2,0.3,0.2,0.4c0,0.2-0.1,0.3-0.2,0.4l-31.7,18.1C101,469.1,100.9,469.1,100.8,469.1z
			 M70.1,450.5l30.7,17.6l30.7-17.6L100.8,433L70.1,450.5z"/>
	</g>
	<g>
		<ellipse class="st164" cx="85" cy="441.5" rx="2.2" ry="1.3"/>
		<path class="st163" d="M85,443.2c-0.7,0-1.3-0.2-1.8-0.4c-0.6-0.3-0.9-0.8-0.9-1.3c0-0.5,0.3-1,0.9-1.3c1-0.6,2.6-0.6,3.6,0
			c0.6,0.3,0.9,0.8,0.9,1.3c0,0.5-0.3,1-0.9,1.3C86.3,443,85.7,443.2,85,443.2z M85,440.6c-0.5,0-1,0.1-1.3,0.3
			c-0.3,0.2-0.4,0.3-0.4,0.5c0,0.2,0.2,0.4,0.4,0.5c0.7,0.4,2,0.4,2.7,0c0.3-0.2,0.4-0.3,0.4-0.5c0-0.2-0.2-0.4-0.4-0.5
			C86,440.8,85.5,440.6,85,440.6z"/>
	</g>
	<g>
		<path class="st164" d="M118.3,458.7c0.9,0.5,0.9,1.3,0,1.8c-0.9,0.5-2.3,0.5-3.2,0c-0.9-0.5-0.9-1.3,0-1.8
			C116,458.2,117.4,458.2,118.3,458.7z"/>
		<path class="st163" d="M116.7,461.3c-0.7,0-1.3-0.2-1.8-0.4c-0.6-0.3-0.9-0.8-0.9-1.3c0-0.5,0.3-1,0.9-1.3c1-0.6,2.6-0.6,3.6,0
			c0.6,0.3,0.9,0.8,0.9,1.3c0,0.5-0.3,1-0.9,1.3C118,461.2,117.4,461.3,116.7,461.3z M116.7,458.8c-0.5,0-1,0.1-1.3,0.3
			c-0.3,0.2-0.4,0.3-0.4,0.5c0,0.2,0.2,0.4,0.4,0.5c0.7,0.4,2,0.4,2.7,0c0.3-0.2,0.4-0.3,0.4-0.5c0-0.2-0.2-0.4-0.4-0.5
			C117.7,458.9,117.2,458.8,116.7,458.8z"/>
	</g>
	<g>
		<ellipse class="st164" cx="69.2" cy="450.5" rx="2.2" ry="1.3"/>
		<path class="st163" d="M69.2,452.3c-0.7,0-1.3-0.2-1.8-0.4c-0.6-0.3-0.9-0.8-0.9-1.3c0-0.5,0.3-1,0.9-1.3c1-0.6,2.6-0.6,3.6,0
			c0.6,0.3,0.9,0.8,0.9,1.3c0,0.5-0.3,1-0.9,1.3C70.5,452.1,69.8,452.3,69.2,452.3z M69.2,449.7c-0.5,0-1,0.1-1.3,0.3
			c-0.3,0.2-0.4,0.3-0.4,0.5c0,0.2,0.2,0.4,0.4,0.5c0.7,0.4,2,0.4,2.7,0c0.3-0.2,0.4-0.3,0.4-0.5c0-0.2-0.2-0.4-0.4-0.5
			C70.2,449.8,69.7,449.7,69.2,449.7z"/>
	</g>
	<g>
		<path class="st164" d="M102.4,431.5c0.9,0.5,0.9,1.3,0,1.8c-0.9,0.5-2.3,0.5-3.2,0c-0.9-0.5-0.9-1.3,0-1.8
			C100.1,431,101.5,431,102.4,431.5z"/>
		<path class="st163" d="M100.8,434.1c-0.7,0-1.3-0.2-1.8-0.4c-0.6-0.3-0.9-0.8-0.9-1.3c0-0.5,0.3-1,0.9-1.3c1-0.6,2.6-0.6,3.6,0
			c0.6,0.3,0.9,0.8,0.9,1.3c0,0.5-0.3,1-0.9,1.3C102.2,434,101.5,434.1,100.8,434.1z M100.8,431.6c-0.5,0-1,0.1-1.3,0.3
			c-0.3,0.2-0.4,0.3-0.4,0.5c0,0.2,0.2,0.4,0.4,0.5c0.7,0.4,2,0.4,2.7,0c0.3-0.2,0.4-0.3,0.4-0.5c0-0.2-0.2-0.4-0.4-0.5
			C101.8,431.7,101.4,431.6,100.8,431.6z"/>
	</g>
	<g>
		<ellipse class="st164" cx="116.7" cy="441.5" rx="2.2" ry="1.3"/>
		<path class="st163" d="M116.7,443.2c-0.7,0-1.3-0.2-1.8-0.4c-0.6-0.3-0.9-0.8-0.9-1.3c0-0.5,0.3-1,0.9-1.3c1-0.6,2.6-0.6,3.6,0
			c0.6,0.3,0.9,0.8,0.9,1.3c0,0.5-0.3,1-0.9,1.3C118,443,117.4,443.2,116.7,443.2z M116.7,440.6c-0.5,0-1,0.1-1.3,0.3
			c-0.3,0.2-0.4,0.3-0.4,0.5c0,0.2,0.2,0.4,0.4,0.5c0.7,0.4,2,0.4,2.7,0c0.3-0.2,0.4-0.3,0.4-0.5c0-0.2-0.2-0.4-0.4-0.5
			C117.7,440.8,117.2,440.6,116.7,440.6z"/>
	</g>
	<g>
		<ellipse class="st164" cx="132.5" cy="450.5" rx="2.2" ry="1.3"/>
		<path class="st163" d="M132.5,452.3c-0.7,0-1.3-0.2-1.8-0.4c-0.6-0.3-0.9-0.8-0.9-1.3c0-0.5,0.3-1,0.9-1.3c1-0.6,2.6-0.6,3.6,0
			c0.6,0.3,0.9,0.8,0.9,1.3c0,0.5-0.3,1-0.9,1.3C133.8,452.1,133.2,452.3,132.5,452.3z M132.5,449.7c-0.5,0-1,0.1-1.3,0.3
			c-0.3,0.2-0.4,0.3-0.4,0.5c0,0.2,0.2,0.4,0.4,0.5c0.7,0.4,2,0.4,2.7,0c0.3-0.2,0.4-0.3,0.4-0.5c0-0.2-0.2-0.4-0.4-0.5
			C133.5,449.8,133,449.7,132.5,449.7z"/>
	</g>
	<g>
		<path class="st164" d="M86.6,458.7c0.9,0.5,0.9,1.3,0,1.8c-0.9,0.5-2.3,0.5-3.2,0c-0.9-0.5-0.9-1.3,0-1.8
			C84.3,458.2,85.7,458.2,86.6,458.7z"/>
		<path class="st163" d="M85,461.3c-0.7,0-1.3-0.2-1.8-0.4c-0.6-0.3-0.9-0.8-0.9-1.3c0-0.5,0.3-1,0.9-1.3c1-0.6,2.6-0.6,3.6,0
			c0.6,0.3,0.9,0.8,0.9,1.3c0,0.5-0.3,1-0.9,1.3C86.3,461.2,85.7,461.3,85,461.3z M85,458.8c-0.5,0-1,0.1-1.3,0.3
			c-0.3,0.2-0.4,0.3-0.4,0.5c0,0.2,0.2,0.4,0.4,0.5c0.7,0.4,2,0.4,2.7,0c0.3-0.2,0.4-0.3,0.4-0.5c0-0.2-0.2-0.4-0.4-0.5
			C86,458.9,85.5,458.8,85,458.8z"/>
	</g>
	<g>
		<path class="st164" d="M102.4,449.6c0.9,0.5,0.9,1.3,0,1.8c-0.9,0.5-2.3,0.5-3.2,0c-0.9-0.5-0.9-1.3,0-1.8
			C100.1,449.1,101.5,449.1,102.4,449.6z"/>
		<path class="st163" d="M100.8,452.3c-0.7,0-1.3-0.2-1.8-0.4c-0.6-0.3-0.9-0.8-0.9-1.3c0-0.5,0.3-1,0.9-1.3c1-0.6,2.6-0.6,3.6,0
			c0.6,0.3,0.9,0.8,0.9,1.3c0,0.5-0.3,1-0.9,1.3C102.2,452.1,101.5,452.3,100.8,452.3z M100.8,449.7c-0.5,0-1,0.1-1.3,0.3
			c-0.3,0.2-0.4,0.3-0.4,0.5c0,0.2,0.2,0.4,0.4,0.5c0.7,0.4,2,0.4,2.7,0c0.3-0.2,0.4-0.3,0.4-0.5c0-0.2-0.2-0.4-0.4-0.5
			C101.8,449.8,101.4,449.7,100.8,449.7z"/>
	</g>
	<g>
		<path class="st164" d="M102.4,467.8c0.9,0.5,0.9,1.3,0,1.8c-0.9,0.5-2.3,0.5-3.2,0c-0.9-0.5-0.9-1.3,0-1.8
			C100.1,467.3,101.5,467.3,102.4,467.8z"/>
		<path class="st163" d="M100.8,470.4c-0.7,0-1.3-0.2-1.8-0.4c-0.6-0.3-0.9-0.8-0.9-1.3c0-0.5,0.3-1,0.9-1.3c1-0.6,2.6-0.6,3.6,0
			c0.6,0.3,0.9,0.8,0.9,1.3c0,0.5-0.3,1-0.9,1.3C102.2,470.2,101.5,470.4,100.8,470.4z M100.8,467.8c-0.5,0-1,0.1-1.3,0.3
			c-0.3,0.2-0.4,0.3-0.4,0.5c0,0.2,0.2,0.4,0.4,0.5c0.7,0.4,2,0.4,2.7,0c0.3-0.2,0.4-0.3,0.4-0.5c0-0.2-0.2-0.4-0.4-0.5
			C101.8,467.9,101.4,467.8,100.8,467.8z"/>
	</g>
	<g>
		<path class="st164" d="M69.3,432.5c-1.4,0.8-3.7,0.8-5.1,0c-1.4-0.8-1.4-2.1,0-2.9c1.4-0.8,3.7-0.8,5.1,0
			C70.8,430.4,70.8,431.7,69.3,432.5z"/>
		<path class="st163" d="M66.8,433.6c-1.1,0-2.1-0.2-2.8-0.7c-0.8-0.5-1.3-1.2-1.3-1.9c0-0.7,0.5-1.4,1.3-1.9c1.5-0.9,4.1-0.9,5.6,0
			c0.8,0.5,1.3,1.2,1.3,1.9c0,0.7-0.5,1.4-1.3,1.9C68.8,433.4,67.8,433.6,66.8,433.6z M66.8,429.5c-0.9,0-1.7,0.2-2.3,0.5
			c-0.5,0.3-0.8,0.7-0.8,1c0,0.4,0.3,0.7,0.8,1c1.2,0.7,3.4,0.7,4.6,0c0.5-0.3,0.8-0.7,0.8-1c0-0.4-0.3-0.7-0.8-1
			C68.5,429.7,67.7,429.5,66.8,429.5z"/>
	</g>
	<g>
		<path class="st164" d="M56.5,458.9c-1.4,0.8-3.7,0.8-5.1,0c-1.4-0.8-1.4-2.1,0-2.9c1.4-0.8,3.7-0.8,5.1,0
			C57.9,456.8,57.9,458.1,56.5,458.9z"/>
		<path class="st163" d="M53.9,460c-1.1,0-2.1-0.2-2.8-0.7c-0.8-0.5-1.3-1.2-1.3-1.9c0-0.7,0.5-1.4,1.3-1.9c1.5-0.9,4.1-0.9,5.6,0
			c0.8,0.5,1.3,1.2,1.3,1.9c0,0.7-0.5,1.4-1.3,1.9C56,459.8,55,460,53.9,460z M53.9,455.9c-0.9,0-1.7,0.2-2.3,0.5
			c-0.5,0.3-0.8,0.7-0.8,1c0,0.4,0.3,0.7,0.8,1c1.2,0.7,3.4,0.7,4.6,0c0.5-0.3,0.8-0.7,0.8-1c0-0.4-0.3-0.7-0.8-1
			C55.6,456.1,54.8,455.9,53.9,455.9z"/>
	</g>
	<g>
		<path class="st164" d="M115.5,425.2c-1.4,0.8-3.7,0.8-5.1,0c-1.4-0.8-1.4-2.1,0-2.9c1.4-0.8,3.7-0.8,5.1,0
			C116.9,423,116.9,424.3,115.5,425.2z"/>
		<path class="st163" d="M112.9,426.3c-1.1,0-2.1-0.2-2.8-0.7c-0.8-0.5-1.3-1.2-1.3-1.9c0-0.7,0.5-1.4,1.3-1.9
			c1.5-0.9,4.1-0.9,5.6,0c0.8,0.5,1.3,1.2,1.3,1.9c0,0.7-0.5,1.4-1.3,1.9C115,426,114,426.3,112.9,426.3z M112.9,422.1
			c-0.9,0-1.7,0.2-2.3,0.5c-0.5,0.3-0.8,0.7-0.8,1c0,0.4,0.3,0.7,0.8,1c1.2,0.7,3.4,0.7,4.6,0c0.5-0.3,0.8-0.7,0.8-1
			c0-0.4-0.3-0.7-0.8-1C114.6,422.3,113.8,422.1,112.9,422.1z"/>
	</g>
	<g>
		<path class="st164" d="M91.3,478.8c-1.4,0.8-3.7,0.8-5.1,0c-1.4-0.8-1.4-2.1,0-2.9c1.4-0.8,3.7-0.8,5.1,0
			C92.7,476.7,92.7,478,91.3,478.8z"/>
		<path class="st163" d="M88.8,479.9c-1.1,0-2.1-0.2-2.8-0.7c-0.8-0.5-1.3-1.2-1.3-1.9c0-0.7,0.5-1.4,1.3-1.9c1.5-0.9,4.1-0.9,5.6,0
			c0.8,0.5,1.3,1.2,1.3,1.9c0,0.7-0.5,1.4-1.3,1.9C90.8,479.7,89.8,479.9,88.8,479.9z M88.8,475.8c-0.9,0-1.7,0.2-2.3,0.5
			c-0.5,0.3-0.8,0.7-0.8,1c0,0.4,0.3,0.7,0.8,1c1.2,0.7,3.4,0.7,4.6,0c0.5-0.3,0.8-0.7,0.8-1c0-0.4-0.3-0.7-0.8-1
			C90.5,476,89.6,475.8,88.8,475.8z"/>
	</g>
	<g>
		<path class="st164" d="M137.5,471.5c-1.4,0.8-3.7,0.8-5.1,0c-1.4-0.8-1.4-2.1,0-2.9c1.4-0.8,3.7-0.8,5.1,0
			C138.9,469.4,138.9,470.7,137.5,471.5z"/>
		<path class="st163" d="M134.9,472.6c-1.1,0-2.1-0.2-2.8-0.7c-0.8-0.5-1.3-1.2-1.3-1.9c0-0.7,0.5-1.4,1.3-1.9
			c1.5-0.9,4.1-0.9,5.6,0c0.8,0.5,1.3,1.2,1.3,1.9c0,0.7-0.5,1.4-1.3,1.9C137,472.3,136,472.6,134.9,472.6z M134.9,468.4
			c-0.9,0-1.7,0.2-2.3,0.5c-0.5,0.3-0.8,0.7-0.8,1c0,0.4,0.3,0.7,0.8,1c1.2,0.7,3.4,0.7,4.6,0c0.5-0.3,0.8-0.7,0.8-1
			c0-0.4-0.3-0.7-0.8-1C136.6,468.6,135.8,468.4,134.9,468.4z"/>
	</g>
	<g>
		<path class="st164" d="M149.8,444.8c-1.4,0.8-3.7,0.8-5.1,0c-1.4-0.8-1.4-2.1,0-2.9c1.4-0.8,3.7-0.8,5.1,0
			C151.3,442.7,151.3,444,149.8,444.8z"/>
		<path class="st163" d="M147.3,445.9c-1.1,0-2.1-0.2-2.8-0.7c-0.8-0.5-1.3-1.2-1.3-1.9c0-0.7,0.5-1.4,1.3-1.9
			c1.5-0.9,4.1-0.9,5.6,0c0.8,0.5,1.3,1.2,1.3,1.9c0,0.7-0.5,1.4-1.3,1.9C149.3,445.7,148.3,445.9,147.3,445.9z M147.3,441.8
			c-0.9,0-1.7,0.2-2.3,0.5c-0.5,0.3-0.8,0.7-0.8,1c0,0.4,0.3,0.7,0.8,1c1.2,0.7,3.4,0.7,4.6,0c0.5-0.3,0.8-0.7,0.8-1
			c0-0.4-0.3-0.7-0.8-1C149,442,148.2,441.8,147.3,441.8z"/>
	</g>
	
		<linearGradient id="SVGID_2_" gradientUnits="userSpaceOnUse" x1="582.4697" y1="409.746" x2="657.9263" y2="506.7615" gradientTransform="matrix(1 0 0 1 -518.0521 0)">
		<stop  offset="0" style="stop-color:#FFFFFF"/>
		<stop  offset="1" style="stop-color:#D3D3E8"/>
	</linearGradient>
	<path class="st165" d="M194.2,453.3L105.8,504c-2.7,1.6-7.1,1.6-9.8,0L7.4,453.3c-1.4-0.8-2-1.8-2-2.8v11.2c0,1,0.7,2,2,2.8
		l88.5,50.6c2.7,1.6,7.1,1.6,9.8,0l88.5-50.6c1.4-0.8,2-1.8,2-2.8v-11.2C196.3,451.5,195.6,452.6,194.2,453.3z"/>
	<path class="st153" d="M6.6,459.3l88.5,50.6c1.6,0.9,3.6,1.4,5.8,1.4c2.2,0,4.2-0.5,5.8-1.4l88.5-50.6c0.4-0.3,0.8-0.5,1.2-0.8
		v-1.7c-0.4,0.6-1,1.1-1.8,1.5L106,508.9c-1.4,0.8-3.2,1.2-5.2,1.2c-2,0-3.8-0.4-5.2-1.2L7.2,458.3c-0.8-0.4-1.4-1-1.8-1.5v1.7
		C5.7,458.8,6.1,459,6.6,459.3z"/>
</g>
<g>
	<path class="st161" d="M521.4,362.5L433,413.1c-2.7,1.6-7.1,1.6-9.8,0l-88.5-50.6c-2.7-1.6-2.7-4.1,0-5.6l88.5-50.6
		c2.7-1.6,7.1-1.6,9.8,0l88.5,50.6C524.2,358.4,524.2,360.9,521.4,362.5z"/>
	
		<linearGradient id="SVGID_3_" gradientUnits="userSpaceOnUse" x1="850.6491" y1="346.3131" x2="1041.5264" y2="346.3131" gradientTransform="matrix(1 0 0 1 -518.0521 0)">
		<stop  offset="0" style="stop-color:#F7F7FF"/>
		<stop  offset="1" style="stop-color:#EEEEF6"/>
	</linearGradient>
	<path class="st166" d="M521.4,349.1L433,399.7c-2.7,1.6-7.1,1.6-9.8,0l-88.5-50.6c-2.7-1.6-2.7-4.1,0-5.6l88.5-50.6
		c2.7-1.6,7.1-1.6,9.8,0l88.5,50.6C524.2,345.1,524.2,347.6,521.4,349.1z"/>
	
		<linearGradient id="SVGID_4_" gradientUnits="userSpaceOnUse" x1="909.6638" y1="305.5305" x2="985.1203" y2="402.5459" gradientTransform="matrix(1 0 0 1 -518.0521 0)">
		<stop  offset="0" style="stop-color:#FFFFFF"/>
		<stop  offset="1" style="stop-color:#D3D3E8"/>
	</linearGradient>
	<path class="st167" d="M521.4,349.1L433,399.7c-2.7,1.6-7.1,1.6-9.8,0l-88.5-50.6c-1.4-0.8-2-1.8-2-2.8v11.2c0,1,0.7,2,2,2.8
		l88.5,50.6c2.7,1.6,7.1,1.6,9.8,0l88.5-50.6c1.4-0.8,2-1.8,2-2.8v-11.2C523.5,347.3,522.8,348.3,521.4,349.1z"/>
	<path class="st153" d="M333.8,355.1l88.5,50.6c1.6,0.9,3.6,1.4,5.8,1.4c2.2,0,4.2-0.5,5.8-1.4l88.5-50.6c0.4-0.3,0.8-0.5,1.2-0.8
		v-1.7c-0.4,0.6-1,1.1-1.8,1.5l-88.5,50.6c-1.4,0.8-3.2,1.2-5.2,1.2s-3.8-0.4-5.2-1.2l-88.5-50.6c-0.8-0.4-1.4-1-1.8-1.5v1.7
		C332.9,354.6,333.3,354.8,333.8,355.1z"/>
	<g>
		<path class="st163" d="M437.5,374.8h-19.7c-0.1,0-0.2,0-0.2-0.1l-39.1-22.3c-0.2-0.1-0.2-0.3-0.2-0.4v-11.2c0-0.2,0.1-0.3,0.2-0.4
			l39.1-22.3c0.1,0,0.2-0.1,0.2-0.1h19.7c0.1,0,0.2,0,0.2,0.1l39.1,22.3c0.2,0.1,0.2,0.3,0.2,0.4v11.2c0,0.2-0.1,0.3-0.2,0.4
			l-39.1,22.3C437.7,374.8,437.6,374.8,437.5,374.8z M418,373.8h19.4l38.7-22.1V341l-38.7-22.1H418L379.3,341v10.7L418,373.8z"/>
	</g>
	<g>
		<path class="st163" d="M431.3,361.6c-0.1,0-0.3-0.1-0.4-0.2l-1.6-1.9c-1.6,0.1-3.2,0-4.8-0.1l-1.6,1.9c-0.1,0.1-0.3,0.2-0.5,0.2
			l-4.7-0.7c-0.3,0-0.4-0.3-0.4-0.5l0.2-2c-1.3-0.4-2.6-0.8-3.7-1.3l-3.3,1.2c-0.1,0.1-0.3,0-0.4,0l-3.4-2c-0.1-0.1-0.2-0.2-0.2-0.4
			c0-0.2,0-0.3,0.2-0.4l2-1.7c-0.7-0.6-1.4-1.3-1.9-2l-3.9,0.1c-0.2,0-0.4-0.1-0.5-0.3l-1.3-2.7c-0.1-0.1-0.1-0.3,0-0.4
			c0.1-0.1,0.2-0.2,0.3-0.3l3.5-1c-0.1-0.7-0.1-1.4,0.1-2.1l-3.3-0.9c-0.1,0-0.3-0.1-0.3-0.3c-0.1-0.1-0.1-0.3,0-0.4l1.3-2.7
			c0.1-0.2,0.3-0.3,0.5-0.3l4,0.1c0.6-0.7,1.2-1.4,2-2l-1.8-1.5c-0.1-0.1-0.2-0.3-0.2-0.4c0-0.2,0.1-0.3,0.2-0.4l3.4-2
			c0.1-0.1,0.3-0.1,0.4,0l3.2,1.2c1.3-0.5,2.6-1,4-1.3l-0.2-1.7c0-0.3,0.2-0.5,0.4-0.5l4.7-0.7c0.2,0,0.3,0,0.5,0.2l1.5,1.8
			c1.7-0.1,3.4-0.1,5,0l1.4-1.6c0.1-0.1,0.3-0.2,0.5-0.2l4.7,0.7c0.3,0,0.4,0.3,0.4,0.5l-0.2,1.6c1.5,0.4,3,0.9,4.3,1.5l2.6-1
			c0.1-0.1,0.3,0,0.4,0l3.4,2c0.1,0.1,0.2,0.2,0.2,0.4c0,0.2,0,0.3-0.2,0.4l-1.5,1.3c0.9,0.8,1.7,1.6,2.3,2.4l3-0.1
			c0.2,0,0.4,0.1,0.5,0.3l1.3,2.7c0.1,0.1,0.1,0.3,0,0.4c-0.1,0.1-0.2,0.2-0.3,0.3l-2.7,0.8c0.1,0.8,0.1,1.7-0.1,2.6l2.6,0.7
			c0.1,0,0.3,0.1,0.3,0.3c0.1,0.1,0.1,0.3,0,0.4L452,352c-0.1,0.2-0.3,0.3-0.5,0.3l-3.3-0.1c-0.7,0.8-1.5,1.6-2.4,2.3l1.5,1.3
			c0.1,0.1,0.2,0.3,0.2,0.4c0,0.2-0.1,0.3-0.2,0.4l-3.4,2c-0.1,0.1-0.3,0.1-0.4,0l-3-1.1c-1.3,0.5-2.8,1-4.2,1.3l0.2,1.7
			c0,0.3-0.2,0.5-0.4,0.5L431.3,361.6C431.3,361.6,431.3,361.6,431.3,361.6z M429.5,358.6c0.1,0,0.3,0.1,0.4,0.2l1.6,1.8l3.9-0.6
			l-0.2-1.7c0-0.2,0.1-0.5,0.4-0.5c1.6-0.4,3.2-0.8,4.7-1.4c0.1,0,0.2,0,0.4,0l2.9,1.1l2.6-1.5l-1.4-1.2c-0.1-0.1-0.2-0.2-0.2-0.4
			c0-0.1,0.1-0.3,0.2-0.4c1.1-0.8,2.1-1.7,2.8-2.6c0.1-0.1,0.2-0.2,0.4-0.2l3.2,0.1l0.9-1.9l-2.5-0.7c-0.3-0.1-0.4-0.3-0.3-0.6
			c0.3-1,0.3-2.1,0.1-3.1c0-0.2,0.1-0.5,0.4-0.6l2.5-0.7l-0.9-1.9l-3,0.1c-0.2,0-0.3-0.1-0.4-0.2c-0.7-0.9-1.6-1.9-2.7-2.7
			c-0.1-0.1-0.2-0.2-0.2-0.4s0.1-0.3,0.2-0.4l1.4-1.2l-2.6-1.5l-2.6,1c-0.1,0-0.3,0-0.4,0c-1.5-0.7-3.1-1.2-4.8-1.6
			c-0.2-0.1-0.4-0.3-0.4-0.5l0.2-1.6l-3.9-0.6l-1.4,1.6c-0.1,0.1-0.2,0.2-0.4,0.2c-1.8-0.1-3.6-0.1-5.4,0c-0.2,0-0.3-0.1-0.4-0.2
			l-1.5-1.7l-3.9,0.6l0.2,1.7c0,0.2-0.1,0.5-0.4,0.5c-1.6,0.4-3.1,0.9-4.5,1.5c-0.1,0-0.3,0.1-0.4,0l-3.1-1.2l-2.6,1.5l1.7,1.5
			c0.1,0.1,0.2,0.2,0.2,0.4c0,0.1-0.1,0.3-0.2,0.4c-1,0.8-1.8,1.6-2.5,2.4c-0.1,0.1-0.2,0.2-0.4,0.2l-3.9-0.1l-0.9,1.9l3.2,0.9
			c0.2,0.1,0.4,0.3,0.3,0.6c-0.2,0.9-0.2,1.8-0.1,2.6c0,0.2-0.1,0.5-0.4,0.6l-3.3,0.9l0.9,1.9l3.9-0.1c0.2,0,0.3,0.1,0.4,0.2
			c0.6,0.8,1.4,1.6,2.3,2.4c0.1,0.1,0.2,0.2,0.2,0.4c0,0.1-0.1,0.3-0.2,0.4l-1.9,1.6l2.6,1.5l3.2-1.2c0.1,0,0.3,0,0.4,0
			c1.3,0.6,2.7,1.1,4.2,1.5c0.2,0.1,0.4,0.3,0.4,0.5l-0.2,1.9l3.9,0.6l1.6-1.8c0.1-0.1,0.3-0.2,0.4-0.2
			C426.1,358.6,427.8,358.7,429.5,358.6C429.5,358.6,429.5,358.6,429.5,358.6z M427.7,354.3c-3.6,0-7-0.8-9.5-2.3
			c-2.6-1.5-4.1-3.5-4.1-5.7c0-2.2,1.5-4.2,4.1-5.7c2.6-1.5,5.9-2.3,9.5-2.3c3.6,0,7,0.8,9.5,2.3c2.6,1.5,4.1,3.5,4.1,5.7
			c0,2.2-1.5,4.2-4.1,5.7C434.7,353.5,431.3,354.3,427.7,354.3z M427.7,339.3c-3.4,0-6.6,0.8-9,2.1c-2.3,1.3-3.6,3.1-3.6,4.9
			c0,1.8,1.3,3.6,3.6,4.9c2.4,1.4,5.6,2.1,9,2.1c3.4,0,6.6-0.8,9-2.1c2.3-1.3,3.6-3.1,3.6-4.9c0-1.8-1.3-3.6-3.6-4.9
			C434.3,340.1,431.1,339.3,427.7,339.3z"/>
	</g>
	<g>
		<path class="st163" d="M405.3,346.7c0,0-37.6-0.7-37.6-0.7c-0.1,0-0.2,0-0.2-0.1l-9-5.1c-0.2-0.1-0.3-0.4-0.2-0.7
			c0.1-0.2,0.4-0.3,0.7-0.2l8.9,5.1l37.5,0.7c0.3,0,0.5,0.2,0.5,0.5C405.8,346.5,405.6,346.7,405.3,346.7z"/>
	</g>
	<g>
		<path class="st163" d="M428,334c-0.3,0-0.5-0.2-0.5-0.5l-1.6-21.2l-8.7-5c-0.2-0.1-0.3-0.4-0.2-0.7c0.1-0.2,0.4-0.3,0.7-0.2l9,5.1
			c0.1,0.1,0.2,0.2,0.2,0.4l1.6,21.5C428.5,333.7,428.3,334,428,334C428,334,428,334,428,334z"/>
	</g>
	<g>
		<path class="st163" d="M406,334.7c-0.1,0-0.2,0-0.2-0.1l-18.2-10.4c-0.2-0.1-0.3-0.4-0.2-0.7c0.1-0.2,0.4-0.3,0.7-0.2l18.2,10.4
			c0.2,0.1,0.3,0.4,0.2,0.7C406.3,334.6,406.2,334.7,406,334.7z"/>
	</g>
	<g>
		<path class="st163" d="M445.6,336.4c-0.2,0-0.3-0.1-0.4-0.2c-0.1-0.2-0.1-0.5,0.2-0.7l21.5-12.3c0.2-0.1,0.5-0.1,0.7,0.2
			c0.1,0.2,0.1,0.5-0.2,0.7l-21.5,12.3C445.8,336.4,445.7,336.4,445.6,336.4z"/>
	</g>
	<g>
		<path class="st163" d="M496,352.6c-0.1,0-0.2,0-0.2-0.1l-8.9-5.1l-36.8-0.5c-0.3,0-0.5-0.2-0.5-0.5c0-0.3,0.2-0.5,0.5-0.5l37,0.5
			c0.1,0,0.2,0,0.2,0.1l9,5.1c0.2,0.1,0.3,0.4,0.2,0.7C496.3,352.5,496.2,352.6,496,352.6z"/>
	</g>
	<g>
		<path class="st163" d="M437.3,386.2c-0.1,0-0.2,0-0.2-0.1l-9-5.1c-0.1-0.1-0.2-0.2-0.2-0.4l-2-21.5c0-0.3,0.2-0.5,0.4-0.5
			c0.3,0,0.5,0.2,0.5,0.4l2,21.2l8.7,5c0.2,0.1,0.3,0.4,0.2,0.7C437.6,386.1,437.4,386.2,437.3,386.2z"/>
	</g>
	<g>
		<path class="st163" d="M466.6,369.4c-0.1,0-0.2,0-0.2-0.1l-18-10.3c-0.2-0.1-0.3-0.4-0.2-0.7c0.1-0.2,0.4-0.3,0.7-0.2l18,10.3
			c0.2,0.1,0.3,0.4,0.2,0.7C466.9,369.3,466.7,369.4,466.6,369.4z"/>
	</g>
	<g>
		<path class="st164" d="M390.4,325.3c-1.4,0.8-3.7,0.8-5.1,0c-1.4-0.8-1.4-2.1,0-2.9c1.4-0.8,3.7-0.8,5.1,0
			C391.8,323.2,391.8,324.5,390.4,325.3z"/>
		<path class="st163" d="M387.8,326.4c-1,0-2-0.2-2.8-0.7c-0.8-0.5-1.3-1.1-1.3-1.9c0-0.7,0.5-1.4,1.3-1.9c1.5-0.9,4.1-0.9,5.6,0
			c0.8,0.5,1.3,1.1,1.3,1.9c0,0.7-0.5,1.4-1.3,1.9C389.9,326.1,388.9,326.4,387.8,326.4z M387.8,322.2c-0.9,0-1.7,0.2-2.3,0.5
			c-0.5,0.3-0.8,0.7-0.8,1.1c0,0.4,0.3,0.8,0.8,1.1c1.2,0.7,3.4,0.7,4.7,0c0.5-0.3,0.8-0.7,0.8-1.1c0-0.4-0.3-0.8-0.8-1.1
			C389.5,322.4,388.7,322.2,387.8,322.2z"/>
	</g>
	<g>
		<path class="st164" d="M469.1,370.3c-1.4,0.8-3.7,0.8-5.1,0c-1.4-0.8-1.4-2.1,0-2.9c1.4-0.8,3.7-0.8,5.1,0
			C470.6,368.2,470.6,369.5,469.1,370.3z"/>
		<path class="st163" d="M466.6,371.4c-1,0-2-0.2-2.8-0.7c-0.8-0.5-1.3-1.1-1.3-1.9c0-0.7,0.5-1.4,1.3-1.9c1.5-0.9,4.1-0.9,5.6,0
			c0.8,0.5,1.3,1.1,1.3,1.9c0,0.7-0.5,1.4-1.3,1.9C468.6,371.2,467.6,371.4,466.6,371.4z M466.6,367.3c-0.9,0-1.7,0.2-2.3,0.5
			c-0.5,0.3-0.8,0.7-0.8,1.1c0,0.4,0.3,0.8,0.8,1.1c1.2,0.7,3.4,0.7,4.7,0c0.5-0.3,0.8-0.7,0.8-1.1c0-0.4-0.3-0.8-0.8-1.1
			C468.3,367.5,467.5,367.3,466.6,367.3z"/>
	</g>
	<g>
		<path class="st164" d="M420,308.3c-1.4,0.8-3.7,0.8-5.1,0c-1.4-0.8-1.4-2.1,0-2.9c1.4-0.8,3.7-0.8,5.1,0
			C421.4,306.2,421.4,307.5,420,308.3z"/>
		<path class="st163" d="M417.5,309.4c-1,0-2-0.2-2.8-0.7c-0.8-0.5-1.3-1.1-1.3-1.9c0-0.7,0.5-1.4,1.3-1.9c1.5-0.9,4.1-0.9,5.6,0
			c0.8,0.5,1.3,1.1,1.3,1.9c0,0.7-0.5,1.4-1.3,1.9C419.5,309.2,418.5,309.4,417.5,309.4z M417.5,305.3c-0.9,0-1.7,0.2-2.3,0.5
			c-0.5,0.3-0.8,0.7-0.8,1.1c0,0.4,0.3,0.8,0.8,1.1c1.2,0.7,3.4,0.7,4.7,0c0.5-0.3,0.8-0.7,0.8-1.1c0-0.4-0.3-0.8-0.8-1.1
			C419.2,305.5,418.4,305.3,417.5,305.3z"/>
	</g>
	<g>
		<path class="st164" d="M469.7,325.1c-1.4,0.8-3.7,0.8-5.1,0c-1.4-0.8-1.4-2.1,0-2.9c1.4-0.8,3.7-0.8,5.1,0
			C471.1,322.9,471.1,324.3,469.7,325.1z"/>
		<path class="st163" d="M467.1,326.1c-1,0-2-0.2-2.8-0.7c-0.8-0.5-1.3-1.1-1.3-1.9c0-0.7,0.5-1.4,1.3-1.9c1.5-0.9,4.1-0.9,5.6,0
			c0.8,0.5,1.3,1.1,1.3,1.9c0,0.7-0.5,1.4-1.3,1.9C469.2,325.9,468.2,326.1,467.1,326.1z M467.1,322c-0.9,0-1.7,0.2-2.3,0.5
			c-0.5,0.3-0.8,0.7-0.8,1.1c0,0.4,0.3,0.8,0.8,1.1c1.2,0.7,3.4,0.7,4.7,0c0.5-0.3,0.8-0.7,0.8-1.1c0-0.4-0.3-0.8-0.8-1.1
			C468.9,322.2,468,322,467.1,322z"/>
	</g>
	<g>
		<path class="st163" d="M455.4,342c-0.2,0-0.3-0.1-0.4-0.2c-0.1-0.2-0.1-0.5,0.2-0.7l21.5-12.3c0.2-0.1,0.5-0.1,0.7,0.2
			c0.1,0.2,0.1,0.5-0.2,0.7L455.7,342C455.6,342,455.5,342,455.4,342z"/>
	</g>
	<g>
		<path class="st164" d="M479.5,330.7c-1.4,0.8-3.7,0.8-5.1,0c-1.4-0.8-1.4-2.1,0-2.9c1.4-0.8,3.7-0.8,5.1,0
			C480.9,328.6,480.9,329.9,479.5,330.7z"/>
		<path class="st163" d="M477,331.7c-1,0-2-0.2-2.8-0.7c-0.8-0.5-1.3-1.1-1.3-1.9c0-0.7,0.5-1.4,1.3-1.9c1.5-0.9,4.1-0.9,5.6,0
			c0.8,0.5,1.3,1.1,1.3,1.9c0,0.7-0.5,1.4-1.3,1.9C479,331.5,478,331.7,477,331.7z M477,327.6c-0.9,0-1.7,0.2-2.3,0.5
			c-0.5,0.3-0.8,0.7-0.8,1.1c0,0.4,0.3,0.8,0.8,1.1c1.2,0.7,3.4,0.7,4.7,0c0.5-0.3,0.8-0.7,0.8-1.1c0-0.4-0.3-0.8-0.8-1.1
			C478.7,327.8,477.9,327.6,477,327.6z"/>
	</g>
	<g>
		<path class="st163" d="M435.8,330.8c-0.2,0-0.3-0.1-0.4-0.2c-0.1-0.2-0.1-0.5,0.2-0.7l21.5-12.3c0.2-0.1,0.5-0.1,0.7,0.2
			c0.1,0.2,0.1,0.5-0.2,0.7L436,330.7C435.9,330.8,435.9,330.8,435.8,330.8z"/>
	</g>
	<g>
		<path class="st164" d="M459.9,319.4c-1.4,0.8-3.7,0.8-5.1,0c-1.4-0.8-1.4-2.1,0-2.9c1.4-0.8,3.7-0.8,5.1,0
			C461.3,317.3,461.3,318.6,459.9,319.4z"/>
		<path class="st163" d="M457.3,320.5c-1,0-2-0.2-2.8-0.7c-0.8-0.5-1.3-1.1-1.3-1.9c0-0.7,0.5-1.4,1.3-1.9c1.5-0.9,4.1-0.9,5.6,0
			c0.8,0.5,1.3,1.1,1.3,1.9c0,0.7-0.5,1.4-1.3,1.9C459.3,320.3,458.4,320.5,457.3,320.5z M457.3,316.4c-0.9,0-1.7,0.2-2.3,0.5
			c-0.5,0.3-0.8,0.7-0.8,1.1c0,0.4,0.3,0.8,0.8,1.1c1.2,0.7,3.4,0.7,4.7,0c0.5-0.3,0.8-0.7,0.8-1.1c0-0.4-0.3-0.8-0.8-1.1
			C459,316.5,458.2,316.4,457.3,316.4z"/>
	</g>
	<g>
		<path class="st163" d="M387.4,369.7c-0.2,0-0.3-0.1-0.4-0.2c-0.1-0.2-0.1-0.5,0.2-0.7l21.5-12.3c0.2-0.1,0.5-0.1,0.7,0.2
			c0.1,0.2,0.1,0.5-0.2,0.7l-21.5,12.3C387.6,369.7,387.5,369.7,387.4,369.7z"/>
	</g>
	<g>
		<path class="st164" d="M384.9,367.7c1.4-0.8,3.7-0.8,5.1,0c1.4,0.8,1.4,2.1,0,2.9c-1.4,0.8-3.7,0.8-5.1,0
			C383.4,369.9,383.4,368.5,384.9,367.7z"/>
		<path class="st163" d="M387.4,371.7c-1,0-2-0.2-2.8-0.7c-0.8-0.5-1.3-1.1-1.3-1.9c0-0.7,0.5-1.4,1.3-1.9c1.5-0.9,4.1-0.9,5.6,0
			c0.8,0.5,1.3,1.1,1.3,1.9c0,0.7-0.5,1.4-1.3,1.9C389.5,371.5,388.5,371.7,387.4,371.7z M387.4,367.6c-0.9,0-1.7,0.2-2.3,0.5
			c-0.5,0.3-0.8,0.7-0.8,1.1c0,0.4,0.3,0.8,0.8,1.1c1.2,0.7,3.4,0.7,4.7,0c0.5-0.3,0.8-0.7,0.8-1.1c0-0.4-0.3-0.8-0.8-1.1
			C389.1,367.8,388.3,367.6,387.4,367.6z"/>
	</g>
	<g>
		<path class="st163" d="M377.6,363.5c-0.2,0-0.3-0.1-0.4-0.2c-0.1-0.2-0.1-0.5,0.2-0.7l21.5-12.3c0.2-0.1,0.5-0.1,0.7,0.2
			c0.1,0.2,0.1,0.5-0.2,0.7l-21.5,12.3C377.8,363.5,377.7,363.5,377.6,363.5z"/>
	</g>
	<g>
		<path class="st164" d="M375,362.1c1.4-0.8,3.7-0.8,5.1,0c1.4,0.8,1.4,2.1,0,2.9c-1.4,0.8-3.7,0.8-5.1,0
			C373.6,364.2,373.6,362.9,375,362.1z"/>
		<path class="st163" d="M377.6,366.1c-1,0-2-0.2-2.8-0.7c-0.8-0.5-1.3-1.1-1.3-1.9c0-0.7,0.5-1.4,1.3-1.9c1.5-0.9,4.1-0.9,5.6,0
			c0.8,0.5,1.3,1.1,1.3,1.9c0,0.7-0.5,1.4-1.3,1.9C379.6,365.9,378.6,366.1,377.6,366.1z M377.6,362c-0.9,0-1.7,0.2-2.3,0.5
			c-0.5,0.3-0.8,0.7-0.8,1.1c0,0.4,0.3,0.8,0.8,1.1c1.2,0.7,3.4,0.7,4.7,0c0.5-0.3,0.8-0.7,0.8-1.1c0-0.4-0.3-0.8-0.8-1.1
			C379.3,362.1,378.5,362,377.6,362z"/>
	</g>
	<g>
		<path class="st163" d="M397.3,375.3c-0.2,0-0.3-0.1-0.4-0.2c-0.1-0.2-0.1-0.5,0.2-0.7l21.5-12.3c0.2-0.1,0.5-0.1,0.7,0.2
			c0.1,0.2,0.1,0.5-0.2,0.7l-21.5,12.3C397.4,375.3,397.3,375.3,397.3,375.3z"/>
	</g>
	<g>
		<path class="st164" d="M394.7,373.4c1.4-0.8,3.7-0.8,5.1,0c1.4,0.8,1.4,2.1,0,2.9c-1.4,0.8-3.7,0.8-5.1,0
			C393.3,375.5,393.3,374.2,394.7,373.4z"/>
		<path class="st163" d="M397.3,377.3c-1,0-2-0.2-2.8-0.7c-0.8-0.5-1.3-1.1-1.3-1.9c0-0.7,0.5-1.4,1.3-1.9c1.5-0.9,4.1-0.9,5.6,0
			c0.8,0.5,1.3,1.1,1.3,1.9c0,0.7-0.5,1.4-1.3,1.9C399.3,377.1,398.3,377.3,397.3,377.3z M397.3,373.2c-0.9,0-1.7,0.2-2.3,0.5
			c-0.5,0.3-0.8,0.7-0.8,1.1c0,0.4,0.3,0.8,0.8,1.1c1.2,0.7,3.4,0.7,4.7,0c0.5-0.3,0.8-0.7,0.8-1.1c0-0.4-0.3-0.8-0.8-1.1
			C399,373.4,398.1,373.2,397.3,373.2z"/>
	</g>
	<g>
		<path class="st164" d="M498.5,353.5c-1.4,0.8-3.7,0.8-5.1,0c-1.4-0.8-1.4-2.1,0-2.9c1.4-0.8,3.7-0.8,5.1,0
			C499.9,351.4,499.9,352.7,498.5,353.5z"/>
		<path class="st163" d="M495.9,354.6c-1,0-2-0.2-2.8-0.7c-0.8-0.5-1.3-1.1-1.3-1.9s0.5-1.4,1.3-1.9c1.5-0.9,4.1-0.9,5.6,0
			c0.8,0.5,1.3,1.1,1.3,1.9c0,0.7-0.5,1.4-1.3,1.9C498,354.4,497,354.6,495.9,354.6z M495.9,350.5c-0.9,0-1.7,0.2-2.3,0.5
			c-0.5,0.3-0.8,0.7-0.8,1.1c0,0.4,0.3,0.8,0.8,1.1c1.2,0.7,3.4,0.7,4.7,0c0.5-0.3,0.8-0.7,0.8-1.1c0-0.4-0.3-0.8-0.8-1.1
			C497.7,350.7,496.8,350.5,495.9,350.5z"/>
	</g>
	<g>
		<path class="st164" d="M439.8,387.1c-1.4,0.8-3.7,0.8-5.1,0c-1.4-0.8-1.4-2.1,0-2.9c1.4-0.8,3.7-0.8,5.1,0
			C441.2,385,441.2,386.3,439.8,387.1z"/>
		<path class="st163" d="M437.2,388.2c-1,0-2-0.2-2.8-0.7c-0.8-0.5-1.3-1.1-1.3-1.9c0-0.7,0.5-1.4,1.3-1.9c1.5-0.9,4.1-0.9,5.6,0
			c0.8,0.5,1.3,1.1,1.3,1.9c0,0.7-0.5,1.4-1.3,1.9C439.3,388,438.3,388.2,437.2,388.2z M437.2,384.1c-0.9,0-1.7,0.2-2.3,0.5
			c-0.5,0.3-0.8,0.7-0.8,1.1c0,0.4,0.3,0.8,0.8,1.1c1.2,0.7,3.4,0.7,4.7,0c0.5-0.3,0.8-0.7,0.8-1.1c0-0.4-0.3-0.8-0.8-1.1
			C438.9,384.3,438.1,384.1,437.2,384.1z"/>
	</g>
	<g>
		<path class="st164" d="M359.5,340.9c-1.4,0.8-3.7,0.8-5.1,0c-1.4-0.8-1.4-2.1,0-2.9c1.4-0.8,3.7-0.8,5.1,0
			C360.9,338.8,360.9,340.1,359.5,340.9z"/>
		<path class="st163" d="M356.9,342c-1,0-2-0.2-2.8-0.7c-0.8-0.5-1.3-1.1-1.3-1.9c0-0.7,0.5-1.4,1.3-1.9c1.5-0.9,4.1-0.9,5.6,0
			c0.8,0.5,1.3,1.1,1.3,1.9c0,0.7-0.5,1.4-1.3,1.9C358.9,341.8,357.9,342,356.9,342z M356.9,337.8c-0.9,0-1.7,0.2-2.3,0.5
			c-0.5,0.3-0.8,0.7-0.8,1.1c0,0.4,0.3,0.8,0.8,1.1c1.2,0.7,3.4,0.7,4.7,0c0.5-0.3,0.8-0.7,0.8-1.1c0-0.4-0.3-0.8-0.8-1.1
			C358.6,338,357.8,337.8,356.9,337.8z"/>
	</g>
</g>
<g class="st168">
	<path class="st163" d="M229.1,410.1c-0.5,0-0.9-0.1-1.2-0.3l-18.5-10.6c-0.4-0.2-0.7-0.6-0.7-1c0-0.4,0.2-0.8,0.7-1l18.5-10.6
		c0.7-0.4,1.8-0.4,2.5,0l18.5,10.6c0.4,0.2,0.7,0.6,0.7,1c0,0.4-0.2,0.8-0.7,1l-18.5,10.6C230,410,229.6,410.1,229.1,410.1z
		 M229.1,387.4c-0.3,0-0.6,0.1-0.7,0.2l-18.5,10.6c-0.1,0.1-0.2,0.1-0.2,0.1c0,0,0,0.1,0.2,0.1l18.5,10.6c0.4,0.2,1.1,0.2,1.5,0
		l18.5-10.6c0.1-0.1,0.2-0.1,0.2-0.1c0,0,0-0.1-0.2-0.1l-18.5-10.6C229.7,387.4,229.4,387.4,229.1,387.4z"/>
</g>
<g class="st168">
	<path class="st163" d="M309.2,363.1c-0.5,0-0.9-0.1-1.2-0.3l-18.5-10.6c-0.4-0.2-0.7-0.6-0.7-1c0-0.4,0.2-0.8,0.7-1l18.5-10.6
		c0.7-0.4,1.8-0.4,2.5,0l18.5,10.6c0.4,0.2,0.7,0.6,0.7,1c0,0.4-0.2,0.8-0.7,1l-18.5,10.6C310.1,363,309.6,363.1,309.2,363.1z
		 M309.2,340.4c-0.3,0-0.6,0.1-0.7,0.2l-18.5,10.6c-0.1,0.1-0.2,0.1-0.2,0.1c0,0,0,0.1,0.2,0.1l18.5,10.6c0.4,0.2,1.1,0.2,1.5,0
		l18.5-10.6c0.1-0.1,0.2-0.1,0.2-0.1c0,0,0-0.1-0.2-0.1l-18.5-10.6C309.7,340.4,309.5,340.4,309.2,340.4z"/>
</g>
<g class="st168">
	<path class="st163" d="M174.3,407.8c-0.5,0-0.9-0.1-1.2-0.3l-18.5-10.6c-0.4-0.2-0.7-0.6-0.7-1c0-0.4,0.2-0.8,0.7-1l18.5-10.6
		c0.7-0.4,1.8-0.4,2.5,0l18.5,10.6c0.4,0.2,0.7,0.6,0.7,1c0,0.4-0.2,0.8-0.7,1l-18.5,10.6C175.2,407.7,174.7,407.8,174.3,407.8z
		 M174.3,385c-0.3,0-0.6,0.1-0.7,0.2L155,395.8c-0.1,0.1-0.2,0.1-0.2,0.1c0,0,0,0.1,0.2,0.1l18.5,10.6c0.4,0.2,1.1,0.2,1.5,0
		l18.5-10.6c0.1-0.1,0.2-0.1,0.2-0.1c0,0,0-0.1-0.2-0.1L175,385.2C174.8,385.1,174.6,385,174.3,385z"/>
</g>
<path class="st169" d="M234.3,323.5l-77.4,44.3c-8.2,4.7-14.8,0.9-14.8-8.5l0-204.9c0-9.4,6.6-20.7,14.8-25.4l77.4-44.3
	c8.2-4.7,14.8-0.9,14.8,8.5l0,204.9C249.1,307.5,242.5,318.8,234.3,323.5z"/>
<path class="st153" d="M234.3,90.4L219.4,99v2.3c0,3.1-2.2,6.9-4.9,8.5l-37.7,21.6c-2.7,1.6-4.9,0.3-4.9-2.8v-2.3l-14.9,8.5
	c-5.4,3.1-9.9,10.7-9.9,16.9l0,204.9c0,6.2,4.4,8.8,9.9,5.6l77.4-44.3c5.4-3.1,9.9-10.7,9.9-16.9l0-204.9
	C244.1,89.9,239.7,87.3,234.3,90.4z"/>
<g>
	<path class="st144" d="M245,83.9c0,0-0.1-0.1-0.1-0.1c0,0,0,0-0.1,0C244.8,83.8,244.9,83.9,245,83.9z"/>
	<path class="st144" d="M142,359.3l0-204.9c0-9.4,6.6-20.7,14.8-25.4l77.4-44.3c4.1-2.3,7.8-2.6,10.5-1c-1-0.6-7.1-3.7-8-3.9
		c-2.3-0.4-5.2,0.1-8.2,1.9L151.1,126c-8.2,4.7-14.8,16-14.8,25.4l0,204.9c0,4.3,1.4,7.4,3.7,9.1c0.8,0.6,5.9,3.6,7,3.8
		c0,0,0,0,0.1,0C144,367.8,142,364.4,142,359.3z"/>
</g>
<path class="st151" d="M243.1,210.7c-0.8-15.5-21.4-17.6-37-15.8c-15.6,3.7-36.5,13.1-37.8,28.9c-1.4,16.2,8.9,43.3,19,56.1
	c5.5,7,11.5,8.4,17,7.2c5.6-0.8,11.6-4.2,17.4-13.2C232.4,257.4,243.9,226.5,243.1,210.7z"/>
<ellipse transform="matrix(0.4334 -0.9012 0.9012 0.4334 -48.5905 289.3623)" class="st151" cx="205.8" cy="183.3" rx="37.8" ry="36.9"/>
<g>
	<g>
		<path class="st170" d="M241,160.6c0,0-11.4-26.2-16.5-27.1c-0.4-0.1-0.7,0-1,0.2c-0.2,0.1-2,1.3-2,1.3c-2.9,3.8,0.8,21.2,0.8,21.2
			l15.8,3.8c1.8,2.8,3,5.9,3.2,8.8c0.2,3.2-0.7,5.4-2.4,6.6l1.8-1.2c1.7-1.2,2.7-3.5,2.4-6.6C242.9,165.2,241,160.6,241,160.6z"/>
		<path class="st170" d="M239.2,161.7c0,0-11.4-26.2-16.5-27.1c-5.1-0.9-2.4,21.7-2.2,24.1c0.5,6.3,5.5,13.6,11.3,16.4
			c5.7,2.7,10-0.1,9.5-6.4C241.2,166.4,240.4,164,239.2,161.7z"/>
		<path class="st170" d="M222.4,161.7c-0.3-4.1,2.5-6,6.2-4.2c3.7,1.8,7,6.6,7.3,10.7c0.3,4.1-2.5,6-6.2,4.2
			C226,170.5,222.7,165.8,222.4,161.7z"/>
		<path class="st170" d="M228.6,157.5c3.7,1.8,7,6.6,7.3,10.7c0.2,2-0.5,3.5-1.6,4.3l1.8-1.2c1.1-0.8,1.7-2.3,1.6-4.3
			c-0.3-4.1-3.6-8.9-7.3-10.7c-1.9-0.9-3.5-0.9-4.6-0.1l-1.8,1.2C225.1,156.6,226.7,156.6,228.6,157.5z"/>
	</g>
	<g>
		
			<linearGradient id="SVGID_5_" gradientUnits="userSpaceOnUse" x1="215.8446" y1="81.353" x2="236.576" y2="81.353" gradientTransform="matrix(0.9972 -7.450000e-02 7.450000e-02 0.9972 9.561656e-02 90.073)">
			<stop  offset="0" style="stop-color:#F0DDFF"/>
			<stop  offset="1" style="stop-color:#EEEEF6"/>
		</linearGradient>
		<path class="st171" d="M241,160.6c0,0-11.4-26.2-16.5-27.1c-0.4-0.1-0.7,0-1,0.2c-0.2,0.1-2,1.3-2,1.3c-2.9,3.8,0.8,21.2,0.8,21.2
			l15.8,3.8c1.8,2.8,3,5.9,3.2,8.8c0.2,3.2-0.7,5.4-2.4,6.6l1.8-1.2c1.7-1.2,2.7-3.5,2.4-6.6C242.9,165.2,241,160.6,241,160.6z"/>
		<path class="st151" d="M239.2,161.7c0,0-11.4-26.2-16.5-27.1c-5.1-0.9-2.4,21.7-2.2,24.1c0.5,6.3,5.5,13.6,11.3,16.4
			c5.7,2.7,10-0.1,9.5-6.4C241.2,166.4,240.4,164,239.2,161.7z"/>
		
			<linearGradient id="SVGID_6_" gradientUnits="userSpaceOnUse" x1="216.3369" y1="91.6859" x2="229.3548" y2="91.6859" gradientTransform="matrix(0.9972 -7.450000e-02 7.450000e-02 0.9972 9.561656e-02 90.073)">
			<stop  offset="0" style="stop-color:#F0DDFF"/>
			<stop  offset="1" style="stop-color:#EEEEF6"/>
		</linearGradient>
		<path class="st172" d="M222.4,161.7c-0.3-4.1,2.5-6,6.2-4.2c3.7,1.8,7,6.6,7.3,10.7c0.3,4.1-2.5,6-6.2,4.2
			C226,170.5,222.7,165.8,222.4,161.7z"/>
		<path class="st161" d="M228.6,157.5c3.7,1.8,7,6.6,7.3,10.7c0.2,2-0.5,3.5-1.6,4.3l1.8-1.2c1.1-0.8,1.7-2.3,1.6-4.3
			c-0.3-4.1-3.6-8.9-7.3-10.7c-1.9-0.9-3.5-0.9-4.6-0.1l-1.8,1.2C225.1,156.6,226.7,156.6,228.6,157.5z"/>
	</g>
</g>
<linearGradient id="SVGID_7_" gradientUnits="userSpaceOnUse" x1="119.2492" y1="20.5298" x2="176.2489" y2="93.8151" gradientTransform="matrix(0.9388 -0.1633 0 1 76.5658 203.505)">
	<stop  offset="0" style="stop-color:#E8D9FF"/>
	<stop  offset="1" style="stop-color:#FFFFFF"/>
</linearGradient>
<path class="st173" d="M248.7,210.7c-1.1-15.5-22.3-17.6-38.2-15.8c-15.9,3.7-37.1,13.1-38.2,28.9c-1.1,16.2,10,43.3,20.6,56.1
	c5.8,7,11.9,8.4,17.6,7.2c5.7-0.8,11.8-4.2,17.6-13.2C238.7,257.4,249.8,226.5,248.7,210.7z"/>
<ellipse transform="matrix(0.9831 -0.1829 0.1829 0.9831 -35.0602 42.0667)" class="st161" cx="210.5" cy="211.1" rx="30.9" ry="16.4"/>
<linearGradient id="SVGID_8_" gradientUnits="userSpaceOnUse" x1="176.5157" y1="190.6089" x2="252.3762" y2="174.0632">
	<stop  offset="0" style="stop-color:#E8D9FF"/>
	<stop  offset="1" style="stop-color:#FFFFFF"/>
</linearGradient>
<ellipse class="st174" cx="209.9" cy="183.3" rx="38" ry="37.7"/>
<linearGradient id="SVGID_9_" gradientUnits="userSpaceOnUse" x1="172.4035" y1="160.4948" x2="185.6187" y2="203.4444">
	<stop  offset="0" style="stop-color:#FFFFFF"/>
	<stop  offset="0.1141" style="stop-color:#F9F4FF"/>
	<stop  offset="0.3459" style="stop-color:#EFE5FF"/>
	<stop  offset="0.6142" style="stop-color:#EADCFF"/>
	<stop  offset="1" style="stop-color:#E8D9FF"/>
</linearGradient>
<path class="st175" d="M189.5,187.2c0,0-11.4-26.2-16.5-27.1c-5.1-0.9-2.4,21.7-2.2,24.1c0.5,6.3,5.5,13.6,11.3,16.4
	c5.7,2.7,10-0.1,9.5-6.4C191.5,191.9,190.7,189.5,189.5,187.2z"/>
<linearGradient id="SVGID_10_" gradientUnits="userSpaceOnUse" x1="176.8948" y1="182.0582" x2="182.2134" y2="199.3438">
	<stop  offset="0" style="stop-color:#FFFFFF"/>
	<stop  offset="0.1141" style="stop-color:#F9F4FF"/>
	<stop  offset="0.3459" style="stop-color:#EFE5FF"/>
	<stop  offset="0.6142" style="stop-color:#EADCFF"/>
	<stop  offset="1" style="stop-color:#E8D9FF"/>
</linearGradient>
<path class="st176" d="M172.7,187.1c-0.3-4.1,2.5-6,6.2-4.2c3.7,1.8,7,6.6,7.3,10.7c0.3,4.1-2.5,6-6.2,4.2
	C176.3,196,173,191.2,172.7,187.1z"/>
<path class="st161" d="M178.9,182.9c3.7,1.8,7,6.6,7.3,10.7c0.2,2-0.5,3.5-1.6,4.3l1.8-1.2c1.1-0.8,1.7-2.3,1.6-4.3
	c-0.3-4.1-3.6-8.9-7.3-10.7c-1.9-0.9-3.5-0.9-4.6-0.1l-1.8,1.2C175.4,182.1,177,182.1,178.9,182.9z"/>
<path class="st151" d="M243.9,166.5c-4,6-13.3,13.2-33.1,18.8c-6.6,1.8-10.4,8.6-8.7,15.1l0.1,0.2c1.8,6.8,8.9,10.8,15.7,8.8
	c16.1-4.6,24.8-11.3,29.3-18.8c0.9-4.2,1-8.7,0.3-13.1C246.9,173.6,245.7,169.9,243.9,166.5z"/>
<linearGradient id="SVGID_11_" gradientUnits="userSpaceOnUse" x1="172.1714" y1="179.832" x2="193.4493" y2="179.832">
	<stop  offset="0" style="stop-color:#F7F7FF"/>
	<stop  offset="0.9951" style="stop-color:#CCCCF0"/>
</linearGradient>
<path class="st177" d="M193.4,192.9c-0.2-2.3-0.9-4.7-2.1-6.9c0,0-11.4-26.2-16.5-27.1c-0.4-0.1-0.7,0-1,0.2
	c-0.2,0.1-1.2,0.7-1.7,1.1c0.3-0.1,0.5-0.1,0.8-0.1c5.1,0.9,16.5,27.1,16.5,27.1c0,0,0,0.1,0.1,0.1c0.3,0.5,0.5,1,0.7,1.5
	c0,0.1,0.1,0.2,0.1,0.3c0.2,0.5,0.4,0.9,0.5,1.4c0,0.1,0,0.1,0.1,0.2c0.2,0.5,0.3,1,0.4,1.5c0,0.1,0,0.2,0.1,0.3
	c0.1,0.5,0.2,1,0.2,1.5c0.1,1.2,0,2.2-0.2,3.2c-0.4,1.5-1.1,2.7-2.2,3.4l1.8-1.2C192.7,198.4,193.7,196.1,193.4,192.9z"/>
<g>
	<path class="st178" d="M239.6,191L239.6,191c2.7-1.6,4.8-5.2,4.8-8.2v-1.3c0-3-2.1-4.2-4.7-2.7l-0.1,0.1c-2.6,1.5-4.7,5.1-4.7,8.2
		v1.3C234.9,191.3,237,192.5,239.6,191z"/>
	<path class="st179" d="M239.7,189.3c1.8-1,3.3-3.6,3.3-5.7v-1.3c0-2.1-1.5-2.9-3.3-1.9l-0.1,0.1c-1.8,1-3.3,3.6-3.3,5.7v1.3
		C236.3,189.6,237.8,190.4,239.7,189.3L239.7,189.3z"/>
	<path class="st180" d="M239.7,187.7c1-0.6,1.8-2,1.8-3.2v-1.3c0-1.2-0.8-1.6-1.8-1.1l-0.1,0.1c-1,0.6-1.8,2-1.8,3.2v1.3
		C237.8,187.8,238.6,188.3,239.7,187.7L239.7,187.7z"/>
	<path class="st178" d="M238.5,185.2c0.4-0.2,0.8-0.8,0.8-1.3v-1.2c0-0.5-0.3-0.7-0.8-0.4c-0.4,0.2-0.8,0.8-0.8,1.3v1.2
		C237.8,185.2,238.1,185.4,238.5,185.2z"/>
</g>
<g>
	<path class="st178" d="M222.3,200.5L222.3,200.5c2.7-1.6,4.8-5.2,4.8-8.2V191c0-3-2.1-4.2-4.7-2.7l-0.1,0.1
		c-2.6,1.5-4.7,5.1-4.7,8.2v1.3C217.6,200.8,219.7,202,222.3,200.5z"/>
	<path class="st179" d="M222.4,198.8c1.8-1,3.3-3.6,3.3-5.7l0-1.3c0-2.1-1.5-2.9-3.3-1.9l-0.1,0.1c-1.8,1-3.3,3.6-3.3,5.7l0,1.3
		C219,199,220.5,199.9,222.4,198.8L222.4,198.8z"/>
	<path class="st180" d="M222.4,197.1c1-0.6,1.8-2,1.8-3.2v-1.3c0-1.2-0.8-1.6-1.8-1.1l-0.1,0.1c-1,0.6-1.8,2-1.8,3.2v1.3
		C220.5,197.3,221.3,197.8,222.4,197.1L222.4,197.1z"/>
	<path class="st178" d="M221.2,194.6c0.4-0.2,0.8-0.8,0.8-1.3l0-1.2c0-0.5-0.3-0.7-0.8-0.4c-0.4,0.2-0.8,0.8-0.8,1.3v1.2
		C220.5,194.7,220.8,194.9,221.2,194.6z"/>
</g>
<g>
	<path class="st4" d="M373.2,361.3l-1.1-0.7c-0.1,0-0.1-0.1,0-0.2l0.4-0.2c0.1,0,0.2,0,0.3,0l1.1,0.7c0.1,0,0.1,0.1,0,0.2l-0.4,0.2
		C373.4,361.3,373.3,361.3,373.2,361.3z M375.2,362.4l0.4-0.2c0.1,0,0.1-0.1,0-0.2l-1.1-0.7c-0.1,0-0.2-0.1-0.3,0l-0.4,0.2
		c-0.1,0-0.1,0.1,0,0.2l1.1,0.7C375,362.4,375.1,362.4,375.2,362.4z M376.8,363.4l0.4-0.2c0.1,0,0.1-0.1,0-0.2l-1.1-0.7
		c-0.1,0-0.2-0.1-0.3,0l-0.4,0.2c-0.1,0-0.1,0.1,0,0.2l1.1,0.7C376.6,363.4,376.8,363.5,376.8,363.4z M378.5,364.5l0.4-0.2
		c0.1,0,0.1-0.1,0-0.2l-1.1-0.7c-0.1,0-0.2-0.1-0.3,0l-0.4,0.2c-0.1,0-0.1,0.1,0,0.2l1.1,0.7C378.3,364.5,378.4,364.5,378.5,364.5z
		 M380.1,365.5l0.4-0.2c0.1,0,0.1-0.1,0-0.2l-1.1-0.7c-0.1,0-0.2-0.1-0.3,0l-0.4,0.2c-0.1,0-0.1,0.1,0,0.2l1.1,0.7
		C379.9,365.6,380.1,365.6,380.1,365.5z M381.8,366.6l0.4-0.2c0.1,0,0.1-0.1,0-0.2l-1.1-0.7c-0.1,0-0.2-0.1-0.3,0l-0.4,0.2
		c-0.1,0-0.1,0.1,0,0.2l1.1,0.7C381.6,366.6,381.7,366.6,381.8,366.6z M383.4,367.7l0.4-0.2c0.1,0,0.1-0.1,0-0.2l-1.1-0.7
		c-0.1,0-0.2-0.1-0.3,0l-0.4,0.2c-0.1,0-0.1,0.1,0,0.2l1.1,0.7C383.2,367.7,383.4,367.7,383.4,367.7z M385.1,368.7l0.4-0.2
		c0.1,0,0.1-0.1,0-0.2l-1.1-0.7c-0.1,0-0.2-0.1-0.3,0l-0.4,0.2c-0.1,0-0.1,0.1,0,0.2l1.1,0.7C384.9,368.7,385,368.8,385.1,368.7z
		 M386.8,369.8l0.4-0.2c0.1,0,0.1-0.1,0-0.2l-1.1-0.7c-0.1,0-0.2-0.1-0.3,0l-0.4,0.2c-0.1,0-0.1,0.1,0,0.2l1.1,0.7
		C386.5,369.8,386.7,369.8,386.8,369.8z M388.4,370.8l0.4-0.2c0.1,0,0.1-0.1,0-0.2l-1.1-0.7c-0.1,0-0.2-0.1-0.3,0l-0.4,0.2
		c-0.1,0-0.1,0.1,0,0.2l1.1,0.7C388.2,370.9,388.3,370.9,388.4,370.8z M390.1,371.9l0.4-0.2c0.1,0,0.1-0.1,0-0.2l-1.1-0.7
		c-0.1,0-0.2-0.1-0.3,0l-0.4,0.2c-0.1,0-0.1,0.1,0,0.2l1.1,0.7C389.9,371.9,390,371.9,390.1,371.9z M371.9,360.2l0.4-0.2
		c0.1,0,0.1-0.1,0-0.2l-1.1-0.7c-0.1,0-0.2-0.1-0.3,0l-0.4,0.2c-0.1,0-0.1,0.1,0,0.2l1.1,0.7C371.7,360.3,371.8,360.3,371.9,360.2z
		 M379.2,364.1l1.1-0.6c0,0,0-0.1,0-0.1l-1.1-0.7c0,0-0.1,0-0.1,0l-1.1,0.6c0,0,0,0.1,0,0.1l1.1,0.7
		C379.1,364.1,379.2,364.1,379.2,364.1z M380.6,365l1.1-0.6c0,0,0-0.1,0-0.1l-1.1-0.7c0,0-0.1,0-0.1,0l-1.1,0.6c0,0,0,0.1,0,0.1
		l1.1,0.7C380.5,365,380.5,365,380.6,365z M381.9,365.8l1.1-0.6c0,0,0-0.1,0-0.1l-1.1-0.7c0,0-0.1,0-0.1,0l-1.1,0.6c0,0,0,0.1,0,0.1
		l1.1,0.7C381.8,365.9,381.9,365.9,381.9,365.8z M383.3,366.7l1.1-0.6c0,0,0-0.1,0-0.1l-1.1-0.7c0,0-0.1,0-0.1,0l-1.1,0.6
		c0,0,0,0.1,0,0.1l1.1,0.7C383.2,366.7,383.2,366.7,383.3,366.7z M384.6,367.6l1.1-0.6c0,0,0-0.1,0-0.1l-1.1-0.7c0,0-0.1,0-0.1,0
		l-1.1,0.6c0,0,0,0.1,0,0.1l1.1,0.7C384.5,367.6,384.6,367.6,384.6,367.6z M386,368.4l1.1-0.6c0,0,0-0.1,0-0.1l-1.1-0.7
		c0,0-0.1,0-0.1,0l-1.1,0.6c0,0,0,0.1,0,0.1l1.1,0.7C385.9,368.5,385.9,368.5,386,368.4z M387.3,369.3l1.1-0.6c0,0,0-0.1,0-0.1
		l-1.1-0.7c0,0-0.1,0-0.1,0l-1.1,0.6c0,0,0,0.1,0,0.1l1.1,0.7C387.2,369.3,387.3,369.3,387.3,369.3z M388.7,370.2l1.1-0.6
		c0,0,0-0.1,0-0.1l-1.1-0.7c0,0-0.1,0-0.1,0l-1.1,0.6c0,0,0,0.1,0,0.1l1.1,0.7C388.6,370.2,388.6,370.2,388.7,370.2z M390.8,371.5
		l1.1-0.6c0,0,0-0.1,0-0.1l-1.8-1.2c0,0-0.1,0-0.1,0l-1.1,0.6c0,0,0,0.1,0,0.1l1.8,1.2C390.7,371.5,390.7,371.5,390.8,371.5z
		 M382.2,359.5l1.1-0.6c0,0,0-0.1,0-0.1l-1.1-0.7c0,0-0.1,0-0.1,0l-1.1,0.6c0,0,0,0.1,0,0.1l1.1,0.7
		C382.1,359.5,382.2,359.5,382.2,359.5z M383.6,360.3l1.1-0.6c0,0,0-0.1,0-0.1l-1.1-0.7c0,0-0.1,0-0.1,0l-1.1,0.6c0,0,0,0.1,0,0.1
		l1.1,0.7C383.5,360.3,383.6,360.4,383.6,360.3z M384.9,361.2l1.1-0.6c0,0,0-0.1,0-0.1l-1.1-0.7c0,0-0.1,0-0.1,0l-1.1,0.6
		c0,0,0,0.1,0,0.1l1.1,0.7C384.8,361.2,384.9,361.2,384.9,361.2z M393.1,366.4l1.1-0.6c0,0,0-0.1,0-0.1l-1.1-0.7c0,0-0.1,0-0.1,0
		l-1.1,0.6c0,0,0,0.1,0,0.1l1.1,0.7C393,366.4,393,366.4,393.1,366.4z M394.4,367.3l1.1-0.6c0,0,0-0.1,0-0.1l-1.1-0.7
		c0,0-0.1,0-0.1,0l-1.1,0.6c0,0,0,0.1,0,0.1l1.1,0.7C394.3,367.3,394.4,367.3,394.4,367.3z M396.5,368.6l1.1-0.6c0,0,0-0.1,0-0.1
		l-1.8-1.2c0,0-0.1,0-0.1,0l-1.1,0.6c0,0,0,0.1,0,0.1l1.8,1.2C396.4,368.6,396.5,368.6,396.5,368.6z M392.1,369.5L391,370
		c0,0,0,0.1,0,0.1l1.1,0.7c0,0,0.1,0,0.1,0l1.1-0.6c0,0,0-0.1,0-0.1l-1.1-0.7C392.2,369.4,392.2,369.4,392.1,369.5z M390.8,368.6
		l-1.1,0.6c0,0,0,0.1,0,0.1l1.1,0.7c0,0,0.1,0,0.1,0l1.1-0.6c0,0,0-0.1,0-0.1l-1.1-0.7C390.9,368.6,390.8,368.6,390.8,368.6z
		 M389.4,367.7l-1.1,0.6c0,0,0,0.1,0,0.1l1.1,0.7c0,0,0.1,0,0.1,0l1.1-0.6c0,0,0-0.1,0-0.1l-1.1-0.7
		C389.5,367.7,389.5,367.7,389.4,367.7z M388.1,366.9l-1.1,0.6c0,0,0,0.1,0,0.1l1.1,0.7c0,0,0.1,0,0.1,0l1.1-0.6c0,0,0-0.1,0-0.1
		l-1.1-0.7C388.2,366.8,388.1,366.8,388.1,366.9z M386.7,366l-1.1,0.6c0,0,0,0.1,0,0.1l1.1,0.7c0,0,0.1,0,0.1,0l1.1-0.6
		c0,0,0-0.1,0-0.1l-1.1-0.7C386.8,366,386.8,366,386.7,366z M385.4,365.1l-1.1,0.6c0,0,0,0.1,0,0.1l1.1,0.7c0,0,0.1,0,0.1,0l1.1-0.6
		c0,0,0-0.1,0-0.1l-1.1-0.7C385.5,365.1,385.4,365.1,385.4,365.1z M384,364.3l-1.1,0.6c0,0,0,0.1,0,0.1l1.1,0.7c0,0,0.1,0,0.1,0
		l1.1-0.6c0,0,0-0.1,0-0.1l-1.1-0.7C384.1,364.2,384.1,364.2,384,364.3z M382.7,363.4l-1.1,0.6c0,0,0,0.1,0,0.1l1.1,0.7
		c0,0,0.1,0,0.1,0l1.1-0.6c0,0,0-0.1,0-0.1l-1.1-0.7C382.8,363.4,382.7,363.4,382.7,363.4z M381.3,362.5l-1.1,0.6c0,0,0,0.1,0,0.1
		l1.1,0.7c0,0,0.1,0,0.1,0l1.1-0.6c0,0,0-0.1,0-0.1l-1.1-0.7C381.4,362.5,381.4,362.5,381.3,362.5z M380,361.6l-1.1,0.6
		c0,0,0,0.1,0,0.1l1.1,0.7c0,0,0.1,0,0.1,0l1.1-0.6c0,0,0-0.1,0-0.1l-1.1-0.7C380.1,361.6,380,361.6,380,361.6z M382,361.3l-1.1,0.6
		c0,0,0,0.1,0,0.1l1.1,0.7c0,0,0.1,0,0.1,0l1.1-0.6c0,0,0-0.1,0-0.1l-1.1-0.7C382.1,361.3,382,361.3,382,361.3z M383.4,362.2
		l-1.1,0.6c0,0,0,0.1,0,0.1l1.1,0.7c0,0,0.1,0,0.1,0l1.1-0.6c0,0,0-0.1,0-0.1l-1.1-0.7C383.5,362.2,383.4,362.2,383.4,362.2z
		 M384.7,363l-1.1,0.6c0,0,0,0.1,0,0.1l1.1,0.7c0,0,0.1,0,0.1,0l1.1-0.6c0,0,0-0.1,0-0.1l-1.1-0.7C384.8,363,384.8,363,384.7,363z
		 M386.1,363.9l-1.1,0.6c0,0,0,0.1,0,0.1l1.1,0.7c0,0,0.1,0,0.1,0l1.1-0.6c0,0,0-0.1,0-0.1l-1.1-0.7
		C386.2,363.9,386.1,363.9,386.1,363.9z M387.4,364.8l-1.1,0.6c0,0,0,0.1,0,0.1l1.1,0.7c0,0,0.1,0,0.1,0l1.1-0.6c0,0,0-0.1,0-0.1
		l-1.1-0.7C387.5,364.8,387.5,364.8,387.4,364.8z M388.8,365.6l-1.1,0.6c0,0,0,0.1,0,0.1l1.1,0.7c0,0,0.1,0,0.1,0l1.1-0.6
		c0,0,0-0.1,0-0.1l-1.1-0.7C388.9,365.6,388.8,365.6,388.8,365.6z M390.1,366.5l-1.1,0.6c0,0,0,0.1,0,0.1l1.1,0.7c0,0,0.1,0,0.1,0
		l1.1-0.6c0,0,0-0.1,0-0.1l-1.1-0.7C390.2,366.5,390.2,366.5,390.1,366.5z M391.5,367.4l-1.1,0.6c0,0,0,0.1,0,0.1l1.1,0.7
		c0,0,0.1,0,0.1,0l1.1-0.6c0,0,0-0.1,0-0.1l-1.1-0.7C391.6,367.4,391.5,367.4,391.5,367.4z M392.8,368.2l-1.1,0.6c0,0,0,0.1,0,0.1
		l1.8,1.2c0,0,0.1,0,0.1,0l1.1-0.6c0,0,0-0.1,0-0.1l-1.8-1.2C392.9,368.2,392.9,368.2,392.8,368.2z M380.7,360.4l-1.1,0.6
		c0,0,0,0.1,0,0.1l1.1,0.7c0,0,0.1,0,0.1,0l1.1-0.6c0,0,0-0.1,0-0.1l-1.1-0.7C380.8,360.4,380.7,360.4,380.7,360.4z M375.2,358.6
		l-1.1,0.6c0,0,0,0.1,0,0.1l1.1,0.7c0,0,0.1,0,0.1,0l1.1-0.6c0,0,0-0.1,0-0.1l-1.1-0.7C375.3,358.5,375.2,358.5,375.2,358.6z
		 M376.5,359.4l-1.1,0.6c0,0,0,0.1,0,0.1l1.1,0.7c0,0,0.1,0,0.1,0l1.1-0.6c0,0,0-0.1,0-0.1l-1.1-0.7
		C376.6,359.4,376.6,359.4,376.5,359.4z M373.8,357.7l-1.1,0.6c0,0,0,0.1,0,0.1l1.1,0.7c0,0,0.1,0,0.1,0l1.1-0.6c0,0,0-0.1,0-0.1
		l-1.1-0.7C373.9,357.7,373.9,357.7,373.8,357.7z M373.7,359.3l-1.1,0.6c0,0,0,0.1,0,0.1l1.1,0.7c0,0,0.1,0,0.1,0l1.1-0.6
		c0,0,0-0.1,0-0.1l-1.1-0.7C373.8,359.3,373.8,359.3,373.7,359.3z M379.5,356.4l-0.5,0.3c0,0,0,0.1,0,0.1l1.1,0.7c0,0,0.1,0,0.1,0
		l0.5-0.3c0,0,0-0.1,0-0.1l-1.1-0.7C379.6,356.4,379.5,356.4,379.5,356.4z M380.8,357.3l-0.5,0.3c0,0,0,0.1,0,0.1l1.1,0.7
		c0,0,0.1,0,0.1,0l0.5-0.3c0,0,0-0.1,0-0.1l-1.1-0.7C380.9,357.2,380.9,357.2,380.8,357.3z M378.1,355.5l-0.5,0.3c0,0,0,0.1,0,0.1
		l1.1,0.7c0,0,0.1,0,0.1,0l0.5-0.3c0,0,0-0.1,0-0.1l-1.1-0.7C378.2,355.5,378.2,355.5,378.1,355.5z M378.7,356.8l-0.5,0.3
		c0,0,0,0.1,0,0.1l1.1,0.7c0,0,0.1,0,0.1,0l0.5-0.3c0,0,0-0.1,0-0.1l-1.1-0.7C378.8,356.8,378.7,356.8,378.7,356.8z M375.1,360.2
		l-1.1,0.6c0,0,0,0.1,0,0.1l1.1,0.7c0,0,0.1,0,0.1,0l1.1-0.6c0,0,0-0.1,0-0.1l-1.1-0.7C375.2,360.1,375.1,360.1,375.1,360.2z
		 M372.4,358.4l-1.1,0.6c0,0,0,0.1,0,0.1l1.1,0.7c0,0,0.1,0,0.1,0l1.1-0.6c0,0,0-0.1,0-0.1l-1.1-0.7
		C372.5,358.4,372.4,358.4,372.4,358.4z M378.7,362.1l1.1-0.6c0,0,0-0.1,0-0.1l-0.6-0.4c0,0,0-0.1,0-0.1l1.3-0.7c0,0,0-0.1,0-0.1
		l-1.1-0.7c0,0-0.1,0-0.1,0l-1.4,0.7l-1.2,0.6c0,0,0,0.1,0,0.1l1.8,1.2C378.6,362.1,378.7,362.1,378.7,362.1z M380.7,358.8l-1.1,0.6
		c0,0,0,0.1,0,0.1l2.8,1.8c0,0,0.1,0,0.1,0l1.1-0.6c0,0,0-0.1,0-0.1l-2.8-1.8C380.8,358.8,380.8,358.8,380.7,358.8z M385.1,361.7
		l-1.1,0.6c0,0,0,0.1,0,0.1l1.1,0.7c0,0,0.1,0,0.1,0l1.1-0.6c0,0,0-0.1,0-0.1l-1.1-0.7C385.2,361.6,385.2,361.6,385.1,361.7z
		 M386.5,362.5l-1.1,0.6c0,0,0,0.1,0,0.1l1.1,0.7c0,0,0.1,0,0.1,0l1.1-0.6c0,0,0-0.1,0-0.1l-1.1-0.7
		C386.6,362.5,386.5,362.5,386.5,362.5z M387.8,363.4l-1.1,0.6c0,0,0,0.1,0,0.1l1.1,0.7c0,0,0.1,0,0.1,0l1.1-0.6c0,0,0-0.1,0-0.1
		l-1.1-0.7C387.9,363.4,387.9,363.4,387.8,363.4z M389.2,364.3l-1.1,0.6c0,0,0,0.1,0,0.1l1.1,0.7c0,0,0.1,0,0.1,0l1.1-0.6
		c0,0,0-0.1,0-0.1l-1.1-0.7C389.3,364.3,389.2,364.2,389.2,364.3z M390.5,365.1l-1.1,0.6c0,0,0,0.1,0,0.1l1.1,0.7c0,0,0.1,0,0.1,0
		l1.1-0.6c0,0,0-0.1,0-0.1l-1.1-0.7C390.7,365.1,390.6,365.1,390.5,365.1z M391.9,366l-1.1,0.6c0,0,0,0.1,0,0.1l1.1,0.7
		c0,0,0.1,0,0.1,0l1.1-0.6c0,0,0-0.1,0-0.1L392,366C392,366,391.9,366,391.9,366z M393.3,366.9l-1.1,0.6c0,0,0,0.1,0,0.1l1.1,0.7
		c0,0,0.1,0,0.1,0l1.1-0.6c0,0,0-0.1,0-0.1l-1.1-0.7C393.4,366.9,393.3,366.9,393.3,366.9z M394.6,367.7l-1.1,0.6c0,0,0,0.1,0,0.1
		l1.5,0.9c0,0,0.1,0,0.1,0l1.1-0.6c0,0,0-0.1,0-0.1l-1.5-0.9C394.7,367.7,394.6,367.7,394.6,367.7z M383.8,360.8l-1.1,0.6
		c0,0,0,0.1,0,0.1l1.1,0.7c0,0,0.1,0,0.1,0l1.1-0.6c0,0,0-0.1,0-0.1l-1.1-0.7C383.9,360.8,383.9,360.8,383.8,360.8z M377.9,363.2
		l1.1-0.6c0,0,0-0.1,0-0.1l-2.4-1.6c0,0-0.1,0-0.1,0l-1.1,0.6c0,0,0,0.1,0,0.1l2.4,1.6C377.8,363.3,377.8,363.3,377.9,363.2z
		 M391.7,365.5l1.1-0.6c0,0,0-0.1,0-0.1l-6.5-4.2c0,0-0.1,0-0.1,0l-1.1,0.6c0,0,0,0.1,0,0.1l6.5,4.2
		C391.6,365.6,391.7,365.6,391.7,365.5z"/>
	<path class="st181" d="M401.4,308.6c0,0-2.6-1.1-2.3-3.3c0.3-2.2,3.4-1.9,3.4-1.9L401.4,308.6z"/>
	<path class="st153" d="M396,340.2c0.1-0.1,0.1-0.3,0.2-0.4c2.7-7.2,3.7-9.8,6.8-17.8c0.8-2-0.1-4.3-2-5.3c-2.1-1.1-4.7-0.3-5.8,1.8
		c-0.1,0.2-0.2,0.4-0.3,0.6c-2.7,8.1-3.6,10.8-6,18.1c-0.6,1.8,0.2,3.7,1.9,4.6C392.7,342.8,395.1,342.1,396,340.2z"/>
	<path class="st153" d="M382.1,354.1c1.4,1,3.4,0.6,4.4-0.8c3.9-5.2,4.3-5.7,9.1-12.1c0-0.1,0.1-0.1,0.1-0.2
		c1.2-1.8,0.7-4.3-1.1-5.5c-1.8-1.2-4.3-0.7-5.5,1.1c0,0.1-0.1,0.1-0.1,0.2c-4.1,6.8-4.5,7.4-7.8,12.9
		C380.2,351.2,380.7,353.1,382.1,354.1z"/>
	<linearGradient id="SVGID_12_" gradientUnits="userSpaceOnUse" x1="381.099" y1="351.6195" x2="386.5579" y2="351.6195">
		<stop  offset="0" style="stop-color:#F7F7FF"/>
		<stop  offset="1" style="stop-color:#EEEEF6"/>
	</linearGradient>
	<path class="st182" d="M385.3,349.4c-1.3-0.8-2.9-0.5-3.8,0.7c-0.8,1.2-0.5,2.9,0.7,3.8c1.3,0.8,2.9,0.5,3.8-0.7
		C386.9,351.9,386.6,350.2,385.3,349.4z"/>
	<linearGradient id="SVGID_13_" gradientUnits="userSpaceOnUse" x1="362.5405" y1="412.3153" x2="375.8207" y2="412.3153">
		<stop  offset="0" style="stop-color:#F7F7FF"/>
		<stop  offset="1" style="stop-color:#EEEEF6"/>
	</linearGradient>
	<path class="st183" d="M375.8,409.1c0,0.4-0.1,0.6-0.2,0.8c-0.3,0.5-2.6,1.9-3,2.3c-0.4,0.4-2.1,1.4-4.5,1.5
		c-1.9,0.1-4.2-0.3-4.9-1c-0.3-0.4-0.3-0.7-0.2-0.9c0,0-0.4,0.1-0.5,1.2c-0.1,0.9,0.3,1.4,1,1.8c2,1,5.7,1,7.8-0.2
		c1.8-1.1,1.5-1.6,2.6-2.2c1.1-0.6,1.7-1.1,1.8-1.7C375.8,410.3,375.8,409.6,375.8,409.1z"/>
	<linearGradient id="SVGID_14_" gradientUnits="userSpaceOnUse" x1="351.3593" y1="399.915" x2="368.7721" y2="399.915">
		<stop  offset="0" style="stop-color:#F7F7FF"/>
		<stop  offset="1" style="stop-color:#EEEEF6"/>
	</linearGradient>
	<path class="st184" d="M367.5,394.3c0.1,1,0.3,3,0.6,3.8c0.3,0.7,0.8,2.9,0.7,4c0,0-0.1,0.9-2.7,1.2c-2.6,0.4-3.6,0.5-4.9,1.2
		c-1.3,0.6-2.6,1.6-5,1.7c-2.5,0.1-4.4-0.4-4.7-1.1c-0.2-0.7,0.2-1.3,1-1.6c0.9-0.4,4.5-1.9,5.6-3c1.1-1.2,3.1-4.5,3.5-5.4
		C362.2,393.6,367.4,393.2,367.5,394.3z"/>
	<linearGradient id="SVGID_15_" gradientUnits="userSpaceOnUse" x1="351.3653" y1="404.5403" x2="368.9216" y2="404.5403">
		<stop  offset="0" style="stop-color:#F7F7FF"/>
		<stop  offset="1" style="stop-color:#EEEEF6"/>
	</linearGradient>
	<path class="st185" d="M351.4,404.7c0,0.1,0,0.2,0.1,0.3c0.2,0.7,2.2,1.2,4.7,1.1c2.5-0.1,3.7-1,5-1.7c1.3-0.6,2.4-0.8,4.9-1.2
		c2.6-0.4,2.7-1.2,2.7-1.2c0-0.1,0-0.2,0-0.2c0,0,0.2,1.5,0.2,1.7c0,0.2-0.6,0.7-1.8,0.8c-1.3,0.2-3.3,0.7-4.2,0.9
		c-1.4,0.4-3.5,1.6-4.8,1.8c-4.6,0.6-6.2-0.3-6.4-0.6C351.4,406,351.4,405.1,351.4,404.7z"/>
	<path class="st186" d="M366.6,400.1c0.7,0,1.4-0.1,2-0.3c-0.1-0.7-0.3-1.4-0.5-1.7c-0.3-0.7-0.5-2.7-0.6-3.8
		c-0.1-1-5.3-0.7-5.9,0.7c-0.2,0.4-0.6,1.1-1.1,1.9C361.8,398.8,364.1,400.1,366.6,400.1z"/>
	<linearGradient id="SVGID_16_" gradientUnits="userSpaceOnUse" x1="362.772" y1="407.6515" x2="375.8426" y2="407.6515">
		<stop  offset="0" style="stop-color:#F7F7FF"/>
		<stop  offset="1" style="stop-color:#EEEEF6"/>
	</linearGradient>
	<path class="st187" d="M375.8,402.7c-0.1,1.2-0.1,2.1-0.1,3s0.2,3.7-0.1,4.3c-0.3,0.5-2.6,1.9-3,2.3c-0.4,0.4-2.3,1.7-4.9,1.8
		c-1.9,0.1-4-0.3-4.7-1.3c-0.6-0.8,0.3-1.3,0.9-1.7c0.7-0.4,3.5-2.5,4.2-3.3c1.6-1.8,2.6-5.3,3.6-6
		C373.1,400.8,375.9,401.5,375.8,402.7z"/>
	<path class="st186" d="M371.7,401.8c-0.7,0.5-1.4,2.5-2.4,4.2c1.4,1.6,3.4,2.6,5.7,2.6c0.3,0,0.5,0,0.8,0c0-1-0.1-2.4-0.1-2.9
		c0-0.9,0-1.8,0.1-3C375.9,401.5,373.1,400.8,371.7,401.8z"/>
	<path class="st151" d="M407.2,354.7c-1.2-3.9-5.4-6.1-9.4-4.9c0,0-0.1,0-0.1,0c-14.3,4.6-23.6,7.6-33.8,10.8
		c-1.6,0.5-2.8,1.8-3.4,3.3c-0.1,0.2-0.1,0.3-0.1,0.5c-0.2,0.5-0.3,1-0.3,1.6c-0.1,10.6,1,19.4,0.3,30.1c-0.2,2.9,9,2.9,9,0
		c0-9.2,1-17.1,1.3-26c9-1.7,18-3.5,30.7-5.9c0.3-0.1,0.5-0.1,0.8-0.2C406.2,362.8,408.4,358.7,407.2,354.7z"/>
	<path class="st151" d="M414.4,354.3c-2.2-3.5-6.8-4.5-10.3-2.3c0,0,0,0-0.1,0.1c-12.6,8.1-20.8,13.4-29.8,19.2
		c-0.5,0.3-0.8,0.7-1.2,1.1c-0.1,0.1-0.1,0.1-0.2,0.2c-0.1,0.1-0.2,0.3-0.3,0.4c-0.5,0.7-0.8,1.5-0.9,2.3
		c-1.2,10.5-1.3,19.1-2.5,29.6c-0.3,2.9,8.1,3.5,8.5,0.6c1.1-9.6,3-17,4.3-26.2c8.7-4.2,17.1-8.3,29.4-14.3c0.2-0.1,0.5-0.2,0.7-0.4
		C415.6,362.4,416.6,357.8,414.4,354.3z"/>
	<path class="st188" d="M396.1,317.8c1.1-2.6,8-1.5,13.4,0.5c5.4,2,10.1,5,11.6,9.1c0.5,1.2-2,9.5-3.4,18.2
		c-1.3,8.3-2.4,16.2-2.7,17.6c-0.5,2.9-26.1-5.6-24.8-10.1c3-10.4,3.3-16.1,3.5-17.5C394,334.2,394.1,322.8,396.1,317.8z"/>
	<path class="st163" d="M380.6,357.6l3.8,15.8c0.1,0.2,0.1,0.4,0.2,0.6c0,0.1,0.1,0.1,0.1,0.2c0.1,0.2,0.2,0.3,0.4,0.5
		c0,0,0.1,0.1,0.1,0.1c0.1,0.1,0.3,0.2,0.4,0.3c0.7,0.4,1.6,0.4,2.3,0l12.4-6.3c0.1-0.1,0.2-0.2,0.2-0.3c0,0,0-0.4,0-0.5
		c0-0.1-0.1,0.2-0.2,0.1l-21.3-13.9c-0.1-0.1-0.3-0.1-0.4,0l-1.9,1l-10.9,5.5c-0.7,0.4-1.5,0.3-2.2,0.1c-0.2-0.1-0.5-0.3-0.7-0.4
		c-0.3-0.3-0.6-0.7-0.7-1.2l-3.4-14.1L380.6,357.6z"/>
	<linearGradient id="SVGID_17_" gradientUnits="userSpaceOnUse" x1="359.0505" y1="359.6981" x2="400.6605" y2="359.6981">
		<stop  offset="0" style="stop-color:#F7F7FF"/>
		<stop  offset="1" style="stop-color:#EEEEF6"/>
	</linearGradient>
	<path class="st189" d="M359.1,344.5l3.4,14.1c0.1,0.5,0.4,0.9,0.7,1.2c0.2,0.2,0.4,0.3,0.7,0.4c0.7,0.3,1.5,0.3,2.2-0.1l10.9-5.5
		l1.9-1c0.1-0.1,0.3-0.1,0.4,0l21.3,13.9c0.2,0.2,0.2,0.5,0,0.6l-12.4,6.3c-0.8,0.4-1.6,0.3-2.3,0c-0.2-0.1-0.3-0.2-0.4-0.3
		c-0.1,0-0.1-0.1-0.1-0.1c-0.1-0.1-0.3-0.3-0.4-0.5c0-0.1-0.1-0.1-0.1-0.2c-0.1-0.2-0.2-0.4-0.2-0.6l-5.7-15L359.1,344.5z"/>
	<linearGradient id="SVGID_18_" gradientUnits="userSpaceOnUse" x1="375.4304" y1="356.0363" x2="385.5957" y2="356.0363">
		<stop  offset="2.955670e-02" style="stop-color:#ECB4BF"/>
		<stop  offset="0.3819" style="stop-color:#EBB0BF"/>
		<stop  offset="0.7066" style="stop-color:#E9A5BF"/>
		<stop  offset="1" style="stop-color:#E694BE"/>
	</linearGradient>
	<path class="st190" d="M381.8,350.9c-1.3,1.5-3.7,3.9-3.7,3.9l-1.9,1.3l-0.7,2.5l0.1,0.6c0,0.2,0.2,0.4,0.4,0.5
		c0,0,0.2,1.1,0.2,1.1c0,0.2,0.2,0.3,0.3,0.4c0,0,0.1,0.4,0.1,0.4c0,0.2,0.1,0.3,0.3,0.3c0.2,0,0.3-0.1,0.4-0.2l1.2-3.6l0.6-0.7
		l-0.4,0.8l-1,3.2c-0.1,0.2,0.1,0.5,0.3,0.6c0.2,0.1,0.4,0,0.5-0.2l1.8-3.4l2.1-1.8l-0.8,1.8l-1.1,1l-0.3,1.1c0,0.1,0,0.3,0.1,0.4
		c0.2,0.1,0.4,0.1,0.5,0l0.8-0.7l0.9-0.6l1.2-1.5l0.9-3c0,0,0.9-2.3,1-3.2C385.8,350.3,383.5,348.9,381.8,350.9z"/>
	<path class="st163" d="M385.3,374.3c0,0,0.5,0.7,0.5,0.7s-0.4-0.2-0.6-0.3c-0.3-0.2-21.3-14.4-21.3-14.4l-0.7-0.4
		c-0.3-0.3-0.6-0.7-0.7-1.2l-3.9-15c0,0,0.5-0.5,0.7-0.3l17.7,11.5l3.5,2.3c0.2,0.1,0.3,0.3,0.4,0.5l3.7,15.4
		c0.1,0.2,0.1,0.4,0.2,0.6c0,0.1,0.1,0.1,0.1,0.2c0.1,0.2,0.2,0.3,0.4,0.5C385.2,374.3,385.3,374.3,385.3,374.3z"/>
	<path class="st191" d="M385,374.6c0,0-21.5-14-21.5-14l-0.7-0.4c-0.3-0.3-0.6-0.7-0.7-1.2l-3.6-15.1c-0.1-0.2,0.2-0.4,0.4-0.3
		l17.7,11.5l3.5,2.3c0.2,0.1,0.3,0.3,0.4,0.5l3.7,15.4c0.1,0.2,0.1,0.4,0.2,0.6c0,0.1,0.1,0.1,0.1,0.2c0.1,0.2,0.2,0.3,0.4,0.5
		C384.9,374.5,384.9,374.6,385,374.6z"/>
	<path class="st192" d="M368.4,356.9c-0.1-1.2,0.7-1.7,1.8-1.2c1.1,0.5,2,1.9,2.1,3c0.1,1.2-0.7,1.7-1.8,1.2
		C369.4,359.4,368.4,358.1,368.4,356.9z"/>
	<path class="st193" d="M376.6,355l3.5,2.3c0.2,0.1,0.3,0.3,0.4,0.5l3.1,13c-8.9-2.8-14.9-11.3-14.5-20.7L376.6,355z"/>
	<linearGradient id="SVGID_19_" gradientUnits="userSpaceOnUse" x1="403.9047" y1="315.6679" x2="411.8092" y2="315.6679">
		<stop  offset="2.955670e-02" style="stop-color:#ECB4BF"/>
		<stop  offset="1" style="stop-color:#E694BE"/>
	</linearGradient>
	<path class="st194" d="M411.4,322.8c0-0.1,0-0.3,0-0.4c0.2-5,0.2-5,0.4-10c0.1-2.1-1.5-3.8-3.6-3.9s-3.8,1.5-3.9,3.6
		c-0.2,5-0.2,5-0.4,10c0,0.2,0,0.3,0,0.5L411.4,322.8z"/>
	<defs>
		<filter id="Adobe_OpacityMaskFilter" filterUnits="userSpaceOnUse" x="390.3" y="333.8" width="29.8" height="29.9">
			<feFlood  style="flood-color:white;flood-opacity:1" result="back"/>
			<feBlend  in="SourceGraphic" in2="back" mode="normal"/>
		</filter>
	</defs>
	<mask maskUnits="userSpaceOnUse" x="390.3" y="333.8" width="29.8" height="29.9" id="SVGID_20_">
		<g class="st195">
			<defs>
				<filter id="Adobe_OpacityMaskFilter_1_" filterUnits="userSpaceOnUse" x="390.3" y="333.8" width="29.8" height="29.9">
					<feFlood  style="flood-color:white;flood-opacity:1" result="back"/>
					<feBlend  in="SourceGraphic" in2="back" mode="normal"/>
				</filter>
			</defs>
			<mask maskUnits="userSpaceOnUse" x="390.3" y="333.8" width="29.8" height="29.9" id="SVGID_20_">
			</mask>
			<linearGradient id="SVGID_21_" gradientUnits="userSpaceOnUse" x1="405.2166" y1="362.4146" x2="405.2166" y2="333.8357">
				<stop  offset="0" style="stop-color:#FFFFFF"/>
				<stop  offset="8.623347e-02" style="stop-color:#F8F8F8"/>
				<stop  offset="0.216" style="stop-color:#E3E3E3"/>
				<stop  offset="0.3733" style="stop-color:#C1C1C1"/>
				<stop  offset="0.5521" style="stop-color:#929292"/>
				<stop  offset="0.749" style="stop-color:#565656"/>
				<stop  offset="0.9582" style="stop-color:#0E0E0E"/>
				<stop  offset="0.9951" style="stop-color:#000000"/>
			</linearGradient>
			<path class="st197" d="M394,357.2c6.8,4.1,20.7,8.1,21.1,6c0.2-1.4,1.4-9.3,2.7-17.6c0.7-4.3,1.6-8.5,2.3-11.8h-3
				c0,0-4.7,7.7-9.1,7.4c-4.4-0.3-11.1-4.4-13.4-6c-0.3-0.2-0.5-0.4-0.6-0.8c0,0.1,0,0.2,0,0.3c0,0.1,0,0.2,0,0.3c0,0.1,0,0.2,0,0.2
				c0,0.1,0,0.2,0,0.2c-0.1,0.4-0.1,1.3-0.3,2.6c0,0.3-0.1,0.5-0.1,0.8c-0.2,1.8-0.6,4.1-1.3,7.2c-0.5,2-1,4.3-1.8,6.9
				C390.1,354.2,391.6,355.7,394,357.2z"/>
		</g>
	</mask>
	<path class="st153" d="M394,357.2c6.8,4.1,20.7,8.1,21.1,6c0.2-1.4,1.4-9.3,2.7-17.6c0.7-4.3,1.6-8.5,2.3-11.8h-3
		c0,0-4.7,7.7-9.1,7.4c-4.4-0.3-11.1-4.4-13.4-6c-0.3-0.2-0.5-0.4-0.6-0.8c0,0.1,0,0.2,0,0.3c0,0.1,0,0.2,0,0.3c0,0.1,0,0.2,0,0.2
		c0,0.1,0,0.2,0,0.2c-0.1,0.4-0.1,1.3-0.3,2.6c0,0.3-0.1,0.5-0.1,0.8c-0.2,1.8-0.6,4.1-1.3,7.2c-0.5,2-1,4.3-1.8,6.9
		C390.1,354.2,391.6,355.7,394,357.2z"/>
	<path class="st153" d="M417.1,348.7c0.1-0.1,0.1-0.3,0.1-0.4c1.6-7.5,2.3-10.3,4.1-18.6c0.5-2.1-0.7-4.2-2.8-4.9
		c-2.2-0.8-4.7,0.4-5.5,2.6c-0.1,0.2-0.1,0.5-0.2,0.7c-1.5,8.4-1.9,11.2-3.2,18.7c-0.3,1.8,0.7,3.6,2.5,4.3
		C414.2,351.7,416.4,350.7,417.1,348.7z"/>
	<path class="st153" d="M400,360.8c1.2,1.2,3.2,1.3,4.5,0.1c4.8-4.3,5.4-4.7,11.3-10c0,0,0.1-0.1,0.1-0.1c1.6-1.5,1.6-4,0-5.6
		c-1.5-1.6-4.1-1.6-5.6,0c0,0-0.1,0.1-0.1,0.1c-5.4,5.8-5.9,6.3-10.3,11.1C398.7,357.6,398.8,359.6,400,360.8z"/>
	<linearGradient id="SVGID_22_" gradientUnits="userSpaceOnUse" x1="399.043" y1="359.0504" x2="404.5013" y2="359.0504">
		<stop  offset="0" style="stop-color:#F7F7FF"/>
		<stop  offset="1" style="stop-color:#EEEEF6"/>
	</linearGradient>
	<path class="st198" d="M403.7,357.2c-1.1-1.1-2.8-1.1-3.9,0c-1.1,1-1.1,2.8,0,3.8c1.1,1.1,2.8,1.1,3.9,0
		C404.8,359.9,404.8,358.2,403.7,357.2z"/>
	<path class="st199" d="M411.8,313.5c0-2.1-1.7-3.8-3.8-3.9c-1.6-0.1-3,0.8-3.7,2.2c0,0.1,0,0.3,0,0.4c-0.1,3.3-0.2,4.4-0.2,6.2
		c1,0.4,2.1,0.6,3.3,0.6c1.6-0.1,3.1-0.6,4.3-1.6C411.7,316.3,411.7,315.3,411.8,313.5z"/>
	<linearGradient id="SVGID_23_" gradientUnits="userSpaceOnUse" x1="399.461" y1="310.0238" x2="412.971" y2="310.0238">
		<stop  offset="0" style="stop-color:#FFC2CE"/>
		<stop  offset="0.2948" style="stop-color:#FDBECD"/>
		<stop  offset="0.5902" style="stop-color:#F6B2C8"/>
		<stop  offset="0.885" style="stop-color:#EB9EC1"/>
		<stop  offset="1" style="stop-color:#E694BE"/>
	</linearGradient>
	<path class="st200" d="M402.7,318.5c-0.5,0-1-0.2-1.1-0.2c-0.1-0.1-0.8-1.8-1.1-2.4c-0.3-0.6-1.1-1.7-1-3.1
		c0.1-1.4,0.6-2.6,0.5-3.4c-0.1-0.8-0.5-2.7,0.6-4.5c1.7-2.8,4.6-3.9,7.5-3.1c2.9,0.8,5,3,4.9,6.1c-0.1,3.1-1.9,5.4-3.1,6.7
		c-1.2,1.3-3.7,2.9-4.9,3.3C403.7,318.4,402.7,318.5,402.7,318.5z"/>
	<path class="st201" d="M400.6,304.8c0,0,1.7-2,6.5,0c0,0-2.8-4.7-5.2-4.2C399.5,301.2,400.6,304.8,400.6,304.8z"/>
	<path class="st181" d="M413,301.6c-0.9-0.7-2-1-2.8-1.2c-0.2-0.2-0.5-0.4-0.7-0.6c-1.7-1.2-3.7-0.3-4.6-0.1
		c-0.9,0.2-2.6-0.5-4.2,0.6c-1.7,1.1-0.1,4.4-0.1,4.4s0.5-3,2.6-2.8c2.6,0.2,2.9,4.4,4.4,4.7c0.3,0.1,0.6,0,1,0
		c0.1,1.1,0.4,1.9,0.5,2.3c0.2,0.5,1.5,1.1,1.5,2.1s0,1.8,0,1.8s0.5,2.4,1,2.6c0.3,0.1,2.1-2.9,3.2-6.2c0.5-1.5,0.7-2.8,0.6-3.5
		c0.1,0,0.1,0,0.1,0C415.8,305.4,415.2,303.2,413,301.6z"/>
	<path class="st202" d="M410,311.4c-0.9,1-1,2.3-0.4,2.8c0.6,0.5,1.8,0.1,2.7-0.9c0.9-1,1-2.3,0.4-2.8
		C412,309.9,410.9,310.3,410,311.4z"/>
	<path class="st153" d="M411.6,318.6c0,0-0.9,3.8-5.3,3.7c0,0-0.3,5.2,0.3,5.4c1.1,0.3,5.9-2.8,6-5.3
		C412.6,320.9,411.6,318.6,411.6,318.6z"/>
	<path class="st153" d="M406.2,322.4c0,0-1.6,5.1-2.5,4.5c-0.8-0.6-1.2-3.7-0.8-5.3c0.3-1.4,1.1-2.9,1.1-2.9
		S403.9,321.5,406.2,322.4z"/>
	<linearGradient id="SVGID_24_" gradientUnits="userSpaceOnUse" x1="386.1736" y1="361.9433" x2="403.5268" y2="361.9433">
		<stop  offset="2.955670e-02" style="stop-color:#ECB4BF"/>
		<stop  offset="0.3819" style="stop-color:#EBB0BF"/>
		<stop  offset="0.7066" style="stop-color:#E9A5BF"/>
		<stop  offset="1" style="stop-color:#E694BE"/>
	</linearGradient>
	<path class="st203" d="M402.1,361.3l-1.8,0.6l-5.4,3.5l-2.9,1.4l-1.3-0.2l-0.3-0.3l-0.4,0.1l-1-0.3l-0.4-0.7l-0.8,0.2
		c-0.2,0.1-0.4,0-0.6-0.2c-0.1-0.2-0.1-0.5,0.1-0.7l2.3-1.9l-2.7,1.5c-0.2,0.1-0.6,0-0.7-0.2c-0.1-0.2-0.1-0.4,0.1-0.5l1.5-1.7
		l3.6-2.3l8.1-2.3l1.2-0.3c1.1-0.3,2.2,0.3,2.6,1.3C403.8,359.6,403.2,360.9,402.1,361.3z"/>
</g>
<g>
	<path class="st4" d="M274.4,393.8l-0.5,0.1v-12.3c0.2,0.1,0.3,0.2,0.5,0.3V393.8z"/>
	<linearGradient id="SVGID_25_" gradientUnits="userSpaceOnUse" x1="263.9677" y1="366.4427" x2="279.4875" y2="366.4427">
		<stop  offset="0" style="stop-color:#FFC2CE"/>
		<stop  offset="0.2948" style="stop-color:#FDBECD"/>
		<stop  offset="0.5902" style="stop-color:#F6B2C8"/>
		<stop  offset="0.885" style="stop-color:#EB9EC1"/>
		<stop  offset="1" style="stop-color:#E694BE"/>
	</linearGradient>
	<path class="st204" d="M266.9,376.4c-0.6-0.2-1.8-3.6-2.4-4.7c-0.5-1.1,0.2-2.6-0.1-4.3c-0.2-1-1.3-4.3,1-7.5
		c2.3-3.2,7.4-4.3,10.5-2.6c3.1,1.7,4.4,7.1,3.2,10.5c-1.1,3.5-9,7.7-9,7.7L266.9,376.4z"/>
	<path class="st199" d="M266.7,376.3c0,0,0.1,0.1,0.1,0.1l3.2-0.9l-1.7-4.1C268.3,371.3,267.7,374.7,266.7,376.3z"/>
	<linearGradient id="SVGID_26_" gradientUnits="userSpaceOnUse" x1="269.2236" y1="377.166" x2="280.3154" y2="377.166">
		<stop  offset="0" style="stop-color:#FFC2CE"/>
		<stop  offset="0.2948" style="stop-color:#FDBECD"/>
		<stop  offset="0.5902" style="stop-color:#F6B2C8"/>
		<stop  offset="0.885" style="stop-color:#EB9EC1"/>
		<stop  offset="1" style="stop-color:#E694BE"/>
	</linearGradient>
	<path class="st205" d="M271.9,368.6c-2,0.7-3.1,2.9-2.4,4.9c1.7,4.9,1.7,4.9,3.3,9.8c0.7,2,2.9,3.1,4.9,2.4c2-0.7,3.1-2.9,2.4-4.9
		c-1.7-4.9-1.7-4.9-3.3-9.8C276.1,369,273.9,368,271.9,368.6z"/>
	<path class="st151" d="M280.8,377.9c0,0-1.8-3.6-2.5-4.8c-0.5-1-6.9,1.9-7.9,4.5c-1.1,2.6-2.6,7.4-2.6,7.4L280.8,377.9z"/>
	<path class="st199" d="M258.6,381.4l-3.5-2l-0.1,1.1l1.7,1.1l-1.9,0c0,0-2.7,1.2-3,1.3c-0.3,0.1,0,1,0.6,0.9
		c0.6-0.1,2.8-0.8,2.8-0.8l1.6,0.5c0,0-1.7,0.2-1.9,0.2c-0.2,0-2,0.9-2.2,1c-0.2,0.1-0.1,0.7,0.4,0.6c0.5,0,1.6-0.3,1.6-0.3
		l-0.1,0.7c0,0,1.6,0.2,2.1,0.3c0.5,0.1,1,0.2,1.1,0.3s1.5,1.8,2.6,2.2C261.5,388.9,258.6,381.4,258.6,381.4z"/>
	<linearGradient id="SVGID_27_" gradientUnits="userSpaceOnUse" x1="256.0728" y1="384.5117" x2="267.3185" y2="384.5117">
		<stop  offset="2.955670e-02" style="stop-color:#ECB4BF"/>
		<stop  offset="0.3819" style="stop-color:#EBB0BF"/>
		<stop  offset="0.7066" style="stop-color:#E9A5BF"/>
		<stop  offset="1" style="stop-color:#E694BE"/>
	</linearGradient>
	<path class="st206" d="M267.3,388.1c0,0-3.7-2.6-4.4-3.4c-0.6-0.8-2.3-2.3-3.7-4.7c-0.2-0.4-2.9-2.4-3.2-2.7l0.6,1.7
		c0,0,1.5,1.7,1.5,2.1c0,0-0.5,1.8,0.1,5.5c0.1,0.6,2.1,2.4,5.2,3.3l2.2,2L267.3,388.1z"/>
	<g>
		<path class="st207" d="M254.4,386.4l3.8-1.4c0.3-0.1,0.5-0.5,0.4-0.8l-3.4-9.1c-0.1-0.3-0.5-0.5-0.8-0.4l-3.8,1.4
			c-0.3,0.1-0.5,0.5-0.4,0.8l3.4,9.1C253.7,386.3,254.1,386.5,254.4,386.4z"/>
		<polygon class="st191" points="253.4,385.4 258.4,383.5 255.5,375.6 250.4,377.5 		"/>
	</g>
	<path class="st208" d="M261.9,383.9c0,0-1-1-1.6-1.1c-0.6-0.1-1.7-0.1-2.5-0.4c-0.8-0.3-1.8-0.6-2-0.7c-0.2-0.1-0.8,0.5-0.5,1
		c0.4,0.5,1.2,1,1.9,1.2c0.6,0.2,1.3,0.4,1.5,0.6c0.2,0.2,1.1,2.7,3.2,3.3C264,388.5,261.9,383.9,261.9,383.9z"/>
	<path class="st191" d="M263.4,384.9c1.6,0,2.9,1.2,2.9,2.8c0,1.6-1.2,2.9-2.8,2.9c-1.6,0-2.9-1.2-2.9-2.8
		C260.5,386.3,261.8,385,263.4,384.9z"/>
	<path class="st209" d="M262.6,386.9c1.1-1.4,3-1.6,4.4-0.6c5.3,3.7,5.9,4.1,12.4,8.7c0.1,0,0.1,0.1,0.2,0.1c1.7,1.3,2,3.8,0.7,5.6
		c-1.4,1.7-3.9,2-5.6,0.7c-0.1,0-0.1-0.1-0.1-0.1c-6-5.2-6.6-5.6-11.5-9.8C261.7,390.2,261.5,388.3,262.6,386.9z"/>
	<ellipse class="st160" cx="271.7" cy="485.7" rx="28.7" ry="16.4"/>
	<path class="st210" d="M270.6,482.7c0.1,0.9,0.2,2.2,0.4,2.9c0.2,0.6,1.7,3.5,1.3,5.4c0,0-0.7,1.1-3,1c-2.3-0.1-4.2-0.8-6.7-0.7
		c-2.5,0.1-6.2-0.3-7.5-1.7c-1.3-1.5-0.8-2.3,0-2.7c0.8-0.3,2.6,0.2,4-0.5c1.4-0.7,3.9-2.7,4.4-4.4
		C264.1,480.2,270.6,481.8,270.6,482.7z"/>
	<path class="st186" d="M263.6,481.9c0.5-1.7,7-0.1,7.1,0.8c0.1,0.9,0.2,2.2,0.4,2.9c0,0.1,0.1,0.3,0.2,0.5
		c-0.8,0.5-1.8,0.7-2.9,0.7c-2.5,0-4.6-1.5-5.5-3.7C263.2,482.7,263.4,482.3,263.6,481.9z"/>
	<path class="st211" d="M254.5,487.6c-0.1,0.5,0,1.1,0.8,1.9c1.3,1.5,5,1.8,7.5,1.7c2.5-0.1,4.3,0.6,6.7,0.7c2.3,0.1,3-1,3-1
		s0.1,1.4,0.1,1.7c0,0.3-0.4,1.1-2.8,1.2c-2,0.1-6-0.6-7.7-0.7c-1.7-0.1-5.2-0.5-6.2-1.1c-0.9-0.6-1.4-1.6-1.6-2.3
		C254,489,254.5,487.6,254.5,487.6z"/>
	<path class="st210" d="M288.4,483.4c-1.3,1.1-3.3,0.6-5.5-1c-2.2-1.5-4.7-1.7-6.9-3.4c-2.4-1.8-2.4-3.9-0.4-4.4
		c1.7-0.4,4.6,0.3,5.9,0.1s4.4-0.9,5.7,1.9C288.6,479.6,289.8,482.2,288.4,483.4z"/>
	<path class="st212" d="M273.4,477.9C273.4,477.9,273.4,477.9,273.4,477.9C273.4,477.9,273.4,477.9,273.4,477.9z"/>
	<path class="st186" d="M284.5,480.3c-3.2,0-5.8-2.6-5.9-5.7c1.1,0.1,2.2,0.3,2.9,0.2c1.3-0.2,4.4-0.9,5.7,1.9
		c0.4,0.8,0.7,1.6,1,2.3C287.3,479.8,286,480.3,284.5,480.3z"/>
	<path class="st211" d="M289.1,483.6c0-0.2,0-0.3,0-0.5l-0.1-1.1c0,0.6-0.2,1.1-0.6,1.5c-1.3,1.1-3.3,0.6-5.5-1
		c-2.2-1.5-4.7-1.7-6.9-3.4c-1.1-0.9-1.7-1.8-1.8-2.6l0.1,1.6c0,0,0,0,0,0.1c0.1,0.8,0.7,1.8,1.8,2.7c2.2,1.7,4.6,1.9,6.9,3.4
		c2.2,1.5,4.2,2.1,5.5,1C288.9,484.7,289.1,484.2,289.1,483.6C289.1,483.6,289.1,483.6,289.1,483.6z"/>
	<path class="st4" d="M284.6,446.1c0-0.1,0-0.1-0.1-0.2c0-10.5-0.1-20.4-0.1-35.2c0-0.3,0-0.6,0-0.8c-0.5-4.2-4.3-7.2-8.5-6.8
		c-4.2,0.5-7.3,4.3-6.8,8.5c0,0,0,0.1,0,0.1c1.9,15.2,3.1,25.2,4.5,36.1c0.1,0.4,0.2,0.9,0.3,1.3c1.6,9.9,3.5,14.6,4.8,27.6
		c0.3,3,10.3,3.6,9.8,0.6C286.9,466.4,286.3,457,284.6,446.1z"/>
	<path class="st4" d="M273.4,419.7c0-0.3,0-0.6,0-0.8c-0.1-4.2-3.7-7.6-7.9-7.5c-4.3,0.1-7.7,3.6-7.5,7.9c0,0,0,0.1,0,0.1
		c0.6,15.3,0.9,25.4,1.3,36.3c0,0.1,0,0.1,0,0.2c0,0.1,0,0.1,0,0.2c1.1,10.9,2.9,18.3,2.7,27.9c-0.1,3,10.7,3.3,10.4,0.3
		c-1-10.7-1.1-18.2-2.1-28.8C271.2,444.7,272.1,434.7,273.4,419.7L273.4,419.7z"/>
	<path class="st151" d="M256.9,423.8c-0.2,2-2,6.9,9.5,6.9c12.4,0,19.1-7.7,19.1-10.1c-0.1-7.9-0.3-13.1,0.4-18.2
		c0.7-5,4.6-24.7,0.7-27.3c-3.9-2.6-10.6,1.7-13,3.1c-2.5,1.4-10.5,7-12.7,9.6c-1.9,2.3-2.9,7-1.6,11.4c0.7,2.5,0.3,7.4-0.3,9.6
		C258.4,411.1,257.1,421.8,256.9,423.8z"/>
	<path class="st151" d="M277.6,371.3c-0.1,1.3-4.1,2.3-5.3,1c-1.1-1.2-3-5.3-4.3-5.1c-1.3,0.1-1.3,1.6-1.3,1.6l-0.9-0.3
		c0,0,0.2-2.5-0.3-3.4c-0.4-0.9-0.8-1.6,0.3-1.8c1.1-0.3,12-4.7,13.4-2.6c1.1,1.5,1.1,4.5,0.4,6.7
		C279,369.5,277.6,369.9,277.6,371.3z"/>
	<path class="st151" d="M278.1,361.1c1.1-0.8,1.5-2.4,0.3-3.9c-1.2-1.3-4.2-1.5-5.9-1.3c-1.7,0.1-5.8,1.4-6.8,0.8
		c-1.3-0.7-2.9-0.4-3,1.4c-0.1,1.5-0.1,4.8,4.3,5.1C270.6,363.5,276.3,362.4,278.1,361.1z"/>
	<linearGradient id="SVGID_28_" gradientUnits="userSpaceOnUse" x1="251.2887" y1="431.772" x2="258.4104" y2="431.772">
		<stop  offset="2.955670e-02" style="stop-color:#ECB4BF"/>
		<stop  offset="0.3819" style="stop-color:#EBB0BF"/>
		<stop  offset="0.7066" style="stop-color:#E9A5BF"/>
		<stop  offset="1" style="stop-color:#E694BE"/>
	</linearGradient>
	<path class="st213" d="M254.7,425.6l-0.5,1.4l-2.7,5.2c0,0-0.2,3.7-0.1,4.3l1.4,1.6c0,0,0.7,0.6,1.1,1c0.1,0.1,0.4,0.1,0.5,0
		c0.1-0.1,0.1-0.3,0-0.4l-0.1-0.2c0,0,1.1,0.4,1.6,0.7c0.1,0.1,0.3,0,0.4-0.1c0.1-0.1,0.1-0.2,0-0.3l-0.5-0.5c0,0,1,0.4,1.5,0.7
		c0.1,0.1,0.3,0,0.4-0.1l0.1-0.1c0.1-0.1,0-0.2,0-0.3l-1.2-1.1l-0.9-1l-0.1-2.4l0.6,2.3l1.7,1.8c0.1,0.1,0.2,0.1,0.4,0l0.1-0.1
		c0.1-0.1,0.1-0.2,0.1-0.3l-1.1-2.2l0-2.1c0,0,1.9-4,1-6.4c0.3-0.8-0.2-2.1-1.4-2.5C255.7,424.1,254.9,424.9,254.7,425.6z"/>
	<path class="st191" d="M258.6,425.3c1.1,1,1.1,2.7,0.1,3.8c-1,1.1-2.8,1.1-3.9,0.1c-1.1-1-1.1-2.7-0.1-3.8
		C255.7,424.3,257.5,424.2,258.6,425.3z"/>
	<path class="st151" d="M256.2,428.8c-1.6-0.7-2.4-2.5-1.8-4.1c2.2-6,2.5-6.7,5.2-14.1c0-0.1,0-0.1,0.1-0.2c0.9-2,3.2-3,5.2-2.1
		c2,0.8,3,3.2,2.1,5.2c0,0.1-0.1,0.1-0.1,0.2c-3.5,7.1-3.8,7.8-6.6,13.5C259.6,428.7,257.8,429.4,256.2,428.8z"/>
	<path class="st151" d="M267.3,412.3c0-0.2,0-0.3,0-0.5c0-7.9,0-10.8,0-19.6c0-2.2-1.6-4.1-3.9-4.4c-2.4-0.3-4.6,1.4-4.9,3.8
		c0,0.2,0,0.5,0,0.7c0.4,8.8,0.5,11.7,0.9,19.6c0.1,1.9,1.5,3.5,3.5,3.8C265,416,267,414.5,267.3,412.3z"/>
</g>
<g>
	<g>
		<path class="st199" d="M119.3,382.4l0.3,1.1c0.1,0.4,0,0.9-0.3,1.3l-0.5,0.6l-0.5-2.3L119.3,382.4z"/>
		<path class="st199" d="M119,387.4l-1.3,2.1c-0.1,0.2-0.3,0.2-0.5,0.1c-0.1-0.1-0.2-0.2-0.2-0.4l0.4-1.3l0.5-1.5l-1.6,2.1
			c-0.1,0.2-0.3,0.2-0.5,0.1c-0.1-0.1-0.2-0.3-0.1-0.4l0.9-1.6l0.7-1.5l-1.2,1.3c-0.1,0.1-0.4,0.1-0.5,0c-0.1-0.1-0.1-0.3,0-0.5
			l2.1-2.6L119,387.4z"/>
		<path class="st208" d="M117.1,374.5c0,0,1.2,2.9,1.3,3.2c0.1,0.3,1.1,5.6,1.1,5.9c0,0.3,0.1,3.1,0.1,3.1s-0.4,1.9-0.6,2.8
			c-0.1,0.3-0.3,0.4-0.6,0.3c-0.2-0.1-0.3-0.2-0.2-0.4l0.3-3.1l-1.1-3.1l-1.2-0.6l-0.9,1.2l-0.4,1.2l-1.2,1.3
			c-0.2,0.2-0.6,0.2-0.8,0c-0.2-0.2-0.2-0.5,0-0.7l0.8-1.2l0.6-1.9l1.6-3.9l-2.1-3.6L117.1,374.5z"/>
	</g>
	<path class="st153" d="M111.3,335.3c2.4-0.4,4.7,1.2,5.1,3.6c0,0.2,0.1,0.5,0.1,0.7c0.1,8.8,0.1,11.7,0.1,19.7
		c0,1.9-1.4,3.6-3.3,3.9c-2.2,0.4-4.3-1.1-4.6-3.2c0-0.2,0-0.3-0.1-0.5c-0.4-7.9-0.5-10.9-1-19.7
		C107.5,337.7,109.1,335.7,111.3,335.3z"/>
	<g>
		<path class="st214" d="M115.9,373.4c-1.5,0.3-2.4,1.8-2.1,3.2c0.3,1.5,1.8,2.4,3.3,2.1c1.5-0.3,2.4-1.8,2.1-3.2
			C118.8,374,117.4,373.1,115.9,373.4z"/>
		<path class="st153" d="M116.8,377.8c1.7-0.4,2.8-2,2.5-3.7c-1.1-6.4-1.2-7-2.6-14.8c0-0.1,0-0.1,0-0.2c-0.5-2.1-2.6-3.5-4.8-3
			c-2.2,0.5-3.5,2.6-3,4.7c0,0.1,0,0.1,0.1,0.2c2.1,7.6,2.3,8.3,4,14.5C113.4,377.1,115.1,378.2,116.8,377.8z"/>
	</g>
	<ellipse class="st160" cx="98.6" cy="448.2" rx="28.7" ry="16.4"/>
	<path class="st151" d="M102,435.3c-0.1,1-0.2,2.9-0.4,3.6c-0.3,0.7-0.7,2.7-0.5,3.8c0,0,0.1,0.8,2.6,1.1c2.4,0.3,3.4,0.4,4.7,0.9
		c1.3,0.6,2.5,1.4,4.8,1.4c2.3,0,4.2-0.5,4.4-1.2c0.2-0.7-0.2-1.2-1-1.5c-0.8-0.3-4.3-1.6-5.4-2.7c-1.1-1.1-3.1-4.2-3.6-5
		C107,434.4,102.1,434.3,102,435.3z"/>
	<path class="st151" d="M117.7,444.6c0,0.1,0,0.2,0,0.3c-0.2,0.7-2.1,1.2-4.4,1.2c-2.3,0-3.5-0.8-4.8-1.4c-1.3-0.6-2.3-0.7-4.7-0.9
		c-2.4-0.3-2.6-1.1-2.6-1.1c0-0.1,0-0.2,0-0.2c0,0-0.1,1.5-0.1,1.6c0,0.1,0.6,0.6,1.8,0.7c1.2,0.1,3.1,0.5,4,0.7
		c1.4,0.3,3.4,1.4,4.6,1.5c4.4,0.4,5.9-0.5,6.1-0.8C117.7,445.8,117.7,445,117.7,444.6z"/>
	<path class="st151" d="M116.6,445.5C116.6,445.5,116.6,445.5,116.6,445.5C116.6,445.5,116.6,445.5,116.6,445.5z"/>
	<path class="st151" d="M82.5,446.8c0.1,0.8,0.2,1.6,0.3,2.2c0.5,1.9,3.8,2.7,6.4,2.5c2.1-0.2,2.3-1.1,2.1-1.8
		c0.6,0.6,0.6,1.7,0.5,2.6c0,0.6-0.7,1.5-2.8,1.7c-2.4,0.2-5-0.5-6-1.9C82.4,451.2,82.5,446.8,82.5,446.8z"/>
	<path class="st151" d="M83,437.6c-0.2,0.7-1.2,8.5-0.2,11.8c0.7,2.4,3.6,3.4,6.8,3c2.3-0.3,2.3-2,1.8-2.8c-0.5-0.8-1.8-3.8-2.2-5.5
		c-0.3-1.7-1-5.8-1.9-6.4C86.4,436.9,83.2,436.8,83,437.6z"/>
	<path class="st186" d="M87.7,444.2c0.5,0,1.1-0.1,1.6-0.2c0,0,0-0.1,0-0.1c-0.3-1.7-1-5.8-1.9-6.4c-1-0.6-4.1-0.7-4.3,0
		c-0.1,0.3-0.4,2.2-0.5,4.4C83.7,443.3,85.6,444.2,87.7,444.2z"/>
	<path class="st186" d="M104.9,440.4c1.8,0,3.4-0.7,4.6-1.7c-0.8-1.2-1.6-2.4-1.9-2.9c-0.6-1.3-5.5-1.5-5.6-0.5
		c-0.1,1-0.2,2.9-0.4,3.6c-0.1,0.1-0.1,0.4-0.2,0.6C102.4,440,103.6,440.4,104.9,440.4z"/>
	<path class="st151" d="M101.1,437.3c1.1-10.9,0.7-20.4,1.8-31.3c0.3-3,3-5.2,6-4.9c3,0.3,5.3,3,5,6c-1.1,10.9-2.9,20.6-4,31.5
		C109.6,441.5,100.8,440.3,101.1,437.3z"/>
	<path class="st151" d="M100.6,370.4c0-0.3,0-0.6,0-0.8c0.2-4.2,3.8-7.5,8.1-7.3c4.3,0.2,7.6,3.8,7.4,8c0,0,0,0.1,0,0.1
		c-0.9,15.3-1.5,25.4-2.2,36.4c-0.2,3-2.8,5.3-5.8,5.1c-2.9-0.1-5.1-2.4-5.3-5.1C102.2,395.8,101.6,385.8,100.6,370.4z"/>
	<path class="st151" d="M82.4,440.7c1.6-10.9,2.1-20,3.8-30.8c0.5-3,3.3-5.1,6.3-4.6c3,0.5,5.1,3.2,4.7,6.2
		c-1.6,10.9-4.7,17-6.4,30.3C90.3,444.8,81.9,443.7,82.4,440.7z"/>
	<path class="st151" d="M86.1,410.2c0.9-11,1.7-21,2.9-36.3c0-0.3,0.1-0.6,0.1-0.8c0.8-4.2,4.9-6.9,9.1-6.1c4.2,0.8,7,4.8,6.2,9
		c0,0,0,0.1,0,0.1c-3.1,15.1-5.1,25-7.3,35.7c-0.6,2.9-3.5,4.9-6.5,4.3C87.7,415.5,85.8,413,86.1,410.2L86.1,410.2z"/>
	<path class="st214" d="M91.6,382c-1.6,0-2.3-0.2-2.6-0.3c-0.2-6-0.9-35.9-0.3-38c0.5-1.8,7-5.5,13.1-6.9c2.6-0.6,5.3-0.9,7.5-0.9
		c3.5,0,4.9,0.8,5.1,1.5c1.1,4.1,0.3,12.2,0,16.1c-0.1,1.1-0.2,1.8-0.2,2.2c0,0.9,0.2,4.3,0.6,9.1c0.2,3.3,0.5,7.1,0.7,10.8
		c0,0.1-0.1,0.3-0.3,0.6C112.5,379.2,98.3,382,91.6,382L91.6,382z"/>
	<path class="st153" d="M98.5,336.8c-5,1.7-10.1,4.6-10.7,6.7c-0.5,1.6,1,13.7,0.7,25.9c-0.1,7-1.7,13.4-1.7,14.5
		c0.1,1.7,10.5,4.5,18.6,2.6C105.4,371.3,98.4,336.9,98.5,336.8z"/>
	<path class="st153" d="M115.4,355.8c0-1.4,1.5-13.1,0.1-18.6c-0.6-2.3-4.6-2.6-9.6-2c2,1.5,1.7,10.3,2.1,14.4
		c1,11.9,1,25.1,1.1,35.6c4.8-1.4,8.6-5.7,8.4-7.5C117,369,115.4,357.3,115.4,355.8z"/>
	<path class="st208" d="M96.6,341.3c0.2,1.6,3.3,2.4,6.9,2c3.6-0.5,6.4-2.1,6.2-3.7c-0.2-1.6-3.3-2.4-6.9-2S96.4,339.7,96.6,341.3z"
		/>
	<path class="st170" d="M106.6,335.1l2.4,35.8c3.2-13.2,4.3-28.2,4.3-28.2l-3.6-0.4l2.6-2.7C110.8,337.8,106.6,335.1,106.6,335.1z"
		/>
	<path class="st208" d="M102.8,324.7c-2.2,0-3.9,1.7-3.9,3.9c0,5.2,0,5.2,0,10.3c0,2.1,1.7,3.9,3.9,3.9s3.9-1.7,3.9-3.9
		c0-5.2,0-5.2,0-10.3C106.7,326.5,105,324.7,102.8,324.7z"/>
	<path class="st181" d="M109.1,319.5c2.2-0.4,3.4,2.9,2.7,4.2c-0.8,1.5-2.2,0.7-2.9,1.7C107.8,326.9,107,319.9,109.1,319.5z"/>
	<linearGradient id="SVGID_29_" gradientUnits="userSpaceOnUse" x1="97.4275" y1="326.8235" x2="111.7896" y2="326.8235">
		<stop  offset="0" style="stop-color:#E694BE"/>
		<stop  offset="0.115" style="stop-color:#EB9EC1"/>
		<stop  offset="0.4098" style="stop-color:#F6B2C8"/>
		<stop  offset="0.7052" style="stop-color:#FDBECD"/>
		<stop  offset="1" style="stop-color:#FFC2CE"/>
	</linearGradient>
	<path class="st215" d="M108.3,335.8c0.6,0,1.1-0.2,1.2-0.2c0.1-0.1,0.8-1.9,1.2-2.6c0.4-0.6,1.2-1.8,1.1-3.3
		c-0.1-1.5-0.6-2.8-0.5-3.6c0.1-0.8,0.5-2.9-0.6-4.8c-1.7-3-4.9-4.2-8-3.4c-3.1,0.8-5.4,3.2-5.3,6.5c0.1,3.3,2,5.8,3.2,7.2
		c1.3,1.4,3.9,3.1,5.2,3.6C107.2,335.8,108.3,335.8,108.3,335.8z"/>
	<path class="st181" d="M95.3,322.2c-0.7,2.5,1.8,6,1.8,8.2c0,3.7,1.7,3.3,1.8,3l0-5.4c0,0,0.6-0.8,1.3,1.1c0.2,0.5,1.4,0.4,1.3-0.3
		c-0.2-1.1-0.5-1.9-0.2-2.6c0.2-0.6,1.2-0.8,1.5-2C103.1,323.2,95.8,320.3,95.3,322.2z"/>
	<path class="st181" d="M96.7,322.2c-1.4-0.9-1.7-3.3,2.7-4.7c1.3-0.4,8.2-0.2,9.1-0.3c0.9-0.1,2.3-0.6,3.5,0c1.1,0.7,2,4.6-3.2,6.3
		C103,325.4,97.9,322.9,96.7,322.2z"/>
	<path class="st170" d="M99.2,346.4l-3.5,2.4c0,0,8.3,22.1,8.7,23.4c-0.1-0.4,2.5-16.3-3.1-27.4c-2.7-5.5-2.3-8.6-2.3-9.6
		c0,0-3.6,5.6-4,10L99.2,346.4z"/>
	<path class="st153" d="M83.2,365.3c0-0.2,0-0.3,0-0.5c1.2-7.9,1.6-10.8,3-19.5c0.3-2.2,2.3-3.8,4.5-3.7c2.5,0.1,4.4,2.1,4.3,4.5
		c0,0.2,0,0.5-0.1,0.7c-1.7,8.6-2.3,11.5-3.8,19.3c-0.4,1.9-2.1,3.3-4.1,3.2C84.9,369.4,83.2,367.5,83.2,365.3z"/>
	<g>
		<g>
			<path class="st216" d="M105.7,364.6c-0.1-1.7-1.5-3.1-3.2-3.1c-6.5,0-7.2,0-15.2-0.1c-0.1,0-0.1,0-0.2,0
				c-2.2,0.1-3.9,1.9-3.8,4.1c0.1,2.2,2,3.9,4.2,3.8c0.1,0,0.1,0,0.2,0c8-0.7,8.7-0.8,15.1-1.4C104.5,367.8,105.8,366.4,105.7,364.6
				z"/>
			<path class="st216" d="M100,364.9c0.1,1.5,1.3,2.7,2.9,2.6c1.5-0.1,2.7-1.3,2.6-2.8c-0.1-1.5-1.3-2.7-2.9-2.6
				C101.1,362.1,99.9,363.4,100,364.9z"/>
		</g>
		<g>
			<path class="st153" d="M105.7,364.6c-0.1-1.7-1.5-3.1-3.2-3.1c-6.5,0-7.2,0-15.2-0.1c-0.1,0-0.1,0-0.2,0
				c-2.2,0.1-3.9,1.9-3.8,4.1c0.1,2.2,2,3.9,4.2,3.8c0.1,0,0.1,0,0.2,0c8-0.7,8.7-0.8,15.1-1.4C104.5,367.8,105.8,366.4,105.7,364.6
				z"/>
			<path class="st214" d="M100,364.9c0.1,1.5,1.3,2.7,2.9,2.6c1.5-0.1,2.7-1.3,2.6-2.8c-0.1-1.5-1.3-2.7-2.9-2.6
				C101.1,362.1,99.9,363.4,100,364.9z"/>
		</g>
	</g>
	<g>
		<path class="st181" d="M108.2,364l6.2-5.4c0.2-0.2,0.4-0.3,0.7-0.3l4.8-0.2c0.2,0,0.2,0.2,0.1,0.3l-6.1,5.5L108.2,364z"/>
		<path class="st208" d="M102.5,362.6c1.7-0.3,2.6-0.4,2.6-0.4l3-1.8c0.4-0.3,0.9-0.4,1.4-0.5l2.2-0.3l1.8-0.1l-1,0.9l-0.5,0.4
			l-1.8,0.5l2,0l3.8-0.7c0.2,0,0.4,0.1,0.4,0.2c0.1,0.2,0,0.5-0.2,0.6l-3,1.2l4-1.5c0.2-0.1,0.3,0,0.4,0.1c0.2,0.2,0.1,0.5-0.1,0.6
			l-1.8,1c0,0.2-0.1,0.3-0.2,0.4l-4.8,3l-5.2,0.2c0,0-1.4,0.2-2.8,0.2C100.6,366.5,100.7,362.9,102.5,362.6z"/>
	</g>
	<path class="st181" d="M100.8,328.8c0,0-0.3,3.5,0.9,4.9c1.5,1.8,5.1,2.6,6.7,2.7c2.4,0.1,2-1,2.4-2.3c0.4-1.3,0.7-2,0.9-3.1
		c0.3-1.1-1.8-1-2.7-0.5c-1.3,0.6-2.9,1.4-5,0.7c-1.9-0.6-2.8-3.1-2.8-3.1L100.8,328.8z"/>
	<path class="st208" d="M100.6,328.4c0.8,1.2,0.9,2.5,0.2,3c-0.7,0.5-1.9-0.1-2.7-1.2c-0.8-1.2-0.9-2.5-0.2-3
		C98.6,326.7,99.8,327.3,100.6,328.4z"/>
</g>
<g>
	<linearGradient id="SVGID_30_" gradientUnits="userSpaceOnUse" x1="58.1575" y1="318.3827" x2="84.3898" y2="318.3827">
		<stop  offset="0" style="stop-color:#F7F7FF"/>
		<stop  offset="1" style="stop-color:#EEEEF6"/>
	</linearGradient>
	<path class="st217" d="M83.3,300.9l-24.1,13.8c-0.6,0.3-1.1,1.2-1.1,1.8l0,18.8c0,0.7,0.5,1,1.1,0.6l8.4-4.8
		c0.4-0.2,0.7-0.2,0.9,0.1l1.7,2.4c0.4,0.6,1.5,0,1.9-1.1l1.7-4.4c0.2-0.5,0.5-0.9,0.9-1.2l8.4-4.8c0.6-0.3,1.1-1.2,1.1-1.8l0-18.8
		C84.4,300.8,83.9,300.5,83.3,300.9z"/>
	<path class="st153" d="M67.1,321.1c0,1.1-0.8,2.4-1.7,2.9c-0.9,0.5-1.7,0.1-1.7-1c0-1.1,0.8-2.4,1.7-2.9
		C66.4,319.6,67.1,320,67.1,321.1z M71.3,316.8c-0.9,0.5-1.7,1.9-1.7,2.9c0,1.1,0.8,1.5,1.7,1c0.9-0.5,1.7-1.9,1.7-2.9
		C73,316.7,72.2,316.3,71.3,316.8z M77.1,313.5c-0.9,0.5-1.7,1.9-1.7,2.9c0,1.1,0.8,1.5,1.7,1c0.9-0.5,1.7-1.9,1.7-2.9
		C78.8,313.4,78.1,312.9,77.1,313.5z"/>
	<linearGradient id="SVGID_31_" gradientUnits="userSpaceOnUse" x1="63.0437" y1="309.0894" x2="74.3233" y2="323.5917">
		<stop  offset="0" style="stop-color:#DEDEEE"/>
		<stop  offset="1" style="stop-color:#D3D3E8"/>
	</linearGradient>
	<path class="st218" d="M58.2,335.3l0-18.8c0-0.7,0.5-1.5,1.1-1.8l24.1-13.8c0.3-0.2,0.5-0.2,0.7-0.1c0,0-2.6-1.1-2.8-1.2
		c-0.2-0.1-0.4-0.1-0.7,0.1l-24.1,13.8c-0.6,0.3-1.1,1.2-1.1,1.8l0,18.8c0,0.4,0.1,0.6,0.4,0.7c0.2,0.1,2.2,0.9,2.7,1.1
		C58.3,335.8,58.2,335.6,58.2,335.3z"/>
	<g>
		<linearGradient id="SVGID_32_" gradientUnits="userSpaceOnUse" x1="67.5758" y1="331.1327" x2="70.0109" y2="334.2635">
			<stop  offset="0" style="stop-color:#DEDEEE"/>
			<stop  offset="1" style="stop-color:#D3D3E8"/>
		</linearGradient>
		<path class="st219" d="M70.3,333.6l-1.7-2.4c-0.2-0.3-0.5-0.3-0.9-0.1l-0.8,0.4l0.6,0.9c0.1,0.1,0.1,0.1,0.2,0.2
			c0.1,0,2.8,1.2,2.9,1.2C70.5,333.7,70.4,333.7,70.3,333.6z"/>
	</g>
</g>
<g>
	<linearGradient id="SVGID_33_" gradientUnits="userSpaceOnUse" x1="387.252" y1="272.6132" x2="413.4842" y2="272.6132">
		<stop  offset="0" style="stop-color:#F7F7FF"/>
		<stop  offset="1" style="stop-color:#EEEEF6"/>
	</linearGradient>
	<path class="st220" d="M388.3,255.1l24.1,13.8c0.6,0.3,1.1,1.2,1.1,1.9l0,18.8c0,0.7-0.5,1-1.1,0.6l-8.4-4.8
		c-0.4-0.2-0.7-0.2-0.9,0.1l-1.7,2.4c-0.4,0.6-1.5,0-1.9-1.1l-1.7-4.4c-0.2-0.5-0.5-0.9-0.9-1.2l-8.4-4.8c-0.6-0.3-1.1-1.2-1.1-1.9
		l0-18.8C387.3,255.1,387.7,254.8,388.3,255.1z"/>
	<path class="st151" d="M406.2,274.4c0.9,0.5,1.7,1.9,1.7,2.9c0,1.1-0.8,1.5-1.7,1c-0.9-0.5-1.7-1.9-1.7-2.9
		C404.5,274.3,405.3,273.8,406.2,274.4z M398.7,272c0,1.1,0.8,2.4,1.7,2.9c0.9,0.5,1.7,0.1,1.7-1c0-1.1-0.8-2.4-1.7-2.9
		C399.4,270.5,398.7,270.9,398.7,272z M392.8,268.7c0,1.1,0.8,2.4,1.7,2.9c0.9,0.5,1.7,0.1,1.7-1c0-1.1-0.8-2.4-1.7-2.9
		C393.6,267.2,392.8,267.6,392.8,268.7z"/>
	<linearGradient id="SVGID_34_" gradientUnits="userSpaceOnUse" x1="393.5022" y1="252.2384" x2="419.7672" y2="286.0078">
		<stop  offset="0" style="stop-color:#DEDEEE"/>
		<stop  offset="1" style="stop-color:#D3D3E8"/>
	</linearGradient>
	<path class="st221" d="M413.5,289.5l0-18.8c0-0.7-0.5-1.5-1.1-1.9l-24.1-13.8c-0.3-0.2-0.5-0.2-0.7-0.1c0,0,2.6-1.1,2.8-1.2
		c0.2-0.1,0.4-0.1,0.7,0.1l24.1,13.8c0.6,0.3,1.1,1.2,1.1,1.8l0,18.8c0,0.4-0.1,0.6-0.4,0.7c-0.2,0.1-2.2,0.9-2.7,1.1
		C413.4,290.1,413.5,289.8,413.5,289.5z"/>
	<linearGradient id="SVGID_35_" gradientUnits="userSpaceOnUse" x1="402.2235" y1="286.0313" x2="403.2415" y2="287.3401">
		<stop  offset="0" style="stop-color:#DEDEEE"/>
		<stop  offset="1" style="stop-color:#D3D3E8"/>
	</linearGradient>
	<path class="st222" d="M401.3,287.8l1.7-2.4c0.2-0.3,0.5-0.3,0.9-0.1l0.8,0.4l-0.6,0.9c-0.1,0.1-0.1,0.1-0.2,0.2
		c-0.1,0-2.8,1.2-2.9,1.2C401.1,288,401.2,287.9,401.3,287.8z"/>
</g>
<g>
	<linearGradient id="SVGID_36_" gradientUnits="userSpaceOnUse" x1="265.5136" y1="332.1646" x2="291.7458" y2="332.1646">
		<stop  offset="0" style="stop-color:#F7F7FF"/>
		<stop  offset="1" style="stop-color:#EEEEF6"/>
	</linearGradient>
	<path class="st223" d="M290.7,314.7l-24.1,13.8c-0.6,0.3-1.1,1.2-1.1,1.9l0,18.8c0,0.7,0.5,1,1.1,0.6l8.4-4.8
		c0.4-0.2,0.7-0.2,0.9,0.1l1.7,2.4c0.4,0.6,1.5,0,1.9-1.1l1.7-4.4c0.2-0.5,0.5-0.9,0.9-1.2l8.4-4.8c0.6-0.3,1.1-1.2,1.1-1.8l0-18.8
		C291.7,314.6,291.3,314.3,290.7,314.7z"/>
	<linearGradient id="SVGID_37_" gradientUnits="userSpaceOnUse" x1="270.3997" y1="322.8713" x2="281.6793" y2="337.3737">
		<stop  offset="0" style="stop-color:#DEDEEE"/>
		<stop  offset="1" style="stop-color:#D3D3E8"/>
	</linearGradient>
	<path class="st224" d="M265.5,349l0-18.8c0-0.7,0.5-1.5,1.1-1.8l24.1-13.8c0.3-0.2,0.5-0.2,0.7-0.1c0,0-2.6-1.1-2.8-1.2
		c-0.2-0.1-0.4-0.1-0.7,0.1l-24.1,13.8c-0.6,0.3-1.1,1.2-1.1,1.8l0,18.8c0,0.4,0.1,0.6,0.4,0.7c0.2,0.1,2.2,0.9,2.7,1.1
		C265.6,349.6,265.5,349.4,265.5,349z"/>
	<g>
		<linearGradient id="SVGID_38_" gradientUnits="userSpaceOnUse" x1="274.9318" y1="344.9147" x2="277.3669" y2="348.0455">
			<stop  offset="0" style="stop-color:#DEDEEE"/>
			<stop  offset="1" style="stop-color:#D3D3E8"/>
		</linearGradient>
		<path class="st225" d="M277.7,347.4l-1.7-2.4c-0.2-0.3-0.5-0.3-0.9-0.1l-0.8,0.4l0.6,0.9c0.1,0.1,0.1,0.1,0.2,0.2
			c0.1,0,2.8,1.2,2.9,1.2C277.9,347.5,277.8,347.5,277.7,347.4z"/>
	</g>
	<path class="st153" d="M280.3,330.3c0-0.9-0.7-1.1-1.8-0.5c-1,0.6-1.8,1.6-2.4,2.7l-2-0.2c0.9-2,2.4-3.9,4.6-5.1
		c2.4-1.4,4.1-1.1,4.1,1.1c0,3-2.7,4.9-2.7,6.8l-2.4,1.4C277.8,333.9,280.3,331.9,280.3,330.3z M277.5,339.6c0-0.9,0.6-2,1.6-2.5
		c0.9-0.5,1.6-0.2,1.6,0.8c0,0.9-0.6,2.1-1.6,2.6C278.1,341,277.5,340.6,277.5,339.6z"/>
</g>
<g>
	<path class="st151" d="M227.2,258.9c-6.6,3.7-11.9,0.7-11.9-6.8c0-7.5,5.3-16.6,11.9-20.4c6.6-3.7,11.9-0.7,11.9,6.8
		C239,246,233.7,255.1,227.2,258.9z M227.2,237.6c-3.7,2.1-6.7,7.3-6.7,11.6c0,4.2,3,6,6.7,3.9c3.7-2.1,6.7-7.3,6.7-11.6
		C233.9,237.2,230.9,235.4,227.2,237.6z"/>
	<path class="st151" d="M227.2,258.9c-1.4,0.8-2.6,0.2-2.6-1.5c0-1.6,1.2-3.6,2.6-4.4c1.8-1,3.5-2.8,4.8-5c1.3-2.2,2-4.5,2-6.6
		c0-2.1-0.7-3.6-2-4.3c-1.3-0.7-3-0.6-4.8,0.5c-1.8,1-3.5,2.8-4.8,5c-1,1.7-2.6,2.7-3.6,2.1c-1-0.6-1-2.4,0-4.2
		c2.2-3.9,5.2-7,8.4-8.8c3.2-1.8,6.2-2.1,8.4-0.8c2.2,1.3,3.5,4,3.5,7.6c0,3.6-1.2,7.8-3.5,11.6C233.3,253.9,230.3,257,227.2,258.9z
		"/>
</g>
<g>
	<linearGradient id="SVGID_39_" gradientUnits="userSpaceOnUse" x1="257.9427" y1="155.6435" x2="286.7915" y2="155.6435">
		<stop  offset="0" style="stop-color:#F7F7FF"/>
		<stop  offset="1" style="stop-color:#EEEEF6"/>
	</linearGradient>
	<path class="st226" d="M285.6,136.4l-26.5,15.1c-0.7,0.4-1.2,1.3-1.2,2l0,20.6c0,0.7,0.5,1.1,1.2,0.7l9.3-5.3
		c0.4-0.2,0.8-0.2,1,0.1l1.9,2.7c0.5,0.6,1.6,0,2.1-1.2l1.9-4.9c0.2-0.5,0.6-1,1-1.3l9.3-5.3c0.7-0.4,1.2-1.3,1.2-2l0-20.6
		C286.8,136.3,286.3,136,285.6,136.4z"/>
	<linearGradient id="SVGID_40_" gradientUnits="userSpaceOnUse" x1="263.3162" y1="145.4232" x2="275.7209" y2="161.3722">
		<stop  offset="0" style="stop-color:#DEDEEE"/>
		<stop  offset="1" style="stop-color:#D3D3E8"/>
	</linearGradient>
	<path class="st227" d="M257.9,174.2l0-20.6c0-0.7,0.5-1.7,1.2-2l26.5-15.1c0.3-0.2,0.5-0.2,0.8-0.1c0,0-2.8-1.2-3.1-1.3
		c-0.2-0.1-0.5-0.1-0.8,0.1L256,150.3c-0.7,0.4-1.2,1.3-1.2,2l0,20.6c0,0.4,0.2,0.7,0.4,0.8c0.2,0.1,2.4,1,3,1.2
		C258.1,174.8,257.9,174.6,257.9,174.2z"/>
	<linearGradient id="SVGID_41_" gradientUnits="userSpaceOnUse" x1="268.3005" y1="169.6655" x2="270.9784" y2="173.1085">
		<stop  offset="0" style="stop-color:#DEDEEE"/>
		<stop  offset="1" style="stop-color:#D3D3E8"/>
	</linearGradient>
	<path class="st228" d="M271.3,172.3l-1.9-2.7c-0.2-0.3-0.6-0.3-1-0.1l-0.9,0.5l0.7,1c0.1,0.1,0.1,0.2,0.2,0.2
		c0.1,0,3.1,1.4,3.2,1.3C271.5,172.5,271.4,172.5,271.3,172.3z"/>
	<path class="st153" d="M273,151.2l0,8.9l-1.8,1v-3.6l-3.5,2v3.6l-1.8,1l0-8.9l1.8-1v3.5l3.5-2l0-3.5L273,151.2z M274.6,150.3
		c0-0.6,0.4-1.3,1.1-1.7c0.6-0.4,1.1-0.2,1.1,0.4c0,0.7-0.4,1.4-1.1,1.8C275,151.1,274.6,150.9,274.6,150.3z M274.8,152.2l1.7-1
		l0,6.8l-1.7,1L274.8,152.2z M277.8,156.2c0-0.6,0.4-1.4,1.1-1.7c0.6-0.4,1.1-0.1,1.1,0.5c0,0.6-0.4,1.4-1.1,1.8
		C278.3,157.1,277.8,156.8,277.8,156.2z M277.9,148.4l2.1-1.2l-0.3,6l-1.4,0.8L277.9,148.4z"/>
</g>
</svg>
